<?xml version="1.0" standalone="no"?>
<svg viewBox="-1300 -200 3350 3350" style="width: 292.5px; height: 292.5px; justify-content: center; align-self: center; transform: scale(1, 1);" xmlns="http://www.w3.org/2000/svg" width="219" height="219"><g transform="rotate(0 336.5957336425781 1482.4569034576416)"><g transform="translate(-300 499)"><path d="M1046.53 2404.69C1052.57 2380.29 1043.69 2360.82 1018.19 2346.45C1015.99 2340.64 966.704 2321.82 927.539 2294.18C892.354 2269.35 866.832 2235.27 865.762 2233.38C865.762 2233.38 857.85 2214.97 856.948 2206.67C852.623 2166.82 855.125 2140.71 852.454 2128.31C870.45 2125.95 914.692 957.168 907.537 918.432C919.256 915.856 931.684 913.139 942.856 906.531C943.747 906.302 942.282 903.712 942.324 903.225C970.352 848.197 927.356 661.084 900.408 609.279C921.808 608.722 949.995 605.811 963.244 587.941C969.516 585.877 973.47 582.281 976.514 576.503C980.019 570.998 983.272 565.223 986.201 559.303C1000.46 529.681 1009.25 496.79 1004.5 464.153C1005.41 463.866 1010.07 463.836 1010.31 462.53C1010.76 454.507 1009.29 447.437 1006.88 439.859C982.396 354.504 952.922 270.47 913.962 190.113C894.439 147.103 854.047 131.408 812.195 115.262C792.061 107.351 771.918 98.2196 750.905 93.0381C750.64 91.5678 751.895 87.0947 749.141 87.4593C745.74 88.1688 746.411 93.6378 745.15 96.7068C696.561 56.9285 727.374 36.4306 698.076 14.6453C667.76 -1.09191 630.788 -1.7312 597.363 1.67473C585.032 2.03143 575.165 7.5904 572.257 20.0037C561.657 45.688 536.82 64.5921 509.724 70.3872C507.485 66.4013 501.329 54.9701 497.881 58.5786C458.748 59.9145 399.415 74.2813 362.787 85.0296C326.017 94.4214 288.819 111.567 279.199 151.523C261.744 222.722 289.514 515.332 335.064 571.684L336.545 571.708C344.62 579.973 355.596 586.031 368.034 590.091C367.755 616.435 359.452 642.156 355.32 667.92C346.017 714.646 338.867 761.422 328.504 808.396C328.458 813.63 308.741 885.249 328.18 870.888C332.192 872.862 337.107 875.011 341.428 876.855C320.776 923.925 311.326 999.872 312.79 1058.02C313.156 1092.65 311.724 1122.98 303.957 1158.44C246.494 1458.9 195.83 2130.94 194.639 2139.92C193.544 2148.51 200.815 2195.12 194.639 2207.42C189.158 2218.33 165.778 2211.89 161.305 2216.1C149.69 2235.02 155.008 2247.07 145.481 2265.96C140.595 2270.33 129.671 2279.89 126.087 2286.61C118.832 2293.6 -1.32305 2372.45 3.54695 2384.42C3.54695 2384.42 2.99895 2390.16 2.81495 2391.41C-7.42905 2451.02 9.62895 2450.52 64.8189 2459.29C145.441 2473.51 205.695 2446.15 273.831 2409.59C296.473 2394.32 328.655 2365.16 318.18 2330.63C317.891 2328.52 311.678 2292.2 309.214 2273.76C309.214 2273.76 315.891 2258.99 290.047 2260.83C294.297 2256.17 303.634 2195.73 300.449 2187.73C298.426 2167.14 301.567 2148.44 300.573 2127.25C311.399 2128.05 501.466 1226.89 620.684 1170.89C621.421 1176.88 619.991 1188.02 627.935 1189.14C664.81 1476.84 753.47 2121.37 757.541 2122.49C751.431 2155.35 751.616 2231.51 751.502 2264.13C750.567 2265 746.275 2268.83 745.584 2269.77C745.44 2269.52 742.645 2272.31 742.502 2272.39L742.124 2271.52C729.566 2299.84 711.263 2329.01 727.44 2356.76C715.434 2355.89 717.361 2378.99 716.824 2389.63C723.662 2410.43 918.064 2466.57 961.506 2469.24C975.779 2471.73 1042.25 2450.58 1055.04 2447.55C1071.62 2444.45 1055.36 2413.64 1046.53 2404.69Z" transform="translate(110.0003 -47.01312)" fill="#FFFFFF" stroke="none"></path><path d="M586.346 0.00356152C592.638 -0.1921 593.84 7.72578 589.539 11.0087L589.362 11.1393C585.695 13.7403 583.975 16.0663 581.985 20.2163C572.282 45.8973 544.92 60.6263 518.159 55.1723C527.454 72.5123 533.696 89.2943 543.001 106.341C585.845 194.602 726.549 223.315 743.377 102.215C717.595 97.2333 702.316 39.2533 718.859 21.9553L719.306 24.0606C724.074 46.7702 727.336 70.0199 744.551 87.1433C745.075 87.2963 745.576 87.3433 746.07 87.3433C746.726 84.2343 747.482 81.1593 748.423 78.1433C750.714 70.7843 762.181 72.1683 761.859 80.1293C796.192 90.5913 829.186 105.41 862.025 119.726C889.327 131.636 911.65 152.94 924.367 179.918C960.025 253.713 987.251 331.611 1010.99 409.975C1011.39 412.651 1012.82 417.162 1014.51 422.473C1019.5 438.182 1026.71 460.879 1016.01 463.707C1019.52 496.129 1010.54 528.924 996.657 558.039C990.216 568.978 985.671 584.144 972.733 588.706C959.3 605.579 934.737 609.957 914.286 611.149C941.791 675.899 979.161 840.831 953.89 905.172C955.752 913.938 935.985 918.881 924.765 921.687C922.475 922.26 920.541 922.743 919.219 923.152C925.5 960.682 924.13 999.342 921.422 1037.14C896.061 1359.55 891.248 1683.74 917.93 2006.23C919.5 2026.33 921.191 2046.43 922.98 2066.52L924.063 2078.57C925.482 2094.61 926.688 2110.58 926.32 2126.75C926.201 2132.36 921.549 2135.73 916.899 2136.02C901.283 2145.99 880.307 2146.07 862.24 2148.47C865.431 2165.89 867.219 2193.07 872.804 2207.72C884.43 2204.68 891.923 2215.52 880.336 2221.64C894.599 2229.56 901.937 2244.71 913.355 2255.35C944.718 2242.61 950.558 2261.64 924.929 2265.98C931.897 2271.8 939.294 2277.17 946.941 2282.27L947.484 2282.2C949.508 2281.89 951.934 2281.28 954.528 2280.62C963.52 2278.35 974.53 2275.57 977.852 2283.25C979.773 2290.42 970.924 2292.7 964.514 2293.57C970.202 2297.16 975.909 2300.72 981.617 2304.28C986.612 2302.09 991.566 2299.34 996.659 2297.58C1009.2 2294.79 1010.28 2311.06 993.917 2311.98C1004.17 2319.55 1018.31 2315.19 1024.87 2325.87C1048.84 2335.55 1060.17 2364.78 1054.57 2388.15C1062.99 2395.63 1068.9 2406.85 1069.58 2418.13C1071.2 2430.2 1061.59 2441.57 1048.57 2444.75C1033.9 2449.63 1019.02 2454.09 1004.18 2458.28L1002.63 2458.81C990.399 2462.98 977.044 2466.71 964.325 2465.98C888.895 2461.48 788.309 2430.5 727.935 2391.94C712.877 2380.62 710.244 2352.63 730.968 2343.68C722.497 2328.32 725.129 2316.69 728.657 2301.1C729.107 2299.11 729.571 2297.06 730.029 2294.93C732.84 2282.63 736.657 2270.01 743.566 2258.63C744.179 2257.62 745.653 2257.92 745.735 2258.92C746.55 2270.52 745.654 2282.37 744.767 2294.09C744.67 2295.36 744.574 2296.64 744.48 2297.91L744.375 2299.34C744.165 2302.26 743.892 2304.72 743.646 2306.95C742.88 2313.85 742.37 2318.45 744.822 2327C752.581 2355.87 827.38 2370.28 856.775 2382.19C879.85 2389.34 903.277 2395.74 927.033 2401.37L928.775 2401.74C932.214 2402.5 935.671 2403.32 939.144 2404.15C955.925 2408.15 973.1 2412.24 990.6 2409.37C1001.55 2401.4 1017.99 2403.64 1028.76 2394.52C1044.99 2376.99 1032.23 2351.29 1020.85 2335.36C1012.06 2338.17 1004.28 2332.69 997.381 2327.83C995.65 2326.61 993.974 2325.43 992.35 2324.43L992.051 2324.25C983.781 2319.02 975.534 2322.68 967.252 2317.46L965.381 2317.82C959.467 2318.95 953.814 2320.1 948.898 2321.11C928.521 2325.28 920.829 2326.86 959.925 2312.88C951.932 2307.88 943.919 2302.84 936.155 2297.54C920.218 2299.47 902.757 2307.84 887.945 2308.6C897.913 2299.31 911.512 2294.16 924.326 2289.06C916.866 2283.39 909.767 2277.33 903.417 2270.66L897.351 2272.17C860.085 2281.43 845.436 2284.1 895.606 2261.53C885.739 2250.58 884.136 2234.35 873.288 2224.05C855.841 2227.7 839.812 2235.38 825.603 2245.28C819.857 2249.4 815.529 2254.54 810.978 2259.69C789.413 2287.43 756.005 2291.71 745.799 2255.72C745.622 2254.99 746.779 2254.53 747.105 2255.15L747.143 2255.24C752.024 2266.29 767.774 2275.25 780.93 2268.38L781.328 2268.17C794.193 2261.47 800.169 2247.79 810.303 2238.47C823.979 2226.12 841.121 2217.84 858.808 2211.63C854.52 2195.96 853.073 2167.43 853.56 2149.05C823.779 2150.46 793.805 2149.02 764.55 2143.36C767.348 2163.76 767.377 2187.84 767.405 2210.41C767.424 2225.65 767.441 2240.2 768.31 2252.48C771.424 2262.71 752.48 2269.1 750.466 2258.91C749.353 2225.94 752.578 2178.38 757.6 2141.58L755.498 2141.07C753.515 2140.58 751.431 2139.98 749.73 2139.02C736.051 2140.57 735.057 2115.67 734.306 2096.84C734.026 2089.83 733.78 2083.67 732.925 2080.02C711.744 1784.14 667.127 1490.91 629.21 1196.98C623.952 1194.97 623.019 1188.52 622.15 1183.12C574.37 1215.47 564.848 1280.1 543.46 1330.2C450.053 1589.62 408.319 1863.31 343.581 2130.45L343.937 2130.55C344.191 2130.62 344.193 2130.66 343.662 2130.62L343.54 2130.61L343.54 2130.63C347.54 2131.16 350.691 2135.36 348.25 2139.27C342.122 2151.64 326.866 2149.93 314.259 2148.52C311.871 2148.25 309.578 2147.99 307.46 2147.84C308.014 2157.56 307.437 2172.11 306.84 2187.16C306.047 2207.16 305.219 2228.04 306.974 2239.56C323.379 2239.86 324.422 2257.92 326.594 2268.65L326.762 2269.76C327.39 2273.73 328.339 2278.45 329.367 2283.57C333.084 2302.07 337.827 2325.69 332.126 2337.3C343.377 2350.69 335.284 2368.88 323.612 2378.02C311.113 2387.26 295.555 2392.67 281.426 2399.79C265.154 2406.36 249.013 2414.43 232.717 2422.57C182.416 2447.71 130.652 2473.57 69.1016 2458.52L65.5538 2457.77C8.44025 2445.7 -7.96895 2440.34 3.37357 2383.81C-1.28443 2372.32 -1.31543 2359.74 5.23857 2349.58C16.9266 2334.58 36.5646 2326.37 52.1906 2314.98C78.6576 2297.2 106.827 2281.64 132.678 2263.13C131.717 2262.3 133.051 2261.99 133.835 2262.13C152.079 2247.85 150.372 2223.12 163.1 2205.48C166.283 2196.38 182.356 2194.17 192.941 2195.43C189.634 2178.48 205.789 2101.35 207.841 2155.83L207.84 2156.61C207.848 2158.33 207.912 2160.87 207.987 2163.86C208.281 2175.54 208.752 2194.23 206.781 2198.6C241.915 2209.34 249.491 2243.09 257.01 2270.35L257.494 2270.48C259.894 2271.1 263.108 2271.6 264.309 2273.96C275.607 2266.78 278.764 2252.64 289.706 2245.03C286.637 2242.63 286.475 2238.05 288.041 2234.5C293.137 2215.82 296.192 2168.26 303.89 2147.39C267.721 2141.97 230.874 2139.22 195.55 2129.38C190.96 2133.89 181.54 2132.29 181.91 2124.15C192.85 1946.79 211.666 1769.98 235.385 1593.89C254.887 1429.07 289.195 1266.34 313.092 1102.38L313.294 1079.88C313.939 1012.23 315.746 943.571 340.97 879.882C338.75 878.912 336.55 877.912 334.38 876.862C312.702 885.848 321.742 844.437 326.925 820.689C328.282 814.474 329.375 809.469 329.584 806.893C343.025 734.909 358.858 662.939 368.953 590.506C358.371 586.678 348.6 581.248 340.449 573.357C291.031 533.129 262.383 207.337 280.344 141.83C289.719 100.624 329.448 80.3813 367.313 71.0673L372.905 69.4868C415.195 57.5903 458.218 46.8104 502.248 44.1613C503.816 42.7393 508.427 43.1483 509.031 44.3343C511.789 45.9953 514.407 49.2383 516.621 52.6643C577.735 45.6403 561.205 5.69126 586.346 0.00356152ZM358.726 86.1022C406.512 70.2903 455.92 60.1163 504.145 45.8693C509.463 46.007 512.778 58.6629 513.969 62.8428L514.119 63.3583C526.841 110.259 552.99 155.128 596.576 179.227C638.473 205.337 700.289 204.206 733.029 164.004C750.748 141.73 757.516 113.031 761.435 85.3469L761.682 83.5813C800.296 107.715 845.726 119.745 882.459 146.868C904.346 164.601 915.335 191.167 926.154 216.484L927.881 220.511C959.792 293.613 983.144 369.986 1004.25 446.734L1005.89 452.715C1004.07 474.092 1001.99 495.699 995.748 516.327C990.367 538.834 976.606 557.758 966.162 577.712C937.208 597.51 912.632 599.036 878.407 594.737C870.102 594.253 861.664 593.588 853.152 592.918C815.688 589.967 776.789 586.903 741.509 598.601C731.599 575.365 721.539 552.55 711.338 529.588L705.202 515.789C691.542 486.244 676.462 455.852 676.437 422.552C675.237 396.976 678.288 387.862 705.206 398.623C714.063 401.725 722.926 405.035 731.815 408.355C772.386 423.506 813.531 438.872 857.456 435.707C883.991 436.562 902.335 413.782 862.496 418.922C855.924 367.968 852.014 316.45 857.399 265.018C848.983 285.448 848.142 316.174 846.98 341.001L846.844 343.838C846.908 347.443 846.946 351.072 846.985 354.715C847.218 376.539 847.457 398.882 853.185 419.793C817.505 422.34 783.066 413.749 748.699 405.175C728.663 400.176 708.651 395.184 688.434 392.409C687.52 389.049 678.161 392.08 677.337 393.778C674.697 395.955 672.709 399.182 671.23 402.628C669.849 397.551 661.658 397.693 657.546 395.371C645.506 390.364 633.213 386.005 621.109 381.15C572.789 361.5 518.429 360.746 469.466 379.263C469.439 378.378 468.552 378.161 467.911 378.534C454.082 324.483 444.707 263.099 426.613 213.087C433.176 269.554 444.45 325.371 453.939 381.392C458.119 400.169 459.243 419.949 465.305 438.167C468.962 445.318 478.768 441.411 479.514 434.578C510.644 440.86 540.848 451.013 570.715 461.494L583.2 465.89C593.554 476.988 605.628 486.341 618.447 494.522C609.492 515.259 606.954 538.16 601.062 559.825C598.477 570.835 596.449 582.022 593.65 592.973L593.603 593.158C593.098 595.206 592.273 599.492 590.124 600.159C589.182 600.368 588.442 599.66 587.763 599.011C587.489 598.748 587.224 598.495 586.961 598.316L586.792 598.193C585.931 597.624 584.798 597.739 584.242 596.822C579.226 591.632 570.805 591.497 563.358 591.379C561.477 591.349 559.658 591.32 557.972 591.21L529.154 589.341C492.399 586.934 455.614 585.011 418.827 583.139C393.618 581.899 367.456 578.848 344.414 568.135C328.63 526.926 321.138 482.934 312.78 439.699L311.994 435.648C296.93 345.938 286.95 254.445 290.227 163.412C291.901 120.916 319.012 95.9983 358.726 86.1022ZM330.08 246.994C330.17 241.916 343.076 252.977 349.055 258.102C350.352 259.213 351.323 260.045 351.767 260.373L353.273 261.736C371.588 278.357 389.681 296.642 399.886 319.449C400.426 335.694 383.03 311.645 371.648 295.912C367.325 289.936 363.871 285.16 362.596 284.247C352.491 271.241 340.181 259.946 330.08 246.994ZM872.654 285.218C867.158 283.94 853.064 301.454 858.228 299.754C861.704 294.226 867.47 292.137 873.11 289.691L874.316 289.159C876.744 288.069 874.841 284.899 872.654 285.218ZM468.41 380.764C501.081 375.554 534.909 371.685 567.95 378.153C585.129 381.098 601.769 386.213 617.925 392.697C621.736 393.966 625.937 395.767 630.341 397.654C643.525 403.303 658.522 409.729 670.298 405.003C658.615 442.022 672.781 480.139 687.942 514.011L688.872 516.079C671.255 509.794 654.179 502.057 637.777 493.055C621.469 484.104 605.949 473.805 589.566 465.044C602.092 449.266 491.105 429.611 479.405 430.147C476.015 413.622 471.96 397.267 468.41 380.764ZM622.511 497.059C622.484 511.802 619.575 526.334 617.607 540.887C640.266 536.415 662.858 533.296 685.144 527.251C663.435 519.049 642.339 509.168 622.511 497.059ZM698.732 539.434L696.18 540.079C670.203 546.58 643.028 551.282 616.332 549.536C611.717 566.997 614.123 608.53 595.352 615.167C588.939 617.583 579.289 615.622 576.349 609.074C537.522 608.384 498.423 604.914 459.594 602.605C430.365 600.306 400.039 600.394 371.902 591.524C375.311 608.691 376.485 625.545 374.577 643.102C368.013 717.984 346.406 790.941 339.164 865.501L338.831 869.052L338.621 868.932C338.621 869.072 338.611 869.212 338.6 869.352C340.71 869.962 342.82 870.602 344.92 871.252C345.67 870.872 346.691 871.242 347.23 871.962C501.866 920.061 666.003 940.951 827.17 919.782C855.395 916.259 883.416 911.323 911.24 905.472C910.996 902.983 914.793 902.331 915.459 904.682C921.635 903.605 927.808 902.426 933.95 901.632C933.209 899.542 933.079 897.282 933.84 895.242C944.957 861.883 941.041 824.186 937.4 789.137C937.119 786.425 936.839 783.73 936.568 781.053C931.75 723.827 919.74 667.694 910.04 611.24C892.105 610.425 874.212 608.785 856.315 607.145C828.385 604.585 800.445 602.024 772.32 602.596C767.46 615.196 750.514 625.779 737.246 618.575C727.879 613.515 725.104 602.485 721.344 593.37C713.911 575.349 706.322 557.391 698.732 539.434ZM165.01 2205.47C187.427 2197.85 217.569 2209.2 228.77 2229.86C234.28 2239.55 236.938 2250.23 239.154 2260.65L239.701 2263.24C240.88 2268.9 241.5 2275.25 246.441 2279.76C250.981 2283.91 261.043 2286.34 264.31 2281.12C276.701 2282.24 283.329 2274.89 289.986 2267.51C294.544 2262.46 299.116 2257.39 305.562 2255.02C305.754 2258.62 307.47 2262.83 308.188 2266.34C308.54 2268.35 308.899 2270.37 309.26 2272.39C312.502 2290.61 315.831 2309.31 315.117 2327.25C311.195 2331.56 303.619 2332.5 298.172 2335.12C292.201 2326.48 245.132 2346.42 210.312 2361.18C194.605 2367.84 181.391 2373.44 175.57 2374.88C166.295 2378.17 157.146 2382.06 147.955 2385.98C123.595 2396.35 98.9404 2406.84 70.8806 2406.55C45.4346 2406.93 7.77857 2383.67 22.8486 2359.33C27.6206 2353.03 36.4406 2348.89 43.2696 2344.54C54.6189 2337.35 65.8563 2330 77.0689 2322.63L86.6756 2316.32C104.904 2322.75 124.037 2328.42 143.182 2330.17C153.791 2331.01 153.794 2316.51 143.183 2315.53C126.794 2314.13 110.325 2313.92 93.9276 2311.54C102.265 2306.07 110.543 2300.54 118.86 2295.04C135.875 2298.18 152.559 2303.11 169.287 2307.47C175.551 2308.14 176.872 2299.8 170.75 2297.98C156.738 2295.11 142.42 2293.66 128.238 2292.07L124.191 2291.61C133.95 2285.36 144.013 2278.89 151.509 2270.64C165.73 2275.49 180.11 2279.81 194.514 2284.05L196.501 2284.63C201.63 2286.11 209.337 2287.91 210.263 2282.03C211.099 2276.72 204.725 2274.84 199.717 2273.74L189.511 2271.59C178.358 2269.24 167.189 2266.98 155.984 2265.02C164.764 2253.01 164.607 2238.59 164.45 2224.23C164.381 2217.89 164.311 2211.57 165.01 2205.47ZM754.428 2388.67C735.367 2380.5 723.998 2365.72 732.554 2346.29C760.726 2380.87 864.089 2403.7 911.865 2418.22C917.994 2419.49 924.301 2421.12 930.718 2422.78C955.096 2429.09 981.046 2435.8 1004.75 2424.55C1023.63 2421.07 1045.17 2411.61 1052.36 2394.41C1052.79 2400.55 1052.35 2406.68 1051.82 2412.83L1051.52 2416.29C1052.22 2424.84 1048.36 2426.35 1040.12 2427.87L1039.11 2428.05C1015.72 2433.76 992.86 2442.98 969.777 2448.57C894.126 2443.87 820.435 2419.27 754.428 2388.67ZM317.872 2346.69L316.883 2346.99C316.153 2347.22 315.422 2347.45 314.688 2347.68C306.822 2350.16 298.783 2352.69 289.999 2350.5C247.099 2365.05 205.342 2381.54 163.899 2398.72C119.183 2420.12 47.1806 2445.01 8.43057 2393.28C9.54193 2398.69 10.1181 2403.39 10.6222 2407.51C12.645 2424.02 13.5061 2431.04 43.1226 2436.46C101.827 2455.61 148.996 2445.81 197.708 2419.65C233.397 2402.3 271.783 2388.5 306.328 2369.64L306.794 2369.31C313.589 2364.46 321.788 2355.61 317.872 2346.69Z" transform="translate(100.9996 -32.00129)" fill="#000000" fill-rule="evenodd" stroke="none"></path></g><g transform="translate(225 0)"><g><g><path d="M395.901 175.053C392.111 112.851 371.927 42.3305 312.523 11.7905C181.564 -40.7675 9.3796 91.5885 0.263603 226.8C-2.9144 273.085 22.7836 323.66 69.7446 336.527C80.1856 350.36 95.9756 358.809 111.561 366.141C297.188 462.448 417.095 384.16 395.901 175.053L395.901 175.053Z" transform="translate(36 94.99951)" fill="#FFFFFF" stroke="none"></path><path d="M559.189 199.517C552.629 181.297 545.699 163.217 538.409 145.277C531.309 127.817 524.896 109.98 516.079 93.3471C463.419 -5.99291 367.659 -5.99291 318.159 6.98709C292.489 -4.07291 244.408 -0.95317 217.679 9.02709C174.407 25.1841 121.658 88.7421 103.623 117.298C63.8039 180.347 38.9539 264.264 65.4039 337.12C68.8609 346.642 73.2699 355.461 78.2339 363.96C75.1069 368.198 71.5079 372.212 67.5209 376.156C55.6729 387.878 43.8249 399.214 33.5899 412.435C23.4189 425.574 14.9869 439.546 8.70993 454.951C-3.12608 484.003 -3.69607 516.899 11.9519 544.62C25.5659 568.74 49.6829 586.701 76.8539 588.414C78.2489 588.608 79.6459 588.786 81.0489 588.927C84.6489 594.857 89.0389 600.317 94.0489 605.077C109.399 619.677 145.989 627.167 166.859 627.647C167.929 628.507 169.009 629.367 170.089 630.217C182.859 640.267 196.259 650.407 210.919 657.557C220.849 662.407 233.869 666.457 244.229 662.957C248.929 666.097 256.639 665.437 261.299 662.867C268.959 658.647 275.189 651.047 278.979 643.267C288.169 624.377 285.959 603.707 283.599 583.527C280.999 561.237 278.499 538.937 275.959 516.647C273.969 499.217 271.889 481.497 266.589 464.707C263.849 456.007 260.259 447.647 255.619 439.787C255.739 439.127 255.719 438.467 255.529 437.847C254.009 432.907 250.869 430.317 247.149 426.957C246.669 426.527 246.189 426.087 245.719 425.637C243.859 423.517 241.869 421.547 239.739 419.877C238.919 419.047 238.109 418.207 237.299 417.367C230.569 410.317 224.209 402.907 218.559 394.967C213.079 387.267 208.129 379.227 203.419 371.037C198.629 362.707 195.459 353.517 190.679 345.247C190.269 344.537 189.229 344.397 188.649 344.987C187.169 346.517 186.219 348.217 186.399 350.007L185.659 350.117C185.379 347.417 182.889 345.217 179.509 345.807C174.449 346.687 170.289 347.017 165.909 345.337C166.679 340.227 167.389 335.107 168.089 329.977C169.369 320.537 170.559 311.067 171.579 301.597C174.049 302.187 176.499 303.037 178.899 304.117C182.319 305.647 185.549 307.707 188.309 310.237C191.029 312.737 192.909 316.107 196.229 317.847C200.049 319.837 204.659 316.547 203.539 312.227C201.269 303.497 188.419 298.497 180.469 296.847C177.739 296.277 174.949 296.037 172.159 296.097C172.789 290.017 173.349 283.937 173.809 277.847C174.029 274.967 174.229 272.087 174.419 269.197C180.599 267.327 187.219 266.767 193.649 267.647C195.769 269.337 197.889 271.007 199.939 272.697C206.449 278.077 212.929 283.487 219.329 288.997C219.909 289.487 220.479 289.977 221.059 290.477C224.859 293.747 229.599 290.507 228.959 285.877C223.739 247.937 246.979 217.757 274.189 194.377C304.309 168.487 359.069 165.472 394.889 120.627C411.386 123.985 448.219 133.957 463.419 158.177C484.699 192.117 481.919 222.527 483.539 261.027C485.159 299.557 489.279 339.747 480.529 377.737C472.459 412.767 450.609 442.697 416.709 456.457C415.869 456.797 415.019 457.127 414.169 457.447C396.639 464.057 377.509 465.927 359.069 462.447C338.659 458.587 321.619 449.247 304.639 437.757C303.659 437.107 302.229 438.447 302.969 439.427C325.349 469.087 369.309 478.997 404.179 471.167C405.809 470.797 407.429 470.397 409.039 469.957C401.239 492.387 402.809 517.007 412.969 538.847C419.079 551.987 428.399 563.357 439.749 572.327C452.259 582.207 467.779 590.187 476.459 604.057C484.409 616.767 482.049 631.047 468.439 638.387C465.009 640.247 463.689 646.257 467.089 648.897C468.389 649.897 469.689 650.917 471.019 651.917C478.639 657.667 499.569 668.467 502.959 668.867C533.059 672.437 553.299 650.337 566.269 624.267C581.499 593.667 577.539 556.377 560.759 527.237C547.299 503.857 520.789 480.817 531.329 451.227C535.089 440.657 542.779 431.647 550.249 423.507C558.769 414.237 567.929 405.557 576.099 395.957C584.219 386.427 591.419 376.057 595.439 364.097C601.309 346.617 598.389 327.717 593.979 310.267C584.529 272.807 572.259 235.847 559.189 199.517Z" transform="translate(-84.99982 31.84301)" fill="#000000" stroke="none"></path></g></g><g transform="translate(159 186)"><g><path d="M175.373 49.5872C175.699 49.4437 175.991 49.2049 176.203 48.8583C178.978 44.3099 179.267 38.8813 178.039 33.5637C176.563 27.172 172.899 20.9588 168.944 16.7559C163.959 11.4582 157.895 7.75374 151.246 4.94731C150.762 4.74287 150.267 4.53098 149.763 4.31514C142.964 1.40541 134.597 -2.01031 127.865 1.47064C125.161 2.86951 123.673 5.20381 123.256 7.7496C122.814 10.4534 123.597 13.4099 125.462 15.7216C128.557 19.5594 133.339 20.3533 138.087 21.0465C139.602 21.2677 141.106 21.486 142.53 21.8229C147.429 22.9821 152.604 24.4361 157.104 26.7244C166.253 31.3762 170.54 38.5898 172.747 48.2853C172.837 48.6781 173.037 48.9988 173.3 49.2406C173.575 49.4928 173.921 49.6579 174.285 49.7192C174.651 49.7808 175.032 49.7375 175.373 49.5872ZM58.3942 19.1934C55.0693 22.4329 51.1339 22.9347 47.1526 23.381C44.9405 23.6313 43.1746 23.8331 41.4369 24.2252C36.6605 25.3034 31.9393 26.9272 27.6319 29.2659C23.1292 31.7106 18.2224 34.659 14.6922 38.4361C13.8528 39.3349 13.0615 40.278 12.2691 41.2232C11.5465 42.0851 10.8505 42.9149 10.1169 43.7149C9.27449 44.6339 8.47449 45.597 7.67875 46.5576C7.1867 47.3681 7.0895 47.5675 6.99041 47.775C6.8413 48.0869 6.66786 48.4359 6.46976 48.8103C6.19845 49.323 5.88066 49.8843 5.54784 50.3932C4.9941 51.3234 4.69697 51.5796 4.44022 51.6942C4.01419 51.8839 3.61015 51.9774 3.21817 51.9268C2.85064 51.8793 2.50438 51.7028 2.16244 51.4138C0.455387 49.9715 -0.0480658 47.6046 0.00353523 45.092C0.0818393 41.2793 1.48813 37.0578 2.78452 34.4628C5.79888 28.4331 9.97938 22.1649 15.0062 17.6646C20.7422 12.5276 27.0177 8.63869 34.2256 5.95894C38.705 4.29304 43.8913 2.76391 48.7713 2.95706C52.284 3.09609 55.6373 4.14026 58.4066 6.74782C60.1072 8.34853 60.9235 10.6254 60.9235 12.9006C60.9235 15.2211 60.0757 17.5554 58.3942 19.1934ZM164.634 78.3299C166.478 78.8824 167.779 78.6212 169.441 77.7551C170.719 77.0896 171.589 76.0387 172.088 74.8117C172.599 73.5559 172.706 72.1077 172.454 70.7659C171.405 65.1948 168.042 60.2513 163.503 57.0672C159.091 53.9728 153.589 52.5435 148.048 53.7341C144.003 54.6036 138.007 58.4424 134.85 63.1243C133.504 65.1203 132.671 67.2595 132.581 69.3723C132.495 71.387 133.008 73.4183 135.676 76.096C135.935 76.177 136.208 76.2208 136.477 76.2208C137.138 76.2208 137.821 75.9439 138.274 75.5441C139.469 74.4935 140.311 73.1636 141.178 71.7329C141.641 70.9679 142.102 70.1976 142.69 69.5195C144.449 67.4927 147.002 65.7736 149.683 65.3262C152.167 64.911 154.406 65.6469 156.181 67.0355C158.256 68.6601 159.713 71.1522 160.252 73.8146C160.472 74.8933 161.036 75.8657 161.818 76.6477C162.607 77.4367 163.615 78.0237 164.634 78.3299ZM46.1749 69.1109C43.7479 67.5587 40.8928 67.0259 37.7287 68.4655C35.256 69.5899 30.9192 73.3385 27.9011 78.2662C25.8363 81.6374 24.3721 85.5922 24.6769 89.7117C24.7477 90.6684 24.3942 91.3738 23.8366 91.8954C23.3962 92.3073 22.7601 92.61 22.013 92.7047C21.3786 92.785 20.6686 92.7125 20.0913 92.5324C18.9931 92.1896 18.4119 91.4772 18.1929 90.8957C16.0797 85.2836 16.9901 79.0208 19.3585 73.3707C22.5547 65.7456 28.3592 59.3585 32.1622 57.2993C38.6698 53.7742 46.347 53.612 52.8639 57.2031C58.4114 60.2596 61.8802 65.1942 65.3301 70.2242C66.0635 71.2934 66.7914 72.3548 67.5436 73.3976C69.0513 75.487 69.2013 77.5593 68.6175 79.3363C67.9707 81.3049 66.3215 82.9663 64.2592 83.8357C62.353 84.6393 60.1407 84.7524 58.1831 83.9268C56.5293 83.2293 55.0117 81.8695 54.0513 79.5625C52.434 75.6771 49.7393 71.3904 46.1749 69.1109ZM127.748 115.98C135.872 104.601 124.366 93.898 116.814 89.3079C114.836 87.8879 116.406 83.1842 120.634 83.9112C159.031 90.5082 139.136 156.649 90.112 120.354C84.2754 115.645 91.3434 105.275 97.6342 109.307C97.9532 109.552 98.2876 109.81 98.6364 110.08C105.704 115.544 118.636 125.542 127.748 115.98ZM117.042 185.1C109.675 187.233 101.768 187.424 94.2589 185.221C87.4481 183.222 80.4549 178.823 75.4423 173.003C70.9894 167.832 68.1055 161.549 68.2187 154.842C68.2316 154.076 68.5055 153.436 68.9268 152.94C69.3804 152.406 70.014 152.039 70.6926 151.88C71.3906 151.716 72.1285 151.774 72.7568 152.059C73.3256 152.318 73.8129 152.757 74.1176 153.398C74.8879 154.41 75.6553 155.407 76.4257 156.376C82.6196 164.024 88.618 169.74 97.9319 171.79C102.985 172.903 108.032 172.409 112.663 170.712C117.62 168.895 122.102 165.7 125.613 161.612C127.2 159.765 129.074 159.011 130.905 158.998C132.982 158.983 135.034 159.948 136.579 161.49C138.099 163.006 139.116 165.065 139.209 167.219C139.29 169.11 138.673 171.085 137.032 172.848C131.626 178.652 124.621 182.904 117.042 185.1Z" transform="translate(54.00004 55.05923)" fill="#000000" fill-rule="evenodd" stroke="none"></path></g></g><g transform="translate(123 338)"></g><g transform="translate(47 241)"><g><path d="M379.584 5.44083C374.676 5.04763 361.281 0 337.809 0C322.496 0 301.24 4.68927 287.629 10.9038L286.824 11.2693C280.634 14.0632 274.177 16.647 267.464 17.7921C259.217 19.2079 251.031 17.4015 243.065 15.3129L241.551 14.9193C233.986 12.9714 226.468 11.3294 218.906 10.3325C214.682 9.34741 210.429 8.59431 206.136 8.01192C195.948 6.61618 185.67 6.17537 175.422 7.14937C165.484 8.10329 155.695 9.87959 146.278 13.2334C145.27 13.5949 144.233 13.9784 143.186 14.3751C138.049 15.8612 131.546 18.0813 126.898 21.3959C121.282 22.0084 114.562 21.4783 110.805 25.3522C104.733 26.5034 20.3682 25.8027 20.3682 25.8027C15.1403 26.8329 3.36676 30.0862 0.814798 35.4948C-0.876527 39.0896 0.134265 42.2626 3.20667 44.6434C7.63936 48.0673 18.1384 43.6483 18.1384 43.6483C23.6002 43.6483 92.0277 41.6027 103.436 39.19C104.866 39.0876 106.301 38.9822 107.739 38.8717C107.875 40.9121 108.43 42.9133 109.51 44.7027C111.973 48.8015 115.85 49.8994 120.051 50.6879L122.009 51.0397C131.215 52.6807 133.537 62.5902 136.45 70.2277L136.691 70.8501C140.724 81.1233 158.225 105.158 188.502 107.742C203.415 109.015 219.665 105.634 231.626 96.4252C234.918 93.8948 237.63 90.9728 239.822 87.6993C246.297 81.2037 249.339 72.4577 251.231 63.3001C252.512 57.0936 253.343 50.7485 253.703 44.4225L253.835 41.8901C255.753 40.155 257.831 39.0595 260.031 38.3958C262.045 37.9841 264.054 37.6818 266.087 37.4549C268.166 37.3625 270.307 37.4318 272.479 37.5091C277.025 37.6698 281.436 38.0142 285.242 39.8347L285.134 40.7543C284.406 47.4288 285.031 54.2635 286.368 60.8299C289.191 74.6055 297.887 86.2132 309.597 93.7653C318.004 99.1835 327.831 102.295 337.771 102.666C343.597 104 350.098 103.497 355.584 102.233C366.509 99.7157 385.73 92.8184 388.42 51.9474C389.927 45.2475 389.786 37.785 389.65 30.6239L389.65 30.622C389.59 27.4213 389.53 24.2818 389.619 21.2975C393.743 16.6273 392.592 9.21687 385.526 6.49569C383.605 5.75264 381.773 5.58193 379.732 5.4514L379.584 5.44083ZM359.696 19.3626C360.724 17.6003 363.403 16.6745 365.173 17.9216C369.215 20.7673 372.149 24.9997 372.344 30.0655C372.544 35.2438 364.537 35.2177 364.338 30.0655L364.321 29.8193C364.135 27.8505 362.654 25.9291 361.133 24.8571L360.964 24.7332C359.306 23.4637 358.565 21.3031 359.696 19.3626ZM218.087 22.7224C213.065 21.6178 210.92 29.3606 215.958 30.4682C219.526 31.2525 222.549 33.0515 224.592 36.0993L224.807 36.4307C227.548 40.7926 234.48 36.7661 231.72 32.376C228.614 27.4357 223.788 23.9755 218.087 22.7224Z" transform="translate(-1.98952E-12 15)" fill="#000000" fill-rule="evenodd" stroke="none"></path></g></g></g></g></svg>