<?xml version="1.0" standalone="no"?>
<svg viewBox="-1300 -200 3350 3350" style="width: 585px; height: 585px; justify-content: center; align-self: center; transform: scale(1, 1);" xmlns="http://www.w3.org/2000/svg"><g transform="rotate(0 336.5957336425781 1494.5354080200195)"><g transform="translate(-300 499)"><path d="M1046.53 2404.69C1052.57 2380.29 1043.69 2360.82 1018.19 2346.45C1015.99 2340.64 966.704 2321.82 927.539 2294.18C892.354 2269.35 866.832 2235.27 865.762 2233.38C865.762 2233.38 857.85 2214.97 856.948 2206.67C852.623 2166.82 855.125 2140.71 852.454 2128.31C870.45 2125.95 914.692 957.168 907.537 918.432C919.256 915.856 931.684 913.139 942.856 906.531C943.747 906.302 942.282 903.712 942.324 903.225C970.352 848.197 927.356 661.084 900.408 609.279C921.808 608.722 949.995 605.811 963.244 587.941C969.516 585.877 973.47 582.281 976.514 576.503C980.019 570.998 983.272 565.223 986.201 559.303C1000.46 529.681 1009.25 496.79 1004.5 464.153C1005.41 463.866 1010.07 463.836 1010.31 462.53C1010.76 454.507 1009.29 447.437 1006.88 439.859C982.396 354.504 952.922 270.47 913.962 190.113C894.439 147.103 854.047 131.408 812.195 115.262C792.061 107.351 771.918 98.2196 750.905 93.0381C750.64 91.5678 751.895 87.0947 749.141 87.4593C745.74 88.1688 746.411 93.6378 745.15 96.7068C696.561 56.9285 727.374 36.4306 698.076 14.6453C667.76 -1.09191 630.788 -1.7312 597.363 1.67473C585.032 2.03143 575.165 7.5904 572.257 20.0037C561.657 45.688 536.82 64.5921 509.724 70.3872C507.485 66.4013 501.329 54.9701 497.881 58.5786C458.748 59.9145 399.415 74.2813 362.787 85.0296C326.017 94.4214 288.819 111.567 279.199 151.523C261.744 222.722 289.514 515.332 335.064 571.684L336.545 571.708C344.62 579.973 355.596 586.031 368.034 590.091C367.755 616.435 359.452 642.156 355.32 667.92C346.017 714.646 338.867 761.422 328.504 808.396C328.458 813.63 308.741 885.249 328.18 870.888C332.192 872.862 337.107 875.011 341.428 876.855C320.776 923.925 311.326 999.872 312.79 1058.02C313.156 1092.65 311.724 1122.98 303.957 1158.44C246.494 1458.9 195.83 2130.94 194.639 2139.92C193.544 2148.51 200.815 2195.12 194.639 2207.42C189.158 2218.33 165.778 2211.89 161.305 2216.1C149.69 2235.02 155.008 2247.07 145.481 2265.96C140.595 2270.33 129.671 2279.89 126.087 2286.61C118.832 2293.6 -1.32305 2372.45 3.54695 2384.42C3.54695 2384.42 2.99895 2390.16 2.81495 2391.41C-7.42905 2451.02 9.62895 2450.52 64.8189 2459.29C145.441 2473.51 205.695 2446.15 273.831 2409.59C296.473 2394.32 328.655 2365.16 318.18 2330.63C317.891 2328.52 311.678 2292.2 309.214 2273.76C309.214 2273.76 315.891 2258.99 290.047 2260.83C294.297 2256.17 303.634 2195.73 300.449 2187.73C298.426 2167.14 301.567 2148.44 300.573 2127.25C311.399 2128.05 501.466 1226.89 620.684 1170.89C621.421 1176.88 619.991 1188.02 627.935 1189.14C664.81 1476.84 753.47 2121.37 757.541 2122.49C751.431 2155.35 751.616 2231.51 751.502 2264.13C750.567 2265 746.275 2268.83 745.584 2269.77C745.44 2269.52 742.645 2272.31 742.502 2272.39L742.124 2271.52C729.566 2299.84 711.263 2329.01 727.44 2356.76C715.434 2355.89 717.361 2378.99 716.824 2389.63C723.662 2410.43 918.064 2466.57 961.506 2469.24C975.779 2471.73 1042.25 2450.58 1055.04 2447.55C1071.62 2444.45 1055.36 2413.64 1046.53 2404.69Z" transform="translate(110.0003 -47.01312)" fill="#FFFFFF" stroke="none"></path><path d="M586.346 0.00356152C592.638 -0.1921 593.84 7.72578 589.539 11.0087L589.362 11.1393C585.695 13.7403 583.975 16.0663 581.985 20.2163C572.282 45.8973 544.92 60.6263 518.159 55.1723C527.454 72.5123 533.696 89.2943 543.001 106.341C585.845 194.602 726.549 223.315 743.377 102.215C717.595 97.2333 702.316 39.2533 718.859 21.9553L719.306 24.0606C724.074 46.7702 727.336 70.0199 744.551 87.1433C745.075 87.2963 745.576 87.3433 746.07 87.3433C746.726 84.2343 747.482 81.1593 748.423 78.1433C750.714 70.7843 762.181 72.1683 761.859 80.1293C796.192 90.5913 829.186 105.41 862.025 119.726C889.327 131.636 911.65 152.94 924.367 179.918C960.025 253.713 987.251 331.611 1010.99 409.975C1011.39 412.651 1012.82 417.162 1014.51 422.473C1019.5 438.182 1026.71 460.879 1016.01 463.707C1019.52 496.129 1010.54 528.924 996.657 558.039C990.216 568.978 985.671 584.144 972.733 588.706C959.3 605.579 934.737 609.957 914.286 611.149C941.791 675.899 979.161 840.831 953.89 905.172C955.752 913.938 935.985 918.881 924.765 921.687C922.475 922.26 920.541 922.743 919.219 923.152C925.5 960.682 924.13 999.342 921.422 1037.14C896.061 1359.55 891.248 1683.74 917.93 2006.23C919.5 2026.33 921.191 2046.43 922.98 2066.52L924.063 2078.57C925.482 2094.61 926.688 2110.58 926.32 2126.75C926.201 2132.36 921.549 2135.73 916.899 2136.02C901.283 2145.99 880.307 2146.07 862.24 2148.47C865.431 2165.89 867.219 2193.07 872.804 2207.72C884.43 2204.68 891.923 2215.52 880.336 2221.64C894.599 2229.56 901.937 2244.71 913.355 2255.35C944.718 2242.61 950.558 2261.64 924.929 2265.98C931.897 2271.8 939.294 2277.17 946.941 2282.27L947.484 2282.2C949.508 2281.89 951.934 2281.28 954.528 2280.62C963.52 2278.35 974.53 2275.57 977.852 2283.25C979.773 2290.42 970.924 2292.7 964.514 2293.57C970.202 2297.16 975.909 2300.72 981.617 2304.28C986.612 2302.09 991.566 2299.34 996.659 2297.58C1009.2 2294.79 1010.28 2311.06 993.917 2311.98C1004.17 2319.55 1018.31 2315.19 1024.87 2325.87C1048.84 2335.55 1060.17 2364.78 1054.57 2388.15C1062.99 2395.63 1068.9 2406.85 1069.58 2418.13C1071.2 2430.2 1061.59 2441.57 1048.57 2444.75C1033.9 2449.63 1019.02 2454.09 1004.18 2458.28L1002.63 2458.81C990.399 2462.98 977.044 2466.71 964.325 2465.98C888.895 2461.48 788.309 2430.5 727.935 2391.94C712.877 2380.62 710.244 2352.63 730.968 2343.68C722.497 2328.32 725.129 2316.69 728.657 2301.1C729.107 2299.11 729.571 2297.06 730.029 2294.93C732.84 2282.63 736.657 2270.01 743.566 2258.63C744.179 2257.62 745.653 2257.92 745.735 2258.92C746.55 2270.52 745.654 2282.37 744.767 2294.09C744.67 2295.36 744.574 2296.64 744.48 2297.91L744.375 2299.34C744.165 2302.26 743.892 2304.72 743.646 2306.95C742.88 2313.85 742.37 2318.45 744.822 2327C752.581 2355.87 827.38 2370.28 856.775 2382.19C879.85 2389.34 903.277 2395.74 927.033 2401.37L928.775 2401.74C932.214 2402.5 935.671 2403.32 939.144 2404.15C955.925 2408.15 973.1 2412.24 990.6 2409.37C1001.55 2401.4 1017.99 2403.64 1028.76 2394.52C1044.99 2376.99 1032.23 2351.29 1020.85 2335.36C1012.06 2338.17 1004.28 2332.69 997.381 2327.83C995.65 2326.61 993.974 2325.43 992.35 2324.43L992.051 2324.25C983.781 2319.02 975.534 2322.68 967.252 2317.46L965.381 2317.82C959.467 2318.95 953.814 2320.1 948.898 2321.11C928.521 2325.28 920.829 2326.86 959.925 2312.88C951.932 2307.88 943.919 2302.84 936.155 2297.54C920.218 2299.47 902.757 2307.84 887.945 2308.6C897.913 2299.31 911.512 2294.16 924.326 2289.06C916.866 2283.39 909.767 2277.33 903.417 2270.66L897.351 2272.17C860.085 2281.43 845.436 2284.1 895.606 2261.53C885.739 2250.58 884.136 2234.35 873.288 2224.05C855.841 2227.7 839.812 2235.38 825.603 2245.28C819.857 2249.4 815.529 2254.54 810.978 2259.69C789.413 2287.43 756.005 2291.71 745.799 2255.72C745.622 2254.99 746.779 2254.53 747.105 2255.15L747.143 2255.24C752.024 2266.29 767.774 2275.25 780.93 2268.38L781.328 2268.17C794.193 2261.47 800.169 2247.79 810.303 2238.47C823.979 2226.12 841.121 2217.84 858.808 2211.63C854.52 2195.96 853.073 2167.43 853.56 2149.05C823.779 2150.46 793.805 2149.02 764.55 2143.36C767.348 2163.76 767.377 2187.84 767.405 2210.41C767.424 2225.65 767.441 2240.2 768.31 2252.48C771.424 2262.71 752.48 2269.1 750.466 2258.91C749.353 2225.94 752.578 2178.38 757.6 2141.58L755.498 2141.07C753.515 2140.58 751.431 2139.98 749.73 2139.02C736.051 2140.57 735.057 2115.67 734.306 2096.84C734.026 2089.83 733.78 2083.67 732.925 2080.02C711.744 1784.14 667.127 1490.91 629.21 1196.98C623.952 1194.97 623.019 1188.52 622.15 1183.12C574.37 1215.47 564.848 1280.1 543.46 1330.2C450.053 1589.62 408.319 1863.31 343.581 2130.45L343.937 2130.55C344.191 2130.62 344.193 2130.66 343.662 2130.62L343.54 2130.61L343.54 2130.63C347.54 2131.16 350.691 2135.36 348.25 2139.27C342.122 2151.64 326.866 2149.93 314.259 2148.52C311.871 2148.25 309.578 2147.99 307.46 2147.84C308.014 2157.56 307.437 2172.11 306.84 2187.16C306.047 2207.16 305.219 2228.04 306.974 2239.56C323.379 2239.86 324.422 2257.92 326.594 2268.65L326.762 2269.76C327.39 2273.73 328.339 2278.45 329.367 2283.57C333.084 2302.07 337.827 2325.69 332.126 2337.3C343.377 2350.69 335.284 2368.88 323.612 2378.02C311.113 2387.26 295.555 2392.67 281.426 2399.79C265.154 2406.36 249.013 2414.43 232.717 2422.57C182.416 2447.71 130.652 2473.57 69.1016 2458.52L65.5538 2457.77C8.44025 2445.7 -7.96895 2440.34 3.37357 2383.81C-1.28443 2372.32 -1.31543 2359.74 5.23857 2349.58C16.9266 2334.58 36.5646 2326.37 52.1906 2314.98C78.6576 2297.2 106.827 2281.64 132.678 2263.13C131.717 2262.3 133.051 2261.99 133.835 2262.13C152.079 2247.85 150.372 2223.12 163.1 2205.48C166.283 2196.38 182.356 2194.17 192.941 2195.43C189.634 2178.48 205.789 2101.35 207.841 2155.83L207.84 2156.61C207.848 2158.33 207.912 2160.87 207.987 2163.86C208.281 2175.54 208.752 2194.23 206.781 2198.6C241.915 2209.34 249.491 2243.09 257.01 2270.35L257.494 2270.48C259.894 2271.1 263.108 2271.6 264.309 2273.96C275.607 2266.78 278.764 2252.64 289.706 2245.03C286.637 2242.63 286.475 2238.05 288.041 2234.5C293.137 2215.82 296.192 2168.26 303.89 2147.39C267.721 2141.97 230.874 2139.22 195.55 2129.38C190.96 2133.89 181.54 2132.29 181.91 2124.15C192.85 1946.79 211.666 1769.98 235.385 1593.89C254.887 1429.07 289.195 1266.34 313.092 1102.38L313.294 1079.88C313.939 1012.23 315.746 943.571 340.97 879.882C338.75 878.912 336.55 877.912 334.38 876.862C312.702 885.848 321.742 844.437 326.925 820.689C328.282 814.474 329.375 809.469 329.584 806.893C343.025 734.909 358.858 662.939 368.953 590.506C358.371 586.678 348.6 581.248 340.449 573.357C291.031 533.129 262.383 207.337 280.344 141.83C289.719 100.624 329.448 80.3813 367.313 71.0673L372.905 69.4868C415.195 57.5903 458.218 46.8104 502.248 44.1613C503.816 42.7393 508.427 43.1483 509.031 44.3343C511.789 45.9953 514.407 49.2383 516.621 52.6643C577.735 45.6403 561.205 5.69126 586.346 0.00356152ZM358.726 86.1022C406.512 70.2903 455.92 60.1163 504.145 45.8693C509.463 46.007 512.778 58.6629 513.969 62.8428L514.119 63.3583C526.841 110.259 552.99 155.128 596.576 179.227C638.473 205.337 700.289 204.206 733.029 164.004C750.748 141.73 757.516 113.031 761.435 85.3469L761.682 83.5813C800.296 107.715 845.726 119.745 882.459 146.868C904.346 164.601 915.335 191.167 926.154 216.484L927.881 220.511C959.792 293.613 983.144 369.986 1004.25 446.734L1005.89 452.715C1004.07 474.092 1001.99 495.699 995.748 516.327C990.367 538.834 976.606 557.758 966.162 577.712C937.208 597.51 912.632 599.036 878.407 594.737C870.102 594.253 861.664 593.588 853.152 592.918C815.688 589.967 776.789 586.903 741.509 598.601C731.599 575.365 721.539 552.55 711.338 529.588L705.202 515.789C691.542 486.244 676.462 455.852 676.437 422.552C675.237 396.976 678.288 387.862 705.206 398.623C714.063 401.725 722.926 405.035 731.815 408.355C772.386 423.506 813.531 438.872 857.456 435.707C883.991 436.562 902.335 413.782 862.496 418.922C855.924 367.968 852.014 316.45 857.399 265.018C848.983 285.448 848.142 316.174 846.98 341.001L846.844 343.838C846.908 347.443 846.946 351.072 846.985 354.715C847.218 376.539 847.457 398.882 853.185 419.793C817.505 422.34 783.066 413.749 748.699 405.175C728.663 400.176 708.651 395.184 688.434 392.409C687.52 389.049 678.161 392.08 677.337 393.778C674.697 395.955 672.709 399.182 671.23 402.628C669.849 397.551 661.658 397.693 657.546 395.371C645.506 390.364 633.213 386.005 621.109 381.15C572.789 361.5 518.429 360.746 469.466 379.263C469.439 378.378 468.552 378.161 467.911 378.534C454.082 324.483 444.707 263.099 426.613 213.087C433.176 269.554 444.45 325.371 453.939 381.392C458.119 400.169 459.243 419.949 465.305 438.167C468.962 445.318 478.768 441.411 479.514 434.578C510.644 440.86 540.848 451.013 570.715 461.494L583.2 465.89C593.554 476.988 605.628 486.341 618.447 494.522C609.492 515.259 606.954 538.16 601.062 559.825C598.477 570.835 596.449 582.022 593.65 592.973L593.603 593.158C593.098 595.206 592.273 599.492 590.124 600.159C589.182 600.368 588.442 599.66 587.763 599.011C587.489 598.748 587.224 598.495 586.961 598.316L586.792 598.193C585.931 597.624 584.798 597.739 584.242 596.822C579.226 591.632 570.805 591.497 563.358 591.379C561.477 591.349 559.658 591.32 557.972 591.21L529.154 589.341C492.399 586.934 455.614 585.011 418.827 583.139C393.618 581.899 367.456 578.848 344.414 568.135C328.63 526.926 321.138 482.934 312.78 439.699L311.994 435.648C296.93 345.938 286.95 254.445 290.227 163.412C291.901 120.916 319.012 95.9983 358.726 86.1022ZM330.08 246.994C330.17 241.916 343.076 252.977 349.055 258.102C350.352 259.213 351.323 260.045 351.767 260.373L353.273 261.736C371.588 278.357 389.681 296.642 399.886 319.449C400.426 335.694 383.03 311.645 371.648 295.912C367.325 289.936 363.871 285.16 362.596 284.247C352.491 271.241 340.181 259.946 330.08 246.994ZM872.654 285.218C867.158 283.94 853.064 301.454 858.228 299.754C861.704 294.226 867.47 292.137 873.11 289.691L874.316 289.159C876.744 288.069 874.841 284.899 872.654 285.218ZM468.41 380.764C501.081 375.554 534.909 371.685 567.95 378.153C585.129 381.098 601.769 386.213 617.925 392.697C621.736 393.966 625.937 395.767 630.341 397.654C643.525 403.303 658.522 409.729 670.298 405.003C658.615 442.022 672.781 480.139 687.942 514.011L688.872 516.079C671.255 509.794 654.179 502.057 637.777 493.055C621.469 484.104 605.949 473.805 589.566 465.044C602.092 449.266 491.105 429.611 479.405 430.147C476.015 413.622 471.96 397.267 468.41 380.764ZM622.511 497.059C622.484 511.802 619.575 526.334 617.607 540.887C640.266 536.415 662.858 533.296 685.144 527.251C663.435 519.049 642.339 509.168 622.511 497.059ZM698.732 539.434L696.18 540.079C670.203 546.58 643.028 551.282 616.332 549.536C611.717 566.997 614.123 608.53 595.352 615.167C588.939 617.583 579.289 615.622 576.349 609.074C537.522 608.384 498.423 604.914 459.594 602.605C430.365 600.306 400.039 600.394 371.902 591.524C375.311 608.691 376.485 625.545 374.577 643.102C368.013 717.984 346.406 790.941 339.164 865.501L338.831 869.052L338.621 868.932C338.621 869.072 338.611 869.212 338.6 869.352C340.71 869.962 342.82 870.602 344.92 871.252C345.67 870.872 346.691 871.242 347.23 871.962C501.866 920.061 666.003 940.951 827.17 919.782C855.395 916.259 883.416 911.323 911.24 905.472C910.996 902.983 914.793 902.331 915.459 904.682C921.635 903.605 927.808 902.426 933.95 901.632C933.209 899.542 933.079 897.282 933.84 895.242C944.957 861.883 941.041 824.186 937.4 789.137C937.119 786.425 936.839 783.73 936.568 781.053C931.75 723.827 919.74 667.694 910.04 611.24C892.105 610.425 874.212 608.785 856.315 607.145C828.385 604.585 800.445 602.024 772.32 602.596C767.46 615.196 750.514 625.779 737.246 618.575C727.879 613.515 725.104 602.485 721.344 593.37C713.911 575.349 706.322 557.391 698.732 539.434ZM165.01 2205.47C187.427 2197.85 217.569 2209.2 228.77 2229.86C234.28 2239.55 236.938 2250.23 239.154 2260.65L239.701 2263.24C240.88 2268.9 241.5 2275.25 246.441 2279.76C250.981 2283.91 261.043 2286.34 264.31 2281.12C276.701 2282.24 283.329 2274.89 289.986 2267.51C294.544 2262.46 299.116 2257.39 305.562 2255.02C305.754 2258.62 307.47 2262.83 308.188 2266.34C308.54 2268.35 308.899 2270.37 309.26 2272.39C312.502 2290.61 315.831 2309.31 315.117 2327.25C311.195 2331.56 303.619 2332.5 298.172 2335.12C292.201 2326.48 245.132 2346.42 210.312 2361.18C194.605 2367.84 181.391 2373.44 175.57 2374.88C166.295 2378.17 157.146 2382.06 147.955 2385.98C123.595 2396.35 98.9404 2406.84 70.8806 2406.55C45.4346 2406.93 7.77857 2383.67 22.8486 2359.33C27.6206 2353.03 36.4406 2348.89 43.2696 2344.54C54.6189 2337.35 65.8563 2330 77.0689 2322.63L86.6756 2316.32C104.904 2322.75 124.037 2328.42 143.182 2330.17C153.791 2331.01 153.794 2316.51 143.183 2315.53C126.794 2314.13 110.325 2313.92 93.9276 2311.54C102.265 2306.07 110.543 2300.54 118.86 2295.04C135.875 2298.18 152.559 2303.11 169.287 2307.47C175.551 2308.14 176.872 2299.8 170.75 2297.98C156.738 2295.11 142.42 2293.66 128.238 2292.07L124.191 2291.61C133.95 2285.36 144.013 2278.89 151.509 2270.64C165.73 2275.49 180.11 2279.81 194.514 2284.05L196.501 2284.63C201.63 2286.11 209.337 2287.91 210.263 2282.03C211.099 2276.72 204.725 2274.84 199.717 2273.74L189.511 2271.59C178.358 2269.24 167.189 2266.98 155.984 2265.02C164.764 2253.01 164.607 2238.59 164.45 2224.23C164.381 2217.89 164.311 2211.57 165.01 2205.47ZM754.428 2388.67C735.367 2380.5 723.998 2365.72 732.554 2346.29C760.726 2380.87 864.089 2403.7 911.865 2418.22C917.994 2419.49 924.301 2421.12 930.718 2422.78C955.096 2429.09 981.046 2435.8 1004.75 2424.55C1023.63 2421.07 1045.17 2411.61 1052.36 2394.41C1052.79 2400.55 1052.35 2406.68 1051.82 2412.83L1051.52 2416.29C1052.22 2424.84 1048.36 2426.35 1040.12 2427.87L1039.11 2428.05C1015.72 2433.76 992.86 2442.98 969.777 2448.57C894.126 2443.87 820.435 2419.27 754.428 2388.67ZM317.872 2346.69L316.883 2346.99C316.153 2347.22 315.422 2347.45 314.688 2347.68C306.822 2350.16 298.783 2352.69 289.999 2350.5C247.099 2365.05 205.342 2381.54 163.899 2398.72C119.183 2420.12 47.1806 2445.01 8.43057 2393.28C9.54193 2398.69 10.1181 2403.39 10.6222 2407.51C12.645 2424.02 13.5061 2431.04 43.1226 2436.46C101.827 2455.61 148.996 2445.81 197.708 2419.65C233.397 2402.3 271.783 2388.5 306.328 2369.64L306.794 2369.31C313.589 2364.46 321.788 2355.61 317.872 2346.69Z" transform="translate(100.9996 -32.00129)" fill="#000000" fill-rule="evenodd" stroke="none"></path></g><g transform="translate(225 0)"><g><g><path d="M451.63 368.844C447.666 362.982 438.121 320.442 432.024 313.899C432.484 288.769 439.431 201.762 419.588 162.65C423.762 158.429 434.854 122.074 432.024 108.331C441.372 79.549 381.319 33.8356 358.464 21.4828C252.243 -35.4759 98.3207 27.3968 50.0137 132.912C20.9847 196.457 20.4497 267.603 17.1677 335.978C16.7797 350.614 15.4347 365.364 15.4497 379.982C17.5487 392.827 27.7336 405.908 20.0126 416.589C11.4836 422.488 -5.75429 436.86 1.92071 445.01C6.41871 448.755 13.6037 446.582 18.4847 450.183C20.9697 451.573 22.5197 454.62 25.4257 455.083C51.9717 454.075 70.7042 453.989 97.3322 452.913C108.989 452.531 126.739 457.462 140.12 447.646C186.858 473.642 167.308 435.927 176.759 409.075C205.539 418.806 262.869 449.837 293.546 450.839C318.475 453.92 341.786 439.402 366.294 442.707C396.741 454.018 432.423 456.533 460.312 437.395C467.272 432.383 475.015 438.189 483.787 432.776C500.836 424.623 460.234 377.889 451.63 368.844Z" transform="translate(-20.01256 56)" fill="#FFFFFF" stroke="none"></path><path d="M277.777 0.620342C318.933 -1.94866 362.887 3.10934 399.855 22.4283C420.158 33.0373 435.851 49.0723 447.064 69.0273C453.759 80.9433 458.838 94.1383 460.762 107.704C462.738 121.643 460.418 134.072 451.518 145.152C447.983 149.552 442.029 144.637 442.9 140.135C448.228 112.591 439.586 85.3773 424.259 62.5743C402.018 29.4843 363.177 14.7853 325.36 8.22834C306.78 5.00834 287.935 3.66234 269.085 4.31734C254.714 4.81734 239.972 6.15634 226.334 10.9913C225.759 11.1953 225.53 10.2993 226.084 10.0883C242.352 3.87534 260.512 1.69834 277.777 0.620342ZM169.771 28.2817C171.042 27.6357 171.937 29.3167 170.859 30.1437C148.482 47.3047 128.442 69.0647 112.222 92.0957C82.3093 134.573 63.1253 183.727 54.2913 234.803C49.0753 264.966 47.7133 295.586 48.2343 326.151C48.4407 338.292 49.1341 350.397 49.9055 362.505L50.7763 375.927C51.1807 382.18 51.5185 388.38 51.2574 394.664L51.1863 396.116C51.059 398.363 51.0388 400.615 51.0186 402.865C50.9731 407.936 50.9277 412.991 49.6573 417.932C48.7163 421.59 43.5573 422.166 41.6893 418.973C41.3233 418.348 40.9813 417.703 40.6493 417.052C36.2713 424.192 30.6013 430.575 24.3103 436.277C27.3173 435.637 30.3533 435.229 33.4703 435.602C38.4113 436.194 42.8433 438.102 45.9793 441.446C49.0923 440.043 52.2933 439.077 55.9743 439.057C58.6853 439.043 60.7183 442.248 59.1713 444.629C56.0853 449.381 51.7793 452.045 46.8863 454.678C43.4186 456.544 39.2801 454.948 37.9996 451.258L37.9263 451.034C36.4853 446.366 28.8213 447.12 25.2053 447.842L24.1411 448.059C23.4462 448.204 22.753 448.352 22.0609 448.501C16.05 449.791 10.1294 451.062 3.98026 449.404C-0.442735 448.211 -1.59874 441.553 2.66526 439.343C16.1353 432.363 27.4433 422.987 39.0643 413.573C36.4983 407.282 35.0413 400.253 33.3613 393.856C30.9963 384.852 30.3053 375.164 29.4513 365.915C27.8283 348.33 27.2093 330.554 27.3833 312.9C27.9723 253.272 38.1703 193.459 64.2193 139.464C75.6313 115.811 90.6233 93.9237 108.344 74.5507C125.96 55.2917 146.535 40.0837 169.771 28.2817ZM344.254 65.1172C343.526 62.9382 340.934 61.5602 338.815 62.9032C332.47 66.9252 329.348 76.2452 326.028 82.6912C322.318 89.8942 318.433 96.9062 313.775 103.553C304.295 117.08 293.344 129.138 281.266 140.385C280.389 141.201 281.503 142.355 282.459 141.93C298.069 135 312.294 123.974 323.117 110.76C328.527 104.153 333.766 97.1192 337.84 89.5962C341.44 82.9482 346.822 72.7992 344.254 65.1172ZM377.805 70.9136C378.238 66.0106 371.178 65.7056 369.703 69.8166C367.532 75.8686 366.593 82.3166 364.593 88.4566C362.431 95.0936 359.693 101.519 356.429 107.689C350.034 119.781 341.956 130.622 331.995 140.007C331.59 140.389 332.177 140.931 332.592 140.604C343.682 131.865 353.605 121.46 361.379 109.649C368.705 98.5166 376.615 84.3916 377.805 70.9136ZM408.032 71.9527C409.386 67.2247 417.098 68.0297 416.779 73.1367C415.954 86.3297 409.73 99.5727 402.967 110.754C396.003 122.267 387.184 132.527 377.075 141.388C376.577 141.825 375.895 141.152 376.346 140.659C385.068 131.111 392.113 120.235 397.33 108.399C402.541 96.5797 404.508 84.2477 408.032 71.9527ZM295.882 81.7093C297.258 76.6253 290.915 73.0823 287.186 76.6463C281.149 82.4185 276.22 89.1576 271.421 95.9679L268.3 100.41C262.336 108.881 255.814 116.887 248.914 124.609C242.151 132.178 235.14 139.476 227.893 146.584C223.077 151.308 217.802 155.683 212.8 160.285C213.587 149.693 213.511 139.039 212.575 128.488C212.497 127.601 211.164 127.568 211.169 128.488C211.232 140.355 210.151 152.127 208.033 163.703C206.11 164.562 205.015 166.578 204.865 168.816C204.802 169.741 205.801 170.53 206.687 170.347C203.997 182.654 200.15 194.72 195.24 206.419C190.181 218.472 183.843 230.015 176.461 240.801C169.017 251.673 158.695 261.219 152.684 272.958C152.193 273.918 152.188 274.886 152.5 275.709C150.582 274.756 148.578 273.904 146.633 273.001L145.658 272.553C140.431 270.182 134.814 268.145 129.007 268.627C121.059 269.287 111.9 274.143 111.891 283.084C111.891 283.662 112.752 283.951 113.026 283.392C116.601 276.113 125.805 276.696 132.014 279.984C133.07 280.543 134.16 281.271 135.277 282.092C134.888 282.499 134.51 282.923 134.144 283.369C131.501 286.597 128.389 291.978 131.395 295.928C132.312 297.132 134.107 298.083 135.564 297.02C138.63 294.784 138.98 291.34 140.169 287.97C140.351 287.455 140.563 286.944 140.788 286.438C146.105 290.658 151.875 294.614 157.79 292.277C160.587 291.172 163.505 288.015 162.109 284.669C160.835 281.613 158.692 279.486 156.156 277.795C156.492 277.732 156.833 277.624 157.173 277.447C168.509 271.578 176.543 259.613 183.223 248.906L184.267 247.227C191.537 235.504 197.537 222.977 202.252 210.015C207.148 196.554 210.384 182.494 212.038 168.244C218.888 165.137 225.371 160.774 231.49 156.46L234.091 154.618C242.726 148.485 250.942 141.619 258.504 134.199C266.116 126.73 273.218 118.705 279.847 110.354C286.737 101.674 292.956 92.5293 295.882 81.7093ZM442.592 155.722C441.435 153.522 438.444 155.141 438.822 157.312C441.407 172.144 445.798 186.56 448.164 201.455C450.549 216.474 451.112 231.789 450.665 246.976C449.782 276.952 445.502 307.088 436.514 335.731C428.252 362.06 416.748 389.726 397.549 410.063C388.077 420.096 376.733 427.64 363.512 431.756C349.575 436.093 334.746 436.861 320.25 435.937C293.082 434.207 262.2 425.113 244.255 403.318C243.39 402.267 241.981 403.606 242.488 404.681C248.201 416.81 256.203 426.172 267.429 433.566C279.1 441.255 292.365 445.75 306.054 448.212C332.396 452.948 361.812 451.466 385.479 438.224C387.627 440.36 390.171 442.208 392.362 443.705C397.661 447.328 403.389 450.103 409.493 452.086C421.829 456.09 434.737 457.298 446.688 451.607C450.316 449.879 448.297 444.558 444.748 444.444C442.055 444.358 439.342 444.337 436.623 444.317C428.417 444.254 420.15 444.191 412.184 442.32C407.049 441.115 401.858 439.414 397.076 437.183C395.785 436.581 394.465 435.847 393.125 435.082L391.779 434.31C392.885 433.552 393.982 432.777 395.056 431.961C418.721 413.961 432.949 386.466 443.455 359.232L444.093 357.565C448.65 345.589 452.495 333.128 455.481 320.435C455.729 321.914 455.987 323.391 456.258 324.867C458.621 337.689 461.562 350.317 465.715 362.687C469.759 374.735 474.72 386.649 481.288 397.553C486.399 406.04 492.791 416.407 501.751 421.716C500.456 421.791 499.16 421.901 497.829 422.026C496.083 422.19 496.08 424.581 497.829 424.745C500.962 425.039 503.905 425.3 507.045 425.026C507.589 424.978 507.99 424.748 508.253 424.431C512.297 424.984 514.462 420.406 512.998 416.943C508.797 407.005 499.334 399.439 493.371 390.491C487.184 381.209 481.979 371.278 477.699 360.98C473.313 350.427 469.732 339.491 466.331 328.586C464.702 323.361 463.2 318.099 461.614 312.861L460.794 310.133C460.25 308.314 459.711 306.493 459.178 304.671L458.889 303.679C461.264 289.74 462.529 275.65 462.445 261.721C462.335 243.613 460.348 225.701 457.341 207.863C454.364 190.211 450.997 171.703 442.592 155.722ZM94.6408 265.709C103.216 246.42 130.344 229.309 148.535 247.247C148.876 247.582 148.529 248.313 148.034 248.108C136.719 243.419 122.867 249.383 115.036 257.913C108.823 264.679 105.09 273.367 104.349 282.524C103.608 291.689 105.799 301.255 111.886 308.344C115.079 312.063 119.391 315.583 124.465 316.03C127.571 316.303 130.363 315.085 133.159 313.864C134.976 313.072 136.794 312.279 138.701 311.893C142.352 311.155 145.108 313.446 145.466 317.045C146.255 324.988 138.347 330.319 131.492 331.614C124.118 333.006 116.592 331.485 110.238 327.489C89.7158 314.583 85.2888 286.748 94.6408 265.709ZM150.52 318.692C149.574 318.071 148.225 319.338 148.916 320.296C162.22 338.701 173.862 358.643 180.666 380.42C187.529 402.388 188.014 425.016 191.135 447.612C191.834 452.672 198.659 451.302 200.084 447.612C209.037 424.444 203.463 397.231 194.385 375.014C185.214 352.573 171.001 332.145 150.52 318.692ZM97.466 372.694C97.496 372.069 96.485 371.918 96.361 372.545C94.215 383.398 91.634 394.204 88.487 404.811C86.992 409.85 85.392 414.865 83.562 419.793C81.579 425.131 78.168 430.722 77.204 436.28C76.379 441.041 82.747 444.471 85.429 439.748C88.113 435.022 88.886 428.803 90.084 423.513L90.5675 421.361C91.6876 416.338 92.7467 411.301 93.655 406.236C95.647 395.123 96.919 383.972 97.466 372.694ZM133.036 393.652C133.148 393.253 133.8 393.322 133.772 393.752C133.259 401.72 132.911 409.785 131.909 417.709C131.422 421.56 130.778 425.386 130.23 429.228C129.668 433.168 129.753 437.146 127.462 440.511C124.426 444.972 116.36 443.717 116.631 437.578C116.818 433.343 118.764 430.625 120.587 426.908C121.756 424.525 122.775 422.062 123.758 419.587L125.218 415.875C128.12 408.514 130.897 401.277 133.036 393.652ZM164.657 403.855L164.896 403.61C165.828 402.597 167.218 403.272 167.663 404.341C169.087 407.766 168.841 411.671 168.603 415.434C168.537 416.485 168.471 417.524 168.443 418.539L168.419 419.554C168.322 424.265 168.389 428.678 166.253 433.027C163.659 438.308 156.824 435.028 156.295 430.33C155.835 426.251 157.276 422.24 158.673 418.352C159.032 417.354 159.388 416.364 159.708 415.382C160.703 412.33 161.428 409.156 162.941 406.386C161.647 406.609 160.355 407.056 159.172 407.379C158.642 407.522 158.442 406.744 158.948 406.564C160.904 405.872 163.112 405.352 164.657 403.855ZM438.281 418.15C437.47 417.772 436.691 418.703 437.316 419.402C444.907 427.9 456.662 432.929 467.878 433.939C472.564 434.363 472.535 427.047 467.878 426.627C457.131 425.658 448.021 422.699 438.281 418.15Z" transform="translate(-41.99957 58.00006)" fill="#000000" fill-rule="evenodd" stroke="none"></path></g></g><g transform="translate(159 186)"><g><path d="M140.63 0.473197L139.193 0.179116C137.503 -0.15929 135.804 -0.0161244 134.311 0.591153C132.847 1.18684 131.572 2.2242 130.68 3.72083C129.495 5.71373 129.337 7.38618 129.887 9.59525C130.311 11.3022 131.242 12.5864 132.46 13.5139C133.744 14.4911 135.37 15.0612 137.06 15.2595C144.854 16.175 152.53 17.8896 159.992 20.3235C163.488 21.4643 166.788 23.0096 170.058 24.6132L172.877 26.002C175.477 27.2735 178.163 28.499 181.557 29.3885C181.824 29.4584 182.087 29.5243 182.349 29.5865C183.29 29.2909 183.45 28.9329 183.649 28.6733L183.73 28.5721C183.972 28.2679 184.271 27.8025 183.988 25.6306C176.583 10.2711 156.267 3.74181 140.63 0.473197ZM43.5878 4.83023L45.4652 4.50163C51.273 3.49719 58.4944 2.53203 62.6028 7.20123C64.7819 9.67723 65.5318 14.2792 62.6028 16.6492C58.7671 19.7539 54.6298 19.6513 50.2182 19.5419C48.7043 19.5044 47.1582 19.466 45.5808 19.5562C40.4928 19.8482 35.6028 20.6902 30.7018 22.0912C19.9498 25.1642 11.1888 30.7742 2.00585 36.9342C0.800849 37.7422 -0.429151 36.2012 0.145849 35.0742C5.44685 24.6912 15.7198 16.1622 26.0098 10.9632C31.5019 8.18823 37.5118 5.88623 43.5878 4.83023ZM29.9632 50.1461C30.7976 39.7899 46.5702 37.4381 48.1392 47.6861C49.5442 56.8661 47.8902 65.2991 43.7552 73.5641C39.8042 81.4601 29.8737 77.7763 29.1227 70.5863C28.3809 63.4843 28.9069 59.2482 29.4428 54.933C29.6341 53.3921 29.8267 51.8412 29.9632 50.1461ZM159.205 41.8262C155.401 40.7152 152.226 42.6812 150.027 45.5612C149.773 45.8932 149.566 46.2222 149.38 46.5482C142.515 52.8562 145.101 65.6452 150.501 72.0492C153.814 75.9762 161.145 74.8452 163.413 70.3852C167.587 62.1722 171.09 45.2992 159.205 41.8262ZM128.748 119.039C136.872 107.66 125.366 96.9569 117.814 92.3669C115.836 90.9469 117.406 86.2431 121.634 86.9701C160.031 93.5671 140.136 159.708 91.112 123.413C85.2754 118.704 92.3434 108.334 98.6342 112.366C98.9532 112.611 99.2876 112.869 99.6364 113.139C106.704 118.603 119.636 128.601 128.748 119.039ZM93.5865 188.926C86.8642 186.184 80.8663 181.61 76.4812 175.766C74.9566 173.735 74.5614 171.589 74.8812 169.627C75.2408 167.421 76.546 165.422 78.326 164.08C80.1115 162.735 82.345 162.072 84.5043 162.41C86.3806 162.704 88.2484 163.731 89.7265 165.862L90.0354 166.288C92.6424 169.815 96.0396 172.708 99.9104 174.574C103.641 176.372 107.814 177.211 112.132 176.723C120.356 175.794 126.024 171.346 132.049 165.306C132.796 164.544 133.543 163.757 134.294 162.958C134.768 162.234 135.426 161.768 136.157 161.524C136.968 161.253 137.886 161.268 138.726 161.562C139.537 161.845 140.262 162.381 140.747 163.094C141.209 163.772 141.471 164.61 141.386 165.574C140.835 171.833 137.562 177.419 132.914 181.805C127.752 186.677 120.909 190.047 114.466 191.229C107.368 192.531 100.136 191.598 93.5865 188.926Z" transform="translate(53.00005 52.00027)" fill="#000000" fill-rule="evenodd" stroke="none"></path></g></g><g transform="translate(123 338)"></g><g transform="translate(47 241)"></g></g></g></svg>