<svg width="503" height="503" viewBox="0 0 503 503" fill="none" xmlns="http://www.w3.org/2000/svg">
<g clip-path="url(#clip0_327_76)">
<path d="M20.3344 10.7025L63.1422 0C63.1422 0 225.814 48.1596 232.236 51.3702C241.868 56.721 251.499 69.5635 251.499 89.8979C251.499 110.232 233.306 153.04 233.306 153.04L78.1249 88.8274L20.3344 10.7025Z" fill="#F6F7F8"/>
<path d="M482.667 10.7025L439.858 0C439.858 0 277.186 48.1596 270.764 51.3702C261.132 56.721 251.5 69.5635 251.5 89.8979C251.5 110.232 269.694 153.04 269.694 153.04L424.875 88.8274L482.667 10.7025Z" fill="#F6F7F8"/>
<path d="M280.396 490.157C263.273 507.281 238.658 507.281 221.534 490.157C221.534 352.1 221.534 215.113 221.534 77.0554C238.658 94.1791 263.273 94.1791 280.396 77.0554C280.396 215.113 280.396 352.1 280.396 490.157Z" fill="#FA4298"/>
<path d="M0 4.28119V417.383L186.217 478.385V65.2834L0 4.28119Z" fill="#FC64AB"/>
<path d="M222.605 77.0554L186.217 65.2834V478.385L222.605 490.157V77.0554Z" fill="#F781B8"/>
<path d="M280.396 77.0554V490.157L316.783 478.385V65.2834L280.396 77.0554Z" fill="#F781B8"/>
<path d="M503 4.28119L316.783 65.2834V478.385L503 417.383V4.28119Z" fill="#FC64AB"/>
<mask id="mask0_327_76" style="mask-type:alpha" maskUnits="userSpaceOnUse" x="0" y="0" width="510" height="511">
<rect x="230.23" y="454.959" width="273.805" height="58" transform="rotate(-16.8695 230.23 454.959)" fill="#D9D9D9"/>
<path d="M20.3344 10.7024L63.1422 -6.10352e-05C63.1422 -6.10352e-05 225.814 48.1595 232.236 51.3702C241.868 56.7209 251.499 69.5635 251.499 89.8979C251.499 110.232 233.306 153.04 233.306 153.04L78.1249 88.8273L20.3344 10.7024Z" fill="#F6F7F8"/>
<path d="M482.667 10.7024L439.858 -6.10352e-05C439.858 -6.10352e-05 277.186 48.1595 270.764 51.3702C261.132 56.7209 251.5 69.5635 251.5 89.8979C251.5 110.232 269.694 153.04 269.694 153.04L424.875 88.8273L482.667 10.7024Z" fill="#F6F7F8"/>
<path d="M280.396 490.157C263.273 507.281 238.658 507.281 221.534 490.157C221.534 352.1 221.534 215.113 221.534 77.0553C238.658 94.179 263.273 94.179 280.396 77.0553C280.396 215.113 280.396 352.1 280.396 490.157Z" fill="#FA4298"/>
<path d="M0 4.28113V417.383L186.217 478.385V65.2833L0 4.28113Z" fill="#FC64AB"/>
<path d="M222.605 77.0553L186.217 65.2833V478.385L222.605 490.157V77.0553Z" fill="#F781B8"/>
<path d="M280.396 77.0553V490.157L316.783 478.385V65.2833L280.396 77.0553Z" fill="#F781B8"/>
<path d="M503 4.28113L316.783 65.2833V478.385L503 417.383V4.28113Z" fill="#FC64AB"/>
</mask>
<g mask="url(#mask0_327_76)">
<path d="M416.128 152.04C431.467 147.051 448.727 157.56 455.183 174.516L541.968 418.215L486.013 434.952L399.228 191.252C392.775 174.295 400.789 157.029 416.128 152.04Z" fill="#FEC656"/>
<path d="M365.579 165.552L463.442 440.097L407.487 456.833L309.624 182.288C303.171 165.331 311.185 148.065 326.522 143.073C343.693 141.154 359.123 148.596 365.579 165.552Z" fill="#FEC656"/>
<path d="M292.635 209.073L384.045 466.66L328.091 483.397L236.68 225.809C230.227 208.852 238.241 191.586 253.578 186.594C268.918 181.605 286.179 192.117 292.635 209.073Z" fill="#FEC656"/>
<path d="M227.975 272.621L304.646 493.226L248.691 509.962L172.02 289.358C165.568 272.401 173.582 255.134 188.919 250.143C204.26 245.152 224.222 254.053 227.975 272.621Z" fill="#FEC656"/>
<path d="M280 587L224.615 432.769L512.491 344.248L544.762 429.033L280 587Z" fill="#FEC656"/>
</g>
</g>
<defs>
<clipPath id="clip0_327_76">
<rect width="503" height="503" fill="white"/>
</clipPath>
</defs>
</svg>
