<svg width="512" height="512" viewBox="0 0 512 512" fill="none" xmlns="http://www.w3.org/2000/svg">
<g clip-path="url(#clip0_6_3)">
<path d="M37.2151 28.1134L77.6668 18C77.6668 18 231.386 63.5089 237.453 66.5429C246.555 71.5991 255.657 83.7348 255.657 102.95C255.657 122.165 238.465 162.617 238.465 162.617L91.8248 101.938L37.2151 28.1134Z" fill="#FEC656"/>
<path d="M474.101 28.1134L433.648 18C433.648 18 279.93 63.5089 273.862 66.5429C264.76 71.5991 255.658 83.7348 255.658 102.95C255.658 122.165 272.85 162.617 272.85 162.617L419.49 101.938L474.101 28.1134Z" fill="#FEC656"/>
<path d="M18 22.0457V412.411L193.968 470.055V79.6903L18 22.0457Z" fill="#FC64AB"/>
<path d="M227.254 90.6939L193.504 79.5659L192.465 469.653L233.485 483.24L227.254 90.6939Z" fill="#F781B8"/>
<path d="M282.813 90.6939L267.755 486.356L319.16 469.221V79.2046L282.813 90.6939Z" fill="#F781B8"/>
<path d="M282.964 481.179C266.782 497.361 243.522 497.361 227.341 481.179C227.341 350.72 227.341 221.273 227.341 90.8142C243.522 106.995 266.782 106.995 282.964 90.8142C282.964 221.273 282.964 350.72 282.964 481.179Z" fill="#FA4298"/>
<path d="M493.315 22.0457L317.347 79.6903V470.055L493.315 412.411V22.0457Z" fill="#FC64AB"/>
<path d="M397.41 168.001C412.749 163.013 430.009 173.522 436.464 190.477L481.237 316.204L481.237 416.602L245.651 488.04L244.295 488.447L174.529 287.71C168.657 272.28 175.949 256.568 189.905 252.026C203.865 247.485 222.029 255.584 225.444 272.48L270.905 403.284L292.54 396.632L233.366 229.884C227.494 214.454 234.786 198.743 248.741 194.2C262.699 189.661 278.407 199.226 284.281 214.655L343.319 381.017L365.318 374.253L299.74 190.282C293.869 174.852 301.161 159.14 315.117 154.598C330.741 152.852 344.781 159.624 350.655 175.052L416.097 358.638L432.625 353.557L380.509 207.213C374.057 190.256 382.071 172.99 397.41 168.001Z" fill="#FEC656"/>
<path d="M461.36 32.6592L453.728 42.9043L476.212 35.54L485.815 32.3945V406.976L469.278 412.393L464.244 414.041L464.188 416.277L296.614 468.831L296.55 468.851L296.486 468.872L280.427 474.226L278.766 474.779L277.521 476.012C264.293 489.113 245.883 489.086 232.676 475.908L231.421 474.656L229.737 474.099L199.965 464.236V464.127L194.8 462.436L25.5 406.976V32.3936L35.1016 35.5391L57.5059 42.8779L49.9297 32.665L77.498 25.7725C85.8031 28.2336 119.223 38.145 153.195 48.3369C172.774 54.2106 192.521 60.1732 207.747 64.8545C215.363 67.1962 221.826 69.2101 226.562 70.7295C228.933 71.4904 230.84 72.1176 232.229 72.5938C233.34 72.9743 233.885 73.181 234.064 73.2471C240.537 76.9762 248.154 86.4443 248.156 102.944L248.157 110.443H263.157L263.158 102.944C263.16 86.4465 270.775 76.9772 277.247 73.2471C277.424 73.1822 277.969 72.9758 279.087 72.5928C280.478 72.1162 282.387 71.4891 284.761 70.7275C289.501 69.2068 295.969 67.1904 303.592 64.8467C318.831 60.1612 338.596 54.1943 358.186 48.3174C377.772 42.4415 397.17 36.6596 411.673 32.3467C418.924 30.1903 424.95 28.4013 429.164 27.1514C431.128 26.5687 432.699 26.1034 433.815 25.7725L461.36 32.6592Z" stroke="black" stroke-width="15"/>
</g>
<defs>
<clipPath id="clip0_6_3">
<rect width="512" height="512" fill="white"/>
</clipPath>
</defs>
</svg>
