<svg width="118" height="112" viewBox="0 0 118 112" fill="none" xmlns="http://www.w3.org/2000/svg">
<path d="M92.9461 14.3421L111.964 30.7477L16.3713 47.2765L4.97946 24.7035L4.97946 14.3421L92.9461 14.3421Z" fill="#5255A1"/>
<path d="M112.085 30.5077L23.0118 30.5077L23.0118 110.491L112.085 110.491L112.085 30.5077Z" fill="#F567A5"/>
<path fill-rule="evenodd" clip-rule="evenodd" d="M112.167 30.2032L22.61 30.2032L22.61 110.67L112.167 110.67L112.167 30.2032ZM23.0941 110.187L23.0941 30.6858L111.683 30.6858L111.683 110.187L23.0941 110.187Z" fill="black"/>
<path fill-rule="evenodd" clip-rule="evenodd" d="M114.747 27.1298L95.0533 10.9642L4.01127 10.9642L22.0848 27.1298L114.747 27.1298Z" fill="#F567A5"/>
<path fill-rule="evenodd" clip-rule="evenodd" d="M95.3683 10.5384L3.60827 10.5384L22.2203 27.1865L115.65 27.1865L95.3683 10.5384ZM22.4055 26.704L4.87176 11.0209L95.1946 11.0209L114.301 26.704L22.4055 26.704Z" fill="black"/>
<path d="M4.97944 14.3421L23.0893 30.5581L23.2538 110.491L4.97944 88.9957L4.97944 14.3421Z" fill="#7A83FF"/>
<path fill-rule="evenodd" clip-rule="evenodd" d="M4.57764 13.7378L4.57763 89.0211L23.3373 111.087L23.1715 30.3869L4.57764 13.7378ZM5.06172 88.8437L5.06173 14.8198L22.6874 30.6025L22.8508 109.769L5.06172 88.8437Z" fill="black"/>
<path d="M114.868 27.1298L22.1647 27.1298L22.1647 45.7082L114.868 45.7082L114.868 27.1298Z" fill="#F567A5"/>
<path fill-rule="evenodd" clip-rule="evenodd" d="M114.95 26.8253L21.7628 26.8253L21.7628 45.8862L114.95 45.8863L114.95 26.8253ZM22.2469 45.4037L22.2469 27.3079L114.466 27.3079L114.466 45.4037L22.2469 45.4037Z" fill="black"/>
<path d="M4.01124 10.9642L22.1211 27.189L22.2856 45.7082L4.01124 27.4782L4.01124 10.9642Z" fill="#7A83FF"/>
<path fill-rule="evenodd" clip-rule="evenodd" d="M3.60946 10.3597L3.60946 27.5148L22.3728 46.233L22.2022 27.0174L3.60946 10.3597ZM4.09355 27.315L4.09356 11.442L21.7205 27.2342L21.879 45.057L4.09355 27.315Z" fill="black"/>
<path fill-rule="evenodd" clip-rule="evenodd" d="M16.047 21.6689L16.047 102.408L9.69932 94.7707L9.69933 15.556C9.69933 15.556 9.81915 14.8246 10.9531 14.8246C12.0871 14.8246 54.2347 14.8246 54.2347 14.8246L55.9304 20.2533L17.262 20.2533C17.262 20.2533 16.5662 20.4096 16.3386 20.6745C16.1111 20.9393 16.047 21.6689 16.047 21.6689Z" fill="#29DCB8"/>
<path fill-rule="evenodd" clip-rule="evenodd" d="M54.2776 14.3988L10.8176 14.3988C9.95593 14.3988 9.42706 14.7073 9.32539 15.3328L9.32297 15.352L9.32296 94.673L16.1535 102.893L16.1535 21.4949L16.1571 21.4587C16.1959 21.0598 16.2745 20.7917 16.375 20.6612L16.3871 20.6468C16.4948 20.5215 16.7513 20.4029 17.1543 20.3099L56.1243 20.3099L54.2776 14.3988ZM53.9216 14.8814L55.4667 19.8273L17.0999 19.8273L17.02 19.8458C16.5383 19.9594 16.2055 20.1158 16.0192 20.333C15.8267 20.5571 15.7178 20.931 15.6706 21.4632L15.6694 21.4843L15.6694 101.554L9.80706 94.4993L9.80706 15.3927L9.81312 15.3644C9.88694 15.0523 10.1822 14.8891 10.7752 14.8816L10.8176 14.8814L53.9216 14.8814Z" fill="black"/>
<path fill-rule="evenodd" clip-rule="evenodd" d="M42.86 15.0659L100.204 15.0659L106.76 20.3741L60.3133 20.3741L42.86 15.0659Z" fill="#393968"/>
<path fill-rule="evenodd" clip-rule="evenodd" d="M100.002 14.3421L40.318 14.3421L59.9204 20.2534L107.365 20.2534L100.002 14.3421ZM60.0196 19.6086L44.6941 14.9869L99.7674 14.9869L105.524 19.6086L60.0196 19.6086Z" fill="black"/>
<path fill-rule="evenodd" clip-rule="evenodd" d="M62.5867 19.6992C62.5867 19.6992 78.3444 25.9521 82.0387 40.658C85.7331 55.3639 85.5553 67.4232 85.5553 67.4232L106.881 67.4232C106.881 67.4232 105.126 38.8164 89.496 26.2177C73.8661 13.619 62.5867 19.6992 62.5867 19.6992Z" fill="#29DCB8"/>
<path fill-rule="evenodd" clip-rule="evenodd" d="M70.0018 18.1528C74.7179 18.207 81.3933 19.8158 89.1683 26.083C96.9229 32.3337 101.252 42.5741 103.641 51.2862C104.834 55.6374 105.54 59.5966 105.947 62.4681C106.151 63.9036 106.28 65.0666 106.359 65.8703C106.398 66.2722 106.424 66.5841 106.441 66.7954C106.442 66.8179 106.444 66.8393 106.446 66.8596L85.6232 66.8596C85.6232 66.7773 85.6229 66.6746 85.6222 66.5524C85.6198 66.1922 85.6123 65.6617 85.5917 64.9795C85.5506 63.6153 85.4571 61.6439 85.248 59.2124C84.8299 54.3499 83.9491 47.6454 82.098 40.277C80.2328 32.8522 75.325 27.5706 70.9002 24.1509C68.6864 22.44 66.5892 21.1916 65.045 20.3708C64.2726 19.9602 63.6382 19.6564 63.1961 19.4548C63.1279 19.4238 63.0642 19.395 63.0054 19.3687C63.0102 19.3668 63.0151 19.3648 63.0199 19.3627C63.3509 19.2243 63.8437 19.0393 64.4846 18.8556C65.7666 18.488 67.6415 18.1258 70.0018 18.1528ZM62.4112 19.3768C62.2961 19.1646 62.2962 19.1645 62.2964 19.1644L62.2972 19.164L62.2993 19.1628L62.3067 19.159C62.3093 19.1575 62.3124 19.1559 62.3159 19.1541C62.321 19.1515 62.3269 19.1485 62.3338 19.145C62.3573 19.1329 62.3917 19.1158 62.4367 19.0942C62.5267 19.051 62.6593 18.9902 62.8328 18.9177C63.1797 18.7727 63.6903 18.5812 64.3509 18.3918C65.6722 18.013 67.5941 17.6426 70.0074 17.6703C74.8384 17.7258 81.6178 19.3762 89.4727 25.7077C97.348 32.0557 101.711 42.418 104.108 51.159C105.307 55.5343 106.017 59.5142 106.427 62.4004C106.632 63.8436 106.762 65.0138 106.84 65.8238C106.88 66.2287 106.906 66.5437 106.923 66.7577C106.932 66.8647 106.938 66.9465 106.941 67.0017C106.943 67.0293 106.945 67.0503 106.946 67.0644L106.947 67.0805L106.947 67.0858C106.947 67.086 106.947 67.0861 106.705 67.1008L106.947 67.0861L106.963 67.3421L85.1341 67.3421L85.1377 67.0973L85.3797 67.1008C85.1377 67.0973 85.1377 67.0973 85.1377 67.0973L85.1377 67.097L85.1377 67.0891C85.1379 67.0835 85.138 67.0749 85.1381 67.0636C85.1383 67.0406 85.1386 67.0064 85.1387 66.9608C85.1392 66.8697 85.1393 66.7339 85.1381 66.5555C85.1358 66.1989 85.1283 65.6722 85.1078 64.9941C85.0669 63.6377 84.9739 61.6752 84.7657 59.2535C84.3492 54.4099 83.4717 47.7318 81.6285 40.3943C79.7993 33.1133 74.9811 27.9154 70.6035 24.5322C68.4159 22.8416 66.343 21.6076 64.8171 20.7965C64.0544 20.391 63.4288 20.0915 62.9949 19.8936C62.7777 19.7947 62.6087 19.7213 62.4942 19.6726C62.4369 19.6483 62.3934 19.6303 62.3643 19.6184C62.3498 19.6123 62.3389 19.608 62.3318 19.6051L62.3239 19.6019L62.3221 19.6011L62.3216 19.601C62.3216 19.601 62.3216 19.601 62.3237 19.596L62.3216 19.601L61.8405 19.4101L62.2961 19.1646L62.4112 19.3768Z" fill="black"/>
<path fill-rule="evenodd" clip-rule="evenodd" d="M57.722 25.2365C57.722 25.2365 36.0266 17.2664 24.1591 25.0201C12.2928 32.7738 17.5125 71.8503 17.5125 71.8503L4.43847 65.2709C4.43847 65.2709 -1.89948 17.821 33.5432 16.9319C68.9858 16.0429 57.722 25.2365 57.722 25.2365Z" fill="#29DCB8"/>
<path fill-rule="evenodd" clip-rule="evenodd" d="M52.0535 17.7692C48.1494 17.0368 42.2272 16.6287 33.3738 16.8508C24.5742 17.0714 18.3863 20.1793 14.0428 24.7044C9.69327 29.2357 7.17723 35.205 5.76005 41.168C4.34287 47.1294 4.02822 53.0677 4.06937 57.5184C4.08873 59.743 4.19764 61.5943 4.30172 62.8886C4.35376 63.5358 4.40338 64.0437 4.44211 64.3894C4.46026 64.5622 4.47599 64.6945 4.48688 64.7834C4.48688 64.7859 4.48689 64.7884 4.4881 64.791L17.0406 71.1082C17.0055 70.8194 16.9558 70.3978 16.8965 69.8601C16.7767 68.7745 16.6182 67.2153 16.4657 65.3203C16.1619 61.531 15.8799 56.3958 15.9695 51.0164C16.0579 45.6392 16.5189 40.0072 17.705 35.2281C18.8874 30.4599 20.8056 26.4864 23.8517 24.4959C29.8641 20.5672 38.3345 20.6349 45.2511 21.6597C48.7177 22.1733 51.8109 22.9298 54.0374 23.5578C55.1508 23.8718 56.0479 24.154 56.6673 24.3577C56.9769 24.4596 57.2171 24.5419 57.3803 24.5988C57.4241 24.6141 57.4622 24.6275 57.4948 24.639C57.4971 24.6371 57.4992 24.6349 57.5017 24.6328C57.5719 24.5689 57.6715 24.4746 57.7864 24.3544C58.0171 24.1131 58.3057 23.7722 58.5446 23.3689C59.0234 22.5604 59.278 21.5532 58.5535 20.5714C57.8043 19.5566 55.9715 18.5041 52.0535 17.7692ZM57.5468 24.9142C57.7001 25.1008 57.7006 25.1006 57.7006 25.1006L57.7033 25.0983L57.7104 25.0924C57.7165 25.0873 57.7251 25.08 57.7361 25.0706C57.7579 25.0518 57.7891 25.0246 57.8278 24.9894C57.9051 24.9191 58.013 24.8168 58.1368 24.6874C58.3837 24.4292 58.6981 24.059 58.9614 23.6142C59.487 22.7266 59.8332 21.491 58.9434 20.2855C58.0781 19.1131 56.0813 18.0338 52.143 17.295C48.1907 16.5535 42.2298 16.1459 33.3617 16.3684C24.4399 16.5921 18.1298 19.7489 13.6931 24.3708C9.26243 28.9863 6.71734 35.0461 5.28927 41.0567C3.85999 47.0689 3.54413 53.0488 3.58527 57.5227C3.60464 59.7604 3.71476 61.6231 3.81884 62.9271C3.87088 63.5792 3.92171 64.0915 3.96044 64.4414C3.9798 64.6163 3.99554 64.7506 4.00643 64.8414C4.01127 64.8868 4.01611 64.9213 4.01853 64.9445C4.01974 64.9561 4.02095 64.9651 4.02216 64.971L4.02338 64.9778L4.02338 64.9797C4.02338 64.9797 4.02337 64.9804 4.263 64.9485L4.02338 64.9797L4.04032 65.1066L17.6384 71.9494L17.5779 71.4961L17.3383 71.5279C17.5779 71.4961 17.5779 71.4961 17.5779 71.4961L17.5779 71.4945L17.5767 71.4893L17.5743 71.4683C17.5718 71.4498 17.5682 71.4219 17.5634 71.385C17.5537 71.3113 17.5404 71.2015 17.5222 71.0579C17.4871 70.7707 17.4363 70.3482 17.377 69.8074C17.2584 68.7257 17.1011 67.1714 16.9486 65.2819C16.6448 61.5021 16.364 56.3834 16.4536 51.0245C16.5419 45.6634 17.0018 40.0724 18.1745 35.344C19.3509 30.6046 21.2304 26.7859 24.1167 24.8994C29.9706 21.0746 38.2824 21.1151 45.18 22.1369C48.6208 22.6468 51.6932 23.3981 53.9056 24.0222C55.0115 24.3341 55.902 24.6141 56.5156 24.816C56.8224 24.9168 57.0598 24.9983 57.2203 25.0542C57.3005 25.0822 57.3615 25.1039 57.4023 25.1185C57.4228 25.1259 57.4381 25.1314 57.4483 25.1352L57.4597 25.1393L57.4623 25.1402C57.4623 25.1402 57.4632 25.1405 57.5468 24.9142ZM57.5468 24.9142L57.4623 25.1402L57.593 25.1883L57.7006 25.1006L57.5468 24.9142Z" fill="black"/>
<path fill-rule="evenodd" clip-rule="evenodd" d="M78.9247 110.853L78.9247 30.5894L78.9247 28.4175C78.9247 28.4175 78.7928 27.5773 76.5399 25.1018C74.2871 22.6261 61.1318 10.361 61.1318 10.361L41.6497 10.361C41.6497 10.361 56.7484 25.244 58.5173 26.9857C59.4339 27.8882 59.0793 30.5894 59.0932 30.5894C59.1546 30.5894 58.5172 110.853 58.5172 110.853L78.9247 110.853Z" fill="#29DCB8"/>
<path fill-rule="evenodd" clip-rule="evenodd" d="M40.926 9.93515L61.0926 9.93515L62.4517 11.2032C70.444 18.6665 75.1515 23.1802 76.5845 24.755L76.7485 24.936C78.1623 26.5059 78.9154 27.5647 79.0253 28.1727L79.032 28.2141L79.032 110.91L58.1385 110.91L58.4336 73.1755L58.64 45.2438L58.7096 34.2883L58.7216 31.3105L58.7211 30.6539C58.7208 30.5925 58.7203 30.5428 58.7199 30.5049L58.7184 30.4357L58.718 30.4333C58.717 30.4261 58.7167 30.423 58.7165 30.4156L58.7161 30.3939L58.7208 30.3277L58.7355 30.1559C58.7387 30.1148 58.7418 30.0746 58.7449 30.0297C58.7818 29.5007 58.7858 28.9764 58.7362 28.4819C58.6655 27.7761 58.4919 27.2479 58.2124 26.9726L40.926 9.93515ZM60.9015 10.4177L42.1042 10.4177L58.5526 26.6294C58.9323 27.0031 59.137 27.626 59.218 28.434C59.2669 28.9224 59.2668 29.431 59.2355 29.9446L59.2278 30.0631C59.2245 30.1097 59.2214 30.1514 59.218 30.1939L59.201 30.3945L59.2025 30.4273L59.2048 30.5923L59.2059 31.0637L59.2025 32.3965L59.1744 37.6298L59.0843 50.8758L58.9347 70.9587L58.6264 110.427L78.5479 110.427L78.5509 28.2702C78.4734 27.7768 77.6916 26.6898 76.226 25.0792L76.18 25.0289C74.674 23.3881 69.8105 18.7313 61.6004 11.0696L60.9015 10.4177ZM58.7191 30.4394L58.7226 30.4593C58.7269 30.4773 58.7278 30.4814 58.7387 30.504L58.7508 30.5287C58.7916 30.5897 58.7982 30.5993 58.8943 30.6276L58.9585 30.6459C58.8915 30.6459 58.8457 30.6573 58.8139 30.6651C58.7527 30.6801 58.7424 30.6826 58.7308 30.5695L58.7191 30.4394Z" fill="black"/>
<path fill-rule="evenodd" clip-rule="evenodd" d="M61.5282 10.9345C61.5282 10.9345 76.3961 8.20267 84.2285 2.94547C92.0607 -2.31185 97.46 3.50717 109.452 11.0026C121.444 18.498 113.174 23.6313 101.649 23.6313C90.124 23.6313 65.4765 18.9062 65.4765 18.9062L61.5282 10.9345Z" fill="#29DCB8"/>
<path fill-rule="evenodd" clip-rule="evenodd" d="M98.2948 3.40475C94.9493 1.42361 92.4911 0.50893 90.0745 0.498435C88.0424 0.489748 86.0615 1.1488 83.9581 2.56063L83.8017 2.66499C78.6171 6.09728 71.1324 8.71503 61.3491 10.5127L61.0342 10.5706L65.1775 18.9359L65.7877 19.0527C81.9822 22.1427 93.8885 23.688 101.514 23.688C107.444 23.688 112.382 22.3504 114.414 20.1048C116.742 17.5325 115.143 14.1745 109.446 10.6135L108.744 10.1727C107.696 9.51113 106.754 8.89997 105.343 7.96731L102.485 6.07183C100.702 4.89234 99.6949 4.24572 98.629 3.6044L98.2948 3.40475ZM84.3192 2.90048C86.3113 1.58213 88.1713 0.972786 90.0723 0.98099C92.3849 0.991003 94.7711 1.87915 98.0496 3.82083L98.2515 3.94111C99.3262 4.58448 100.31 5.21361 102.058 6.36836L105.301 8.51839C106.646 9.40569 107.564 10.0002 108.608 10.6582L109.189 11.0224C114.668 14.4472 116.121 17.4985 114.055 19.7816C112.137 21.9005 107.32 23.2054 101.514 23.2054C93.8494 23.2054 81.8048 21.6321 65.3871 18.4847L65.5052 18.5072L61.7517 10.9289L62.0306 10.8766C71.5833 9.07175 78.9294 6.47006 84.0702 3.06648L84.3192 2.90048Z" fill="black"/>
<path fill-rule="evenodd" clip-rule="evenodd" d="M65.4342 17.728C65.4342 17.728 100.553 23.4187 107.474 21.4679C114.394 19.5172 114.62 13.8331 105.631 13.8331C96.6425 13.8331 63.0876 17.3324 63.0876 17.3324" fill="#202035"/>
<path d="M105.497 13.4073C99.5523 13.4073 85.5897 14.5508 63.5965 16.8381L62.9276 16.9079L62.9779 17.3878L64.3098 17.2493C85.9024 15.0097 99.6353 13.8898 105.497 13.8898C109.548 13.8898 111.939 15.0767 112.143 16.7635C112.34 18.3805 110.467 20.1509 107.273 21.0512C102.756 22.3245 88.9838 21.1162 66.0364 17.418L65.3382 17.3052L65.2605 17.7815C88.7198 21.5829 102.741 22.8303 107.405 21.5155C110.8 20.5584 112.856 18.6151 112.624 16.7054C112.382 14.7077 109.762 13.4073 105.497 13.4073Z" fill="black"/>
<path fill-rule="evenodd" clip-rule="evenodd" d="M55.8256 10.6094C51.3715 8.871 41.684 9.26355 30.6544 8.21508C19.6244 7.16673 7.84283 3.61572 3.17862 6.24336C-1.48438 8.87099 14.0815 16.0076 18.8305 20.6055C23.5806 25.2033 36.3824 26.7778 46.104 22.2704C55.8256 17.7628 61.6185 17.7628 61.6185 17.7628C61.6185 17.7628 60.2797 12.3477 55.8256 10.6094Z" fill="#29DCB8"/>
<path fill-rule="evenodd" clip-rule="evenodd" d="M20.4256 6.37257C14.3672 5.38189 12.9355 5.17052 10.6155 4.98655L10.2839 4.96097C6.88921 4.7092 4.50507 4.9582 2.92451 5.84863C2.11245 6.30658 1.80022 6.9403 1.99749 7.69743C2.16692 8.34658 2.70668 9.07367 3.59619 9.90946L3.63855 9.94866C4.95648 11.1783 6.67258 12.3955 10.1084 14.6302L12.0097 15.8627C15.6537 18.2335 17.1785 19.3147 18.4045 20.4762L18.5993 20.6633C21.0125 22.9461 25.3863 24.4992 30.4487 24.9082C35.8136 25.3419 41.4154 24.4631 46.0711 22.3045L46.2643 22.2152C52.6258 19.2833 57.7019 17.8195 61.4836 17.8195L61.7925 17.8195L61.7186 17.5206C60.8081 13.8376 58.8253 11.389 55.7789 10.2001C54.5452 9.71861 52.889 9.38034 50.6729 9.12941L50.4375 9.10335C48.7654 8.92179 47.0018 8.79886 44.0591 8.64517L41.1617 8.49823C35.4808 8.2099 33.7925 8.0994 30.5419 7.79032L30.3397 7.77089C29.3958 7.67861 28.4131 7.56509 27.3771 7.42997C25.7118 7.21294 24.0841 6.96732 21.7835 6.59418L20.4256 6.37257ZM3.87817 9.51075C2.23347 7.95053 1.98175 6.93426 3.16294 6.26882C4.65393 5.42857 6.99087 5.192 10.3541 5.45016L10.6506 5.47345C12.7394 5.64102 14.1469 5.83899 19.0738 6.64087L21.3308 7.00942C23.7089 7.39716 25.3766 7.65207 27.0455 7.8732L27.5357 7.93726C28.5704 8.06996 29.5507 8.18095 30.4959 8.2707C33.6122 8.56699 35.2956 8.68124 40.4076 8.94302L43.7167 9.11059C46.7361 9.26622 48.5396 9.38782 50.2087 9.5642L50.5013 9.5958C52.7382 9.84371 54.3943 10.1779 55.6025 10.6495C58.4083 11.7445 60.2604 13.9606 61.1671 17.3209L61.1723 17.3401L61.1287 17.3411C57.3826 17.4263 52.4869 18.8494 46.4339 21.6064L46.0619 21.7768L45.7293 21.9302C41.1802 24.006 35.7192 24.8502 30.4874 24.4273C25.4771 24.0223 21.1699 22.4789 18.8644 20.2478L18.7809 20.1673C17.5053 18.9495 15.9586 17.854 12.1561 15.382L10.5961 14.371C7.00055 12.0364 5.25178 10.8005 3.929 9.55828L3.87817 9.51075Z" fill="black"/>
<path fill-rule="evenodd" clip-rule="evenodd" d="M48.306 17.8406C48.306 17.8406 37.4437 24.8224 27.3141 21.9492C17.1858 19.0761 48.306 17.8406 48.306 17.8406Z" fill="#202035"/>
<path fill-rule="evenodd" clip-rule="evenodd" d="M49.0477 17.3798L48.1616 17.415C37.7765 17.8272 30.8311 18.3763 27.3166 19.0641C25.4347 19.4326 24.4955 19.8297 24.452 20.4125C24.4096 20.9853 25.2277 21.4456 26.9244 21.942L27.1132 21.9966C33.9377 23.9323 41.0051 22.5489 48.3024 17.8588L49.0477 17.3798ZM47.2737 17.9339L47.179 17.9919C40.2999 22.1753 33.6606 23.352 27.2464 21.5325C26.4174 21.2974 25.8026 21.0721 25.4068 20.8595C25.2217 20.7597 25.0885 20.6653 25.0087 20.5805C24.9518 20.5188 24.9324 20.4763 24.9348 20.4482C24.9373 20.4175 24.9651 20.372 25.0353 20.3119C25.1285 20.2319 25.2773 20.1474 25.4782 20.0622C25.9054 19.8816 26.5505 19.7059 27.4097 19.5377C30.7875 18.8766 37.4074 18.3414 47.2577 17.9345L47.2737 17.9339Z" fill="black"/>
<path fill-rule="evenodd" clip-rule="evenodd" d="M53.2362 22.3043C53.2362 22.3043 70.423 22.3043 73.9835 22.3043C77.5441 22.3043 66.707 9.72623 61.9757 9.72623C57.2444 9.72623 45.5083 7.6498 44.4237 8.52587C43.8461 8.99238 45.5117 12.9043 49.4777 18.136C50.4769 19.4539 53.2362 22.3043 53.2362 22.3043Z" fill="#29DCB8"/>
<path fill-rule="evenodd" clip-rule="evenodd" d="M52.1639 8.42295C49.9131 8.169 48.8595 8.06211 47.7377 7.97767L47.348 7.94956C45.5156 7.82434 44.4925 7.86632 44.1367 8.1538C43.7119 8.49678 43.9902 9.60774 44.8077 11.2885L44.8952 11.4664C45.791 13.269 47.1979 15.4968 48.9686 17.8563L49.1499 18.0967C49.7954 18.9482 50.9777 20.2651 52.6996 22.0515L52.9987 22.361L73.8488 22.361C74.3998 22.361 74.7404 22.0882 74.79 21.6037C74.83 21.2117 74.6777 20.6893 74.3567 20.0467C73.764 18.8605 72.5954 17.2781 71.1338 15.6688C67.8057 12.0039 64.0784 9.30035 61.8409 9.30035C60.3768 9.30035 58.4886 9.13628 54.8775 8.73106L52.1639 8.42295ZM44.4408 8.53297C44.4424 8.52887 44.4429 8.52766 44.4418 8.52838L44.4506 8.52163C44.6787 8.35816 45.6603 8.32173 47.2576 8.42717L47.5755 8.44948C48.6967 8.53188 49.7067 8.63237 51.8646 8.87486L54.2262 9.14316C58.128 9.58614 60.1469 9.77145 61.6956 9.7823L61.8409 9.78291C63.8918 9.78291 67.5366 12.4267 70.7749 15.9926L70.8476 16.0729C72.2479 17.6244 73.3631 19.1406 73.9233 20.262C74.207 20.8296 74.337 21.2752 74.3084 21.5547C74.2853 21.7802 74.1626 21.8784 73.8488 21.8784L53.2044 21.8784L53.1242 21.7954C51.449 20.06 50.2807 18.7662 49.622 17.9177L49.5636 17.8418L49.3565 17.5676C47.6025 15.2305 46.211 13.027 45.3291 11.2522C44.9253 10.4398 44.6469 9.7513 44.5112 9.24196C44.4482 9.00527 44.418 8.81381 44.4197 8.67641C44.4203 8.61874 44.4268 8.57447 44.4367 8.54479C44.4384 8.53948 44.4398 8.53562 44.4408 8.53297Z" fill="black"/>
</svg>
