<svg version="1.2" xmlns="http://www.w3.org/2000/svg" viewBox="0 0 150 149" width="150" height="149"><style>.a{fill:#fff}.b{fill:#fc64ab}</style><path fill-rule="evenodd" class="a" d="m80 0.8c3 0.2 9.1 1.2 13.5 2.3 4.4 1.1 11.1 3.5 15 5.5 3.8 1.9 9.8 5.7 13.2 8.4 3.5 2.8 8.5 7.8 11.3 11.2 2.7 3.5 6.5 9.4 8.4 13.3 2 3.8 4.5 10.6 5.6 15 1.5 5.6 2.1 11.1 2.1 18.5 0 7.4-0.6 12.9-2.1 18.5-1.1 4.4-3.6 11.1-5.6 15-1.9 3.8-5.7 9.8-8.4 13.2-2.8 3.5-7.8 8.5-11.3 11.3-3.4 2.7-9.4 6.5-13.2 8.4-3.9 2-10.6 4.5-15 5.6-5.6 1.5-11.1 2.1-18.5 2.1-7.4 0-12.9-0.6-18.5-2.1-4.4-1.1-11.2-3.6-15-5.6-3.9-1.9-9.8-5.7-13.3-8.4-3.4-2.8-8.4-7.8-11.2-11.3-2.7-3.4-6.5-9.4-8.4-13.2-2-3.9-4.5-10.6-5.6-15-1.5-5.6-2.1-11.1-2.1-18.5 0-7.4 0.6-12.9 2.1-18.5 1.1-4.4 3.6-11.2 5.6-15 1.9-3.9 5.7-9.8 8.4-13.3 2.8-3.4 7.6-8.2 10.7-10.7 3.2-2.5 8-5.9 10.8-7.5 2.7-1.6 8.6-4.1 13-5.5 4.4-1.5 11.4-3 15.5-3.4 4.1-0.3 10-0.5 13-0.3zm34.9 64.8c0.2-0.3-0.4-0.6-1.5-0.5-1.4 0-1.5 0.2-0.4 0.6 0.8 0.2 1.7 0.2 1.9-0.1zm-45.6 9.4c1-0.8 1.8-1.6 1.7-1.8 0-0.1-0.2-0.2-0.4-0.2-0.2 0-1 0.8-1.7 1.7-1.3 1.7-1.3 1.7 0.4 0.3zm55.4 9c0.2-0.8 0.2-2 0-2.5-0.3-0.6-0.5 0.1-0.5 1.5 0 1.4 0.2 1.8 0.5 1zm-43.8-1.4c0.2-0.3-0.4-0.6-1.5-0.5-1.4 0-1.5 0.2-0.4 0.6 0.8 0.2 1.7 0.2 1.9-0.1z"/><path class="b" d="m30 75v25l15.5-0.5c0.4-16.7 0.9-19.5 1.7-19.5 0.7-0.1 2.2 0.9 3.3 2.1 1.1 1.1 3.8 5.5 6 9.7l4 7.7c13.2 0.4 16.5 0.1 16.5-0.5 0-0.6-1.9-4.7-4.3-9.2-2.3-4.4-5.2-8.8-6.3-9.7-2.2-1.6-2.2-1.6 1.7-4.9 2.3-1.9 4.4-4.7 5.1-7 0.8-2.7 0.8-4.7 0-7.7-0.6-2.2-2.1-5-3.4-6.3-1.3-1.2-4.1-2.7-6.3-3.2-2.2-0.5-10.6-1-18.8-1h-14.7zm61.5-23.9c-2.2 0.6-5.2 1.9-6.8 3-1.5 1-3.4 3.2-4.2 4.9-0.8 1.6-1.5 3.9-1.5 5 0 1.1 0.8 3.6 1.7 5.6 1.3 2.6 3.2 4.4 6.5 6 2.7 1.3 7.4 3 10.5 3.7 3.2 0.8 6.8 1.9 8 2.5 1.5 0.8 2.3 2.1 2.3 3.7 0 1.5-0.8 2.9-2 3.5-1.1 0.5-3.4 1-5 1-1.9 0-3.9-0.9-5.5-2.5-1.4-1.4-2.5-3.2-2.5-4 0-1.1-1.2-1.5-4.8-1.5-2.6 0-6.2 0.3-8 0.7-2.9 0.7-3.3 1.1-2.7 3.3 0.3 1.4 1.6 4 2.8 5.8 1.2 1.8 3.9 4.2 5.9 5.3 2.1 1 7.1 2.2 11 2.6 4.6 0.4 9.1 0.2 12.3-0.6 2.7-0.7 6.5-2.3 8.2-3.7 1.8-1.3 4-3.8 4.8-5.4 0.8-1.7 1.5-4.7 1.5-6.8 0-2-0.9-5.2-2-7-1.1-1.8-3.9-4.1-6.3-5.2-2.3-1-7.8-2.8-12.2-4-4.4-1.1-8.3-2.6-8.7-3.2-0.4-0.7-0.1-1.9 0.5-2.6 0.7-0.7 2.8-1.3 4.7-1.3 2 0 4.2 0.8 5.2 1.8 1 1 1.8 2.4 1.8 3 0 1 1.9 1.1 7.7 0.7 4.3-0.4 7.9-0.8 8-1 0.2-0.2-0.7-2.5-2-5.1-1.7-3.7-3.1-5.1-6.7-6.7-2.7-1.1-7.3-2-11.5-2.2-3.9-0.2-8.8 0.1-11 0.7z"/><path class="a" d="m46 65.5c0 4.5 0 4.5 3.5 4.5 1.9 0 4.6-0.5 6-1 1.6-0.6 2.5-1.8 2.5-3.3 0-1.2-0.5-2.8-1.2-3.5-0.7-0.7-3.4-1.2-6.1-1.2h-4.7z"/></svg>