<svg version="1.2" xmlns="http://www.w3.org/2000/svg" viewBox="0 0 150 150" width="150" height="150"><style>.a{fill:#facc00}</style><path  d="m56 2.4c-4.1 1.2-9.5 3.1-12 4.2-2.5 1.1-7.2 3.8-10.5 6.1-3.3 2.2-8.4 6.4-11.4 9.4-3 3-7.2 8.1-9.4 11.4-2.3 3.3-5.1 8.5-6.5 11.5-1.3 3-3.2 9.1-4.3 13.5-1.1 4.7-1.9 11.6-1.9 16.7 0 5.5 0.8 11.8 2 16.8 1.1 4.4 3 10.4 4.3 13.2 1.3 2.9 4.1 8 6.4 11.3 2.2 3.3 6.4 8.4 9.4 11.4 3 3 8.1 7.2 11.4 9.4 3.3 2.3 8.2 5.1 11 6.3 2.7 1.2 8.5 3.1 12.7 4.3 5.6 1.5 10.7 2.1 17.8 2.1 7.1 0 12.2-0.6 17.7-2.1 4.3-1.2 10-3.1 12.8-4.3 2.7-1.2 7.7-4 11-6.3 3.3-2.2 8.4-6.4 11.4-9.4 3-3 7.2-8.1 9.4-11.4 2.3-3.3 5.1-8.5 6.5-11.5 1.3-3 3.2-9.1 4.3-13.5 1.1-4.7 1.9-11.6 1.9-16.8 0-5.4-0.8-11.7-2-16.7-1.1-4.4-3-10.4-4.3-13.3-1.3-2.8-4.1-7.9-6.4-11.2-2.2-3.3-6.4-8.4-9.4-11.4-3-3-8.1-7.2-11.4-9.4-3.3-2.3-8.3-5.1-11-6.3-2.8-1.2-8.5-3.1-12.8-4.3-5.8-1.6-10.3-2.1-18.5-2-7.9 0.1-12.7 0.7-18.2 2.3z"/><path class="a" d="m30 75v24h15v-19c5.1 0.5 6.2 1.8 10.5 9.7l5 9.3h16.5c-4.3-9.7-7.3-14.4-9.5-16.8l-4-4.3c4.3-2.2 6.4-4.4 7.5-6.2 1.2-1.9 2-5 2-7.5 0-2.3-0.5-5.3-1-6.7-0.6-1.4-2.5-3.4-4.3-4.5-2.9-1.8-5-2-20.5-2h-17.2zm57.1-21.8c-3 1.6-5 3.6-6.4 6.3-1.9 3.7-1.9 4.3-0.6 8 0.9 2.5 2.8 4.9 5.4 6.7 2.2 1.5 7.6 3.7 12 4.8 5.6 1.3 8.5 2.6 9.8 4.2 1.5 2 1.6 2.6 0.4 4.3-1 1.4-2.8 2.1-5.8 2.3-3.1 0.2-4.9-0.3-6.3-1.5-1-1-2.2-2.8-2.7-4.1-0.9-2.1-1.3-2.2-8.2-1.6-3.9 0.4-7.3 0.7-7.4 0.8 0 0 0.5 1.9 1.3 4.1 0.8 2.2 2.4 5.1 3.7 6.4 1.2 1.3 3.7 3 5.4 3.7 2 0.9 7.1 1.4 13 1.4 8.2 0 10.5-0.4 14.3-2.2 2.5-1.3 5.5-3.9 6.8-5.8 1.3-2.1 2.2-5 2.2-7.3 0-2-0.8-5.1-1.7-6.8-1-1.9-3.6-4-6.7-5.5-2.8-1.3-8.3-3-12.1-3.9-3.9-0.8-7.6-2.2-8.3-3-0.6-0.8-1-2.1-0.9-2.8 0.2-0.6 1.7-1.6 3.3-2 1.8-0.5 3.9-0.4 5.5 0.4 1.5 0.6 2.9 2 3.3 3 0.5 1.6 1.6 1.9 8.3 1.9h7.8c-1.2-5-2.6-7.6-3.9-9-1.4-1.4-4.2-3.1-6.3-3.7-2.1-0.7-7.6-1.3-12.3-1.3-7 0-9.4 0.4-12.9 2.2z"/><path  d="m45 65v5c8.9 0 11.4-0.5 12.4-1.5 0.9-0.8 1.6-2.2 1.6-3 0-0.8-0.9-2.4-2-3.5-1.5-1.5-3.3-2-7-2h-5z"/></svg>