<?xml version="1.0" standalone="no"?>
<svg viewBox="-350 -150 1500 1500" style="width: 195px; height: 195px; justify-content: center; align-self: center; transform: scale(1, 1);" xmlns="http://www.w3.org/2000/svg"><g transform="rotate(0 493.7835159301758 572.3205929842952)"><g transform="translate(0 459)"><path d="M1102.99 305.357C1113.23 300.01 1123.24 294.201 1133.08 288.155C1140.01 284.008 1133.87 273.562 1126.76 277.336C1123.13 279.267 1119.51 281.217 1115.87 283.135C1118.73 280.672 1121.39 277.99 1123.76 275.067L1123.6 274.904C1132.76 266.693 1120.99 251.201 1110.57 257.946C1101.38 264.608 1092.1 271.406 1081.55 275.793C1059.7 285.059 1035.6 286.592 1012.14 286.86C1003.56 286.215 995.364 287.702 987.036 289.359C990.301 276.261 998.472 266.37 1002.81 253.684C1006 240.876 987.516 232.151 980.964 244.463C979.356 247.486 977.823 250.544 976.324 253.618C962.162 266.499 938.514 265.364 924.231 279.195C916.095 286.416 912.114 296.213 910.541 306.047C909.473 312.724 911.133 319.418 907.096 325.332C887.577 352.94 856.735 396.578 841.072 426.961C829.982 354.763 800.371 265.463 769.78 199.446C759.664 178.333 748.091 157.703 732.899 139.807C734.621 133.839 728.543 123.245 724.678 126.506C712.781 111.973 691.751 108.21 674.841 100.985C652.014 91.2244 633.075 70.9357 623.765 47.8762C611.803 3.96415 582.356 -1.61372 541.517 0.327016C502.433 0.277947 473.516 16.9946 464.988 56.7808C447.663 86.9784 406.757 81.9844 377.328 89.9786C355.76 94.9056 334.829 102.523 314.937 112.194C292.808 91.2034 213.553 179.298 206.349 201.97C210.59 202.792 214.805 203.781 218.982 204.987C222.702 206.063 221.14 211.682 217.388 210.782C212.719 209.661 208.02 208.889 203.299 208.353C203.155 208.804 203.029 209.253 202.935 209.697C202.405 209.661 201.876 209.616 201.346 209.58C202.521 210.191 203.652 210.901 204.754 211.817C207.418 214.029 203.95 218.298 201.119 216.535C198.452 214.54 194.959 214.855 191.76 214.185C191.57 220.763 168.097 213.404 164.451 211.224C148.246 209.197 131.575 211.372 116.447 203.557C96.3179 199.318 76.0379 194.63 56.1349 189.232C50.8659 191.286 45.9139 198.636 50.0989 204.03C52.4529 206.484 49.4269 210.492 46.4629 208.747C36.5219 202.896 28.8339 193.762 22.3159 183.922C19.2479 180.827 13.8019 181.493 9.67988 180.208C9.12888 181.199 8.80388 182.302 8.80888 183.434C-8.67612 186.312 3.79688 205.409 12.5869 211.359C7.92388 214.395 7.74688 220.341 8.15488 225.306C7.16688 227.074 6.83688 229.266 7.69688 231.248C10.9849 238.825 18.0959 245.206 23.5029 251.345C29.4729 258.124 34.7959 264.941 42.0599 270.437C69.7479 291.542 103.161 303.342 137.439 307.957C149.61 309.826 167.117 312.687 174.653 322.979C172.804 335.193 169.409 346.907 166.329 358.817C162.022 374.627 162.315 391.178 162.258 407.296C161.656 406.812 160.5 406.912 160.328 407.834C159.326 414.515 158.581 421.347 154.52 426.961C150.96 437.4 148.591 448.535 147.26 459.503C141.928 511.498 140.655 565.027 152.677 616.212C157.316 635.201 164.861 653.247 175.141 669.865C178.206 674.821 183.134 676.273 187.559 675.299C202.369 682.993 221.026 685.46 236.989 683.505C291.41 668.099 272.448 705.197 348.751 693.837C480.458 677.059 613.562 710.029 744.989 690.672C748.226 715.674 790.6 708.502 805.319 697.932C849.453 665.123 871.367 561.247 893.516 508.552C908.741 467.018 934.235 393.454 967.622 365.584C977.633 357.754 989.734 353.632 1001.84 350.304C1047.03 338.66 1092.39 327.648 1137.67 316.327C1145.34 314.437 1143.96 301.342 1135.75 302.182C1124.86 303.297 1113.92 304.306 1102.99 305.357Z" transform="translate(-86.00008 -22.00066)" fill="#FFFFFF" stroke="none"></path><path d="M99.7948 270.318C96.7348 269.938 93.7348 268.848 90.7548 267.988C86.2048 266.658 81.7448 265.108 77.3548 263.338C68.2948 259.709 59.5048 255.418 51.2648 250.168C37.9548 241.678 26.1948 230.798 17.3248 217.698L16.7159 216.785C11.652 209.071 2.31124 191.944 12.7848 186.088C6.03454 180.448 -0.345455 170.318 0.014545 162.498C0.524545 151.438 14.0845 151.589 21.0945 156.278C25.6845 159.348 29.1245 163.648 32.5745 167.879C36.3945 172.578 40.4745 177.058 44.7145 181.368C45.8395 182.508 46.9758 183.625 48.1317 184.725L49.2944 185.818C49.1145 185.388 48.9545 184.948 48.8145 184.497C46.4745 177.208 49.2645 167.718 56.5545 164.378C61.0158 162.333 65.6489 163.582 69.972 165.318L70.6345 165.588C76.4545 167.997 82.3445 170.128 88.4045 171.838C113.105 178.808 138.885 179.968 164.195 183.448C173.945 184.798 183.875 186.497 193.575 188.997C197.274 173.288 206.344 158.229 216.184 145.839C263.304 86.5676 341.014 66.9786 412.104 54.2986C415.495 53.6969 418.582 55.7589 421.295 57.5712C423.766 59.2224 425.927 60.666 427.725 59.6982C434.875 55.8582 441.165 50.4182 446.685 44.5082C458.455 31.8982 466.805 17.0682 476.615 3.01824C481.465 -3.92176 492.625 2.28824 488.125 9.73824L485.92 13.3792C476.843 28.2929 466.792 43.6624 453.775 55.2282C446.855 61.3682 439.175 66.2182 430.395 69.2472C423.745 71.5382 414.415 73.4682 407.135 71.2472L406.261 69.9746C406.55 70.4002 406.841 70.8246 407.135 71.2479C426.134 98.7778 449.974 122.078 475.094 144.068C500.45 166.252 527.803 186.117 555.321 205.54L557.614 207.158C602.444 174.459 640.314 131.808 666.884 83.0788C661.315 82.408 655.805 78.839 651.045 76.178C645.315 72.959 639.925 69.118 635.725 63.998C626.575 52.848 627.765 38.478 626.115 24.948C626.015 24.108 627.125 23.898 627.635 24.318C632.595 28.438 634.335 35.188 636.405 41.018C638.685 47.428 641.265 52.709 646.495 57.218C651.365 61.419 657.305 64.508 663.075 67.258C666.05 68.6691 680.822 72.2953 682.504 75.2985C708.025 69.3083 732.885 79.6583 751.795 97.1183C770.065 113.988 783.475 135.918 795.315 157.568C807.945 180.668 818.295 204.747 827.215 229.497C836.255 254.618 843.185 280.288 846.995 306.728C850.211 329.02 852.183 351.661 853.459 374.201L853.615 377.018C872.494 347.388 891.844 318.068 911.594 289.008C907.104 277.018 912.074 264.778 920.484 255.518C929.804 245.268 942.694 240.508 955.024 234.968L956.645 234.235C962.588 231.524 968.511 228.539 973.644 224.478C978.584 220.558 982.214 215.158 987.414 211.548C994.974 206.288 1008.69 207.408 1009.04 218.898C1009.22 225.209 1006.51 232.128 1004.03 237.798C1001.22 244.209 997.434 250.018 992.934 255.358C992.726 255.607 992.499 255.803 992.268 255.959L992.094 256.068C998.315 257.098 1004.58 257.928 1010.97 258.218C1023.86 258.808 1036.89 257.858 1049.51 255.138C1062.43 252.358 1074.95 247.839 1086.57 241.538C1096.5 236.158 1105.7 229.198 1116.98 227.558C1118.02 227.398 1119.07 227.298 1120.15 227.238C1121.95 227.138 1123.75 229.258 1123.04 231.037C1122.65 232.018 1122.24 232.988 1121.79 233.968C1117.89 242.558 1111.91 250.891 1104.45 257.216L1103.87 257.698C1106.5 256.788 1109.09 255.768 1111.64 254.618C1126.63 247.868 1140.23 237.668 1156.3 233.568C1157.06 233.368 1157.83 233.188 1158.6 233.018C1163.57 231.948 1166.19 237.348 1163.27 241.048C1162.8 241.648 1162.33 242.238 1161.84 242.828C1154.67 251.728 1146.76 259.988 1138.04 267.408C1135.05 269.948 1131.97 272.408 1128.83 274.759C1138.67 271.778 1148.37 268.248 1157.86 264.339C1161.63 262.788 1164.56 266.608 1164.96 269.748C1166.29 280.122 1154.95 287.666 1147.34 292.725L1147.02 292.938C1139.4 298.019 1131.01 301.879 1122.42 304.978C1105.91 310.947 1088.56 313.657 1071.24 316.086L1062.83 317.258C1029.53 321.914 994.755 327.48 970.864 353.389C957.474 367.908 948.414 385.948 940.124 403.698C931.844 421.429 924.574 439.629 917.674 457.929C910.524 476.868 904.294 496.158 897.674 515.288C891.594 532.853 884.332 550.194 877.139 567.359L876.004 570.068C860.734 606.549 842.494 640.908 817.074 671.368C812.884 676.398 806.114 669.259 809.984 664.278C836.574 629.998 855.074 589.549 870.344 549.198C877.294 530.839 883.114 512.038 889.794 493.578L893.769 482.612C899.077 467.993 904.43 453.393 910.014 438.889C917.084 420.538 924.854 402.408 933.744 384.868L934.688 383.021C943.391 366.1 953.732 349.423 967.964 336.618C993.582 313.559 1027.67 308.027 1060.63 303.646L1071 302.279C1084.93 300.428 1098.9 298.384 1112.45 294.658C1120.27 292.519 1127.91 289.778 1135.09 285.998C1137.95 284.498 1140.74 282.849 1143.44 281.049C1135.74 283.309 1127.93 285.158 1119.98 286.608C1116.09 287.318 1112.24 287.849 1108.4 288.219C1098.51 289.198 1088.7 289.158 1078.57 288.629C1077.71 288.578 1077.43 287.229 1078.35 287.059C1085.41 285.804 1092.47 284.235 1099.51 282.533L1101.61 282.018C1101.65 280.849 1102.11 279.608 1103.07 278.429C1106.57 274.169 1113.22 271.988 1117.83 268.978C1122.66 265.828 1127.34 262.429 1131.8 258.788C1135.88 255.459 1139.8 251.938 1143.57 248.258C1133.39 252.959 1123.74 258.988 1113.11 262.709C1104.66 265.678 1095.8 267.678 1086.86 268.388L1086.31 268.432L1085.75 268.468C1076.42 269.138 1067.03 268.868 1057.84 270.888C1056.81 271.118 1056.49 269.738 1057.41 269.348C1065.44 266.008 1073.79 264.718 1082.23 263.158C1082.41 262.498 1082.87 261.908 1083.67 261.528L1085.83 260.497C1092.26 257.409 1098.26 254.291 1103.6 249.278C1108.32 244.848 1112.25 239.669 1115.2 233.928C1103.39 236.518 1093.02 245.468 1082.28 250.498C1070.58 255.988 1058.2 259.928 1045.48 262.169L1044.04 262.417C1020.26 266.382 991.68 265.877 970.385 253.518C969.705 253.118 970.195 252.209 970.895 252.318C976.935 253.308 982.915 254.478 988.895 255.518C987.724 254.448 987.204 252.528 988.554 250.988C993.925 244.833 998.173 237.798 1000.89 230.1L1001.41 228.595C1001.46 228.431 1001.52 228.262 1001.58 228.09C1002.84 224.519 1004.67 219.331 1002.61 216.258C1000.55 213.188 995.704 213.608 992.804 214.908C986.774 217.628 982.764 224.419 977.684 228.518C972.144 232.998 965.844 236.318 959.394 239.288L958.032 239.907C946.876 244.925 934.956 249.15 926.184 258.008C921.464 262.768 917.404 268.718 916.044 275.388C915.424 278.448 915.424 281.598 916.244 284.628C916.439 285.339 916.698 285.968 916.944 286.566C917.518 287.96 918.02 289.182 917.474 290.868C916.454 293.978 912.844 297.698 910.984 300.468C908.824 303.669 906.674 306.878 904.524 310.088C900.234 316.508 895.964 322.948 891.694 329.378C883.154 342.258 874.704 355.198 866.324 368.178C863.598 372.405 860.88 376.636 858.171 380.871L854.115 387.228L854.04 387.346L854.115 387.228L854.155 388.178C854.305 391.548 852.285 393.448 849.835 393.938L848.315 396.327C848.445 396.858 848.435 397.418 848.265 397.907C847.641 399.683 846.474 400.897 845.023 401.777L844.764 401.928C823.424 435.658 802.424 469.608 781.214 503.419C780.084 513.738 779.024 524.068 778.104 534.398C776.014 557.778 774.584 581.219 774.124 604.688C773.964 612.986 774.406 621.321 774.847 629.634C775.01 632.703 775.172 635.768 775.304 638.828C775.544 644.245 775.873 649.656 776.302 655.064L776.617 658.898C777.04 664.167 777.279 669.397 775.384 674.419C773.704 678.828 768.584 679.818 765.554 676.459C726.025 674.868 686.465 673.658 646.905 672.908C576.095 671.548 505.255 671.758 434.435 673.128C398.865 673.818 363.285 674.788 327.725 675.988C310.205 676.568 292.675 677.388 275.145 677.628C265.7 677.757 250.835 674.318 250.073 663.692L250.055 663.368C248.875 663.688 247.655 663.948 246.405 664.138C245.848 664.224 245.314 664.199 244.82 664.084L244.575 664.019C232.232 667.78 217.024 663.539 204.447 660.031C202.677 659.538 200.959 659.059 199.309 658.619L198.205 658.328C185.435 654.998 175.175 650.238 166.805 639.658C152.155 621.129 147.155 596.248 144.555 573.318C142.115 551.738 141.975 529.759 144.945 508.219C143.195 490.669 144.905 472.559 146.895 455.108C147.875 446.478 149.025 437.858 150.405 429.278C151.175 424.488 152.185 419.748 153.215 415.018C153.626 413.128 153.968 411.093 154.49 409.126L154.725 408.288C153.125 408.498 151.375 408.148 149.685 407.219C145.665 405.009 144.495 400.538 144.425 396.259C144.22 384.277 145.534 371.978 146.812 360.016C146.91 359.098 147.008 358.182 147.105 357.269C148.475 344.469 150.355 331.618 152.815 318.978L153.451 315.719C155.315 306.264 157.448 296.503 161.205 287.618C147.095 285.219 133.025 282.669 119.335 278.328C112.655 276.198 106.075 273.549 99.7948 270.318ZM76.7444 254.219C77.4244 254.858 78.1144 255.498 78.8048 256.108C74.3249 254.328 69.9148 252.388 65.6049 250.188C52.9748 243.738 41.3048 235.448 31.6748 224.988C26.9248 219.838 22.7848 214.198 19.3548 208.088C17.2548 204.368 11.0448 191.928 18.5547 191.299C19.0947 191.248 19.7147 191.259 20.4147 191.349C26.9547 192.169 33.2147 197.719 38.8547 200.799C45.0847 204.209 51.5047 207.219 58.0747 209.898C63.9847 212.309 69.9948 214.568 76.0847 216.568L76.5197 216.712L76.9548 216.849C86.7048 220.038 96.6847 222.608 106.775 224.219C106.975 224.248 107.135 223.979 106.925 223.868C91.0747 215.959 74.0648 210.648 58.0447 203.118C49.9847 199.339 42.0747 195.299 34.5047 190.608C30.1447 187.908 24.9347 184.559 19.5547 184.419L19.0052 183.741C18.6867 183.353 18.3334 182.926 17.9534 182.467C12.6862 176.107 2.31046 163.578 9.12455 160.158C15.7195 156.844 23.3564 166.427 27.9968 172.251C28.8306 173.297 29.5677 174.222 30.1845 174.929L30.7569 175.58C42.2591 188.576 57.1065 199.56 73.4246 205.648C73.7945 205.778 73.9645 205.248 73.6845 205.049C72.6245 204.299 71.5745 203.549 70.5246 202.788L71.5406 203.19C72.8897 203.719 74.2145 204.216 75.4946 204.688C82.4345 207.258 89.5746 209.287 96.8245 210.718L96.9911 210.751C103.537 212.031 110.16 213.325 116.745 211.787C119.165 211.218 118.765 208.008 116.745 207.268C111.505 205.338 106.025 205.088 100.565 204.098C95.1046 203.108 89.7045 201.778 84.4146 200.098C75.6245 197.318 63.9445 193.738 58.1345 186.018C55.7645 182.868 54.8245 178.968 56.4045 175.218C58.6245 169.948 63.1845 170.918 67.6545 172.658L68.9836 173.175C78.73 176.936 88.4815 180.074 98.7545 182.188C129.335 188.488 162.465 187.908 192.855 196.098C203.485 198.948 213.785 202.878 223.515 208.548C237.105 216.458 248.835 227.488 256.915 240.878C257.245 247.528 257.535 254.028 258.495 260.638C259.207 265.557 260.041 270.453 260.903 275.344L262.465 284.148C265.095 299.108 268.265 313.988 271.205 328.898C277.085 358.728 282.985 388.568 287.325 418.668C295.645 476.278 297.465 535.218 282.795 591.997C277.135 613.938 269.475 635.678 252.605 650.609L252.595 650.618C251.951 650.867 251.311 651.118 250.673 651.367C243.376 654.223 236.409 656.95 228.225 656.059C218.635 655.009 209.035 651.538 199.735 649.089L199.172 648.939C188.892 646.171 180.851 642.352 174.065 633.759C160.759 616.919 155.849 593.448 153.297 572.524L153.115 570.998C150.525 548.868 150.415 526.068 153.945 504.038C159.225 471.059 171.055 439.658 181.365 408.028L181.973 406.163L182.921 403.221C192.481 373.386 200.96 342.17 198.915 310.778C199.595 309.998 199.955 308.899 199.775 307.469C199.455 305.028 198.815 302.689 197.865 300.519C197.535 298.179 195.725 296.669 195.725 296.669C193.845 293.939 191.355 291.618 188.265 289.889C185.085 288.109 180.275 286.618 176.055 286.969C172.265 285.769 160.824 282.575 160.824 282.575C141.037 277.273 120.89 272.806 102.884 263.209C100.224 261.799 97.6144 260.278 95.0645 258.618C83.9445 251.408 71.9445 240.509 67.7344 227.488L67.681 227.324C67.6242 227.152 67.5672 226.988 67.5127 226.832C67.0535 225.513 66.7759 224.715 68.3244 224.179C69.2345 223.853 70.5878 224.18 71.7215 224.511L73.657 225.082C77.1999 226.162 80.5245 227.737 83.7445 229.538C89.8145 232.929 95.4344 237.038 101.374 240.618C115.714 249.268 132.244 250.429 147.864 255.698C150.314 256.528 151.614 253.379 150.194 251.698C144.544 245.038 135.764 244.009 127.664 242.408L126.852 242.244C118.223 240.459 110.841 237.409 103.364 232.639C96.4645 228.238 89.8745 223.248 82.4044 219.818C80.6844 219.018 78.7544 218.179 76.7544 217.478C76.4644 217.379 76.1744 217.278 75.8845 217.188C71.4044 215.738 66.5644 215.139 62.5444 217.528C55.8158 221.522 59.3316 229.419 62.1948 234.963L63.1199 236.723C66.6353 243.228 71.383 249.147 76.7444 254.219ZM205.315 227.509C211.285 228.038 217.135 229.309 222.715 231.509L223.253 231.719C227.38 233.312 233.415 235.314 234.765 239.719C235.145 240.969 234.125 241.998 232.955 242.099C230.035 242.333 226.776 240.377 223.712 238.537C222.073 237.553 220.49 236.602 219.045 236.038C214.425 234.238 209.585 232.898 204.685 232.188C193.675 230.578 182.195 231.799 171.835 235.809C171.225 236.049 170.845 235.078 171.395 234.788C181.835 229.108 193.445 226.459 205.315 227.509ZM835.615 404.738C835.825 404.678 836.035 404.618 836.254 404.568C822.164 427.158 808.364 449.928 794.874 472.879C790.444 480.408 786.204 488.028 782.064 495.709L782.601 490.894C785.297 466.82 788.132 442.759 790.045 418.618C799.175 414.328 808.775 411.568 818.595 409.098C824.275 407.658 829.975 406.318 835.615 404.738ZM158.165 406.959C158.186 409.001 157.888 411.101 157.599 413.136C157.482 413.96 157.367 414.773 157.275 415.568C156.755 420.049 156.335 424.549 155.805 429.028C154.725 438.028 153.805 447.038 153.135 456.078C152.705 461.849 152.425 467.639 152.175 473.429C157.845 452.238 165.355 431.509 172.495 410.748C171.301 410.622 170.081 410.33 168.823 409.996L166.704 409.426C165.455 409.104 161.402 408.107 158.165 406.959Z" transform="translate(-88.75005 5.250063)" fill="#000000" fill-rule="evenodd" stroke="none"></path></g><g transform="translate(225 0)"><g><g><path d="M333.415 93.2216C329.554 69.8624 342.226 65.0158 333.415 42.8109C313.833 1.66731 260.468 3.44007 221.308 0.276637C177.63 -1.39736 133.422 4.36885 93.1557 21.875C83.5377 26.056 74.2867 30.9732 65.4187 36.5599C57.7507 41.3913 58.8047 50.5773 63.6397 55.5884C28.7747 104.96 48.7157 171.232 20.8967 223.202C15.7577 232.491 8.96066 240.821 4.49366 250.487C-2.29634 265.18 -2.73134 286.233 12.6667 295.99C34.3537 307.631 46.4557 284.584 57.1117 317.993C110.33 434.483 217.329 441.044 318.905 380.31C327.693 375.422 336.662 369.897 343.298 362.217C358.361 345.266 356.587 321.428 356.92 300.259C357.106 287.854 357.137 275.447 357.016 263.039C356.542 212.781 339.885 143.065 333.415 93.2216Z" transform="translate(52 80)" fill="#FFFFFF" stroke="none"></path><path d="M328.858 2.05735C261.958 -4.86265 192.397 5.68736 131.067 33.5074C98.6176 48.2274 68.8166 68.4874 42.6976 92.7374C37.9276 91.3974 32.7076 91.1174 28.3676 91.8674C21.2676 93.0974 14.7676 97.1574 10.5076 102.957C4.02762 111.757 4.25762 122.977 9.17762 131.897C8.39662 132.526 7.67762 133.247 7.01762 134.026C1.82762 140.217 2.36762 148.207 6.17762 154.977C7.24342 156.875 9.16081 158.976 11.1901 161.199C15.3299 165.734 19.9355 170.779 18.7276 175.657C17.9176 178.967 14.9776 182.067 13.2676 184.977C11.1376 188.597 9.33762 192.377 7.73762 196.257C-4.71818 226.333 -0.00202393 258.647 7.02466 289.34L7.65708 292.088C9.04719 298.235 10.3267 305.444 12.6176 312.087C-4.37238 335.487 -0.292376 375.167 27.4976 388.417C34.3276 391.677 41.9276 393.517 49.5176 393.267C53.4776 393.127 57.6076 392.587 61.3576 391.287C63.2276 390.637 65.0776 389.807 66.5276 388.477C70.0076 406.887 77.9576 423.847 87.9476 439.797C93.5776 448.767 100.108 457.727 107.668 465.177C115.658 473.037 129.448 480.717 139.189 471.047C142.508 467.757 141.439 462.647 137.788 460.207C130.948 455.607 123.708 452.787 117.668 446.937C110.948 440.427 104.588 433.397 98.5876 426.227C90.0312 416.005 82.5119 404.857 75.1567 393.666L69.1576 384.517C69.171 384.487 69.1821 384.457 69.1921 384.427L69.2476 384.237C69.2636 384.143 69.2788 384.052 69.2933 383.963L69.4386 383.026C69.4725 382.954 69.5155 382.863 69.5663 382.753L69.8076 382.207C71.6466 378.677 69.3576 374.617 65.3576 374.446C64.0719 374.446 63.8943 374.407 64.8177 374.321L65.1976 374.287C63.8276 373.487 62.3476 373.087 60.7476 373.087C58.8776 373.087 57.0976 373.727 55.3076 374.167C52.6676 374.817 50.3166 375.276 47.5976 375.267C42.0176 375.247 36.6376 373.637 31.9276 370.667C21.0476 363.807 17.9076 349.097 19.6676 337.057C20.1676 333.647 20.9876 330.427 22.1576 327.427C23.6076 328.657 25.2276 329.707 27.0376 330.557C27.3076 330.687 27.5276 330.317 27.2776 330.147C25.5076 329.007 23.9876 327.647 22.6886 326.127C25.9476 318.507 31.4576 312.337 39.2876 308.007C44.2276 305.276 49.8076 303.977 55.2976 304.167C55.3166 304.327 55.3476 304.487 55.3776 304.647C55.9783 307.776 57.4624 309.353 59.6223 311.246L60.3966 311.917C63.3476 314.437 67.1276 314.207 69.5076 311.837L69.5666 311.917C70.3276 311.167 70.9776 310.467 71.5376 309.776C72.6466 310.607 73.6976 311.537 74.6886 312.567C75.0576 312.946 75.6776 312.457 75.4276 311.997C74.6466 310.587 73.7676 309.257 72.7876 308.026C74.0576 305.907 74.5476 303.667 74.5576 300.387C74.5642 297.003 74.4699 293.608 74.3758 290.218C74.3414 288.98 74.307 287.743 74.2776 286.507C74.0666 277.577 73.6076 268.647 73.2576 259.717C73.1717 257.481 72.9894 255.167 72.8046 252.821C72.3654 247.245 71.9123 241.493 72.7076 236.207C73.3663 231.834 76.0088 230.809 79.648 229.747L84.3783 228.38C95.5003 225.123 106.766 221.046 109.178 207.897C110.675 199.71 108.189 192.058 105.694 184.378C103.907 178.879 102.116 173.364 101.778 167.627C101.058 155.577 104.758 143.307 111.608 133.337C118.248 135.057 124.858 136.887 131.608 138.237C140.948 140.117 150.317 141.797 159.718 143.317C178.189 146.307 196.718 148.696 215.388 150.087C252.808 152.867 290.508 151.467 327.628 145.877C332.908 145.087 338.168 144.157 343.388 143.007C343.358 143.897 343.317 144.797 343.268 145.696C342.978 150.717 342.838 155.707 342.828 160.727C342.658 162.037 342.698 163.457 342.939 165.007L343.218 166.817C343.418 168.077 343.918 169.227 344.658 170.237C346.439 198.037 350.189 225.687 353.758 253.327L354.608 259.939C358.846 293 362.863 326.098 366.238 359.257C366.538 362.197 366.894 365.184 367.254 368.201C368.86 381.673 370.537 395.733 367.588 408.797C364.668 421.767 356.388 431.847 346.078 439.907C321.848 458.877 291.468 471.398 261.888 479.077C246.048 483.187 228.918 487.287 212.468 487.097C206.578 487.026 200.328 486.317 194.939 483.776C190.335 481.617 187.444 477.727 184.805 473.541L184.298 472.727C182.098 469.177 175.678 469.377 174.788 473.967C172.138 487.557 184.439 496.017 196.168 499.297C209.517 503.032 223.421 501.296 236.916 499.236L239.248 498.877C274.208 493.457 307.478 481.776 339.088 466.087C353.078 459.147 366.088 449.797 375.628 437.317C386.258 423.397 389.548 406.927 388.618 389.677C387.578 370.667 384.578 351.607 382.178 332.737L381.43 326.903C379.178 309.4 376.826 291.908 374.198 274.457C369.168 241.026 363.718 207.397 354.698 174.776C354.897 174.757 355.098 174.737 355.298 174.707C360.998 173.847 364.358 169.497 364.848 163.887L365.768 153.357L366.267 153.389C382.813 154.407 404.315 152.364 411.948 135.227C414.608 129.257 415.278 122.627 414.038 116.637C425.078 113.776 435.328 107.807 443.228 99.5574C447.328 95.2764 447.038 89.0874 443.228 84.7474C440.968 82.1574 438.558 79.8374 436.018 77.7574C443.228 75.1964 449.988 70.3974 453.748 63.7074C458.588 55.0974 456.689 44.5574 449.918 37.5874C444.1 31.5899 435.848 28.6654 428.193 25.719L425.475 24.6686C394.464 12.7839 361.878 5.46756 328.858 2.05735ZM54.9381 328.377C45.4381 327.567 37.7381 330.787 30.7671 336.937C30.0781 337.537 30.8371 338.477 31.5971 338.347C38.5071 337.127 46.6771 338.497 53.2781 340.627C60.6271 343.007 64.5781 348.007 70.4981 352.437C76.9981 357.297 86.0281 347.807 81.5971 341.337C75.9881 333.147 64.4881 329.196 54.9381 328.377Z" transform="translate(37.99998 0.0003450957)" fill="#000000" fill-rule="evenodd" stroke="none"></path></g></g><g transform="translate(159 186)"><g><path d="M41.4494 4.01602L43.4942 3.23283C50.5004 0.586187 60.1193 -2.47302 65.8154 3.22402C69.3294 6.73702 69.9984 11.912 67.4904 16.199C64.4514 21.392 59.0004 21.52 53.7364 22.285C47.7494 23.155 41.6604 24.809 36.0864 27.167C29.8074 29.824 23.9804 33.136 18.2714 36.835C12.8454 40.35 7.43842 46.095 0.943418 47.178C0.678418 47.222 0.377418 47.108 0.308418 46.817C-1.16658 40.467 2.93242 34.218 6.59042 29.264C11.0164 23.266 16.3794 18.343 22.3734 13.929C28.1584 9.66802 34.7684 6.58902 41.4494 4.01602ZM169.341 26.4832L168.717 26.5926C162.076 27.8106 155.56 29.3316 148.826 30.0316C141.935 30.7466 135 31.2656 128.076 31.4636C126.406 31.5116 124.603 31.4546 122.749 31.396C117.994 31.2457 112.907 31.0848 108.891 32.6576C107.515 33.1966 106.852 34.8626 108.002 36.0266C111.201 39.2657 116.243 40.58 120.647 41.838L123.074 42.5416C128.35 44.0237 133.815 44.9635 139.231 45.7316C151.069 47.4096 164.116 47.7756 175.895 45.5596C179.384 44.9036 181.788 41.7226 182.863 38.5916C184.028 35.1976 183.086 31.8706 180.642 29.3036C177.44 25.9388 173.59 25.7759 169.341 26.4832ZM38.072 56.8927C42.707 49.9387 53.287 50.9627 55.84 59.2147C56.6948 61.9774 56.2916 64.5675 55.8824 67.197C55.6295 68.8218 55.3742 70.4617 55.412 72.1667C55.495 75.9377 55.248 80.1397 54.092 83.7917C51.456 92.1197 43.966 98.0017 35.105 97.7577C26.273 97.5147 18.494 91.9247 14.795 84.0517C11.083 76.1487 11.869 67.9697 14.579 59.9337C14.709 59.5477 15.215 59.3607 15.52 59.6857C18.7234 63.0899 21.0684 66.6836 23.4948 70.4959L25.9814 74.4029C27.8818 77.3449 30.6436 81.1033 34.192 80.8672L34.7244 80.8147C35.1533 80.7778 35.3671 80.7941 35.5343 80.7136C35.7515 80.609 35.8902 80.3412 36.32 79.5817C36.672 78.9597 36.608 77.8037 36.778 77.0697L36.837 76.8217L36.8049 76.6881C36.7298 76.3326 36.6553 75.6628 36.5948 74.5004L36.582 74.2437C36.5312 73.1692 36.4304 72.0342 36.3268 70.8665C35.9058 66.1255 35.437 60.846 38.072 56.8927ZM171.394 57.2342C167.237 50.6532 154.733 52.6282 155.564 61.5222C156.092 67.1692 159.584 70.7392 160.987 75.9872C162.075 80.0522 160.446 82.3812 156.182 81.8332C151.725 81.2602 148.784 77.5842 146.845 73.8122C144.965 70.1552 144.45 65.0352 141.288 62.2282C141.011 61.9822 140.607 62.0232 140.405 62.3422C137.059 67.6052 139.798 77.4572 142.553 82.5032C145.643 88.1582 151.505 91.8832 157.93 92.3772C164.658 92.8932 170.895 89.6352 173.763 83.4722C175.584 79.5592 175.389 75.1952 174.897 71.0002L174.673 69.0616C174.193 64.9772 173.562 60.6661 171.394 57.2342ZM128.749 115.04C136.872 103.66 125.366 92.9573 117.815 88.3673C115.836 86.9473 117.407 82.2435 121.634 82.9705C160.031 89.5675 140.136 155.708 91.1125 119.413C85.276 114.705 92.344 104.334 98.6347 108.366C98.9537 108.611 99.2882 108.869 99.6369 109.139C106.705 114.603 119.636 124.601 128.749 115.04ZM113.944 165.352C115.478 162.685 119.01 160.214 122.242 160.593C136.721 162.291 136.696 179.845 131.105 190.093C126.148 199.18 115.889 204.514 105.621 203.735C94.8343 202.916 85.6433 196.574 81.5983 186.483C78.9233 179.808 77.6873 167.485 84.8033 163C84.9353 162.916 85.1533 162.937 85.2583 163.058C88.6703 167.027 88.8043 172.986 91.7913 177.405C94.5693 181.515 98.8853 184.909 103.941 185.433C107.717 185.825 111.537 184.463 113.014 181.073C113.813 179.239 113.722 178.244 113.422 176.982L113.149 175.885C112.203 172.044 111.779 169.119 113.944 165.352Z" transform="translate(52.99948 55.99989)" fill="#000000" fill-rule="evenodd" stroke="none"></path></g></g><g transform="translate(123 338)"><g><path d="M212.043 152.834C212.043 152.834 167.653 159.357 147.783 150.138C127.973 140.949 108.703 132.057 90.7328 119.884C72.3228 107.413 56.7028 92.6033 45.5528 73.6462C35.1828 56.0075 26.5628 37.291 17.8828 18.7189C17.3755 17.6336 12.3928 6.84431 10.6328 3.22611C7.92276 -2.38401 0.00276151 -0.623038 0.00276151 8.08566C0.00276151 16.7944 -0.387239 82.7459 14.8328 108.689C28.5628 132.121 51.8328 148.493 74.9528 162.783C100.533 178.584 134.513 195.664 165.033 200.177C192.653 204.257 224.173 192.797 244.173 173.907C265.083 154.151 271.003 127.312 281.793 101.609C284.203 95.8646 275.659 92.3999 273.153 98.0498C268.433 108.689 212.043 152.834 212.043 152.834Z" transform="translate(-2.482762 -14.77045)" fill="#000000" stroke="none"></path></g></g><g transform="translate(47 241)"></g></g></g></svg>