<?xml version="1.0" standalone="no"?>
<svg viewBox="-305 -150 1500 1500" style="width: 195px; height: 195px; justify-content: center; align-self: center; transform: scale(1, 1);" xmlns="http://www.w3.org/2000/svg"><g transform="rotate(0 508.56451416015625 563.259651184082)"><g transform="translate(0 459)"><path d="M401.402 0.182979C430.534 1.6206 475.894 14.1097 478.162 22.0917C481.703 34.5555 474.094 81.283 486.821 106.452C492.246 117.181 512.849 116.219 520.831 119.714C547.541 131.405 626.612 153.578 642.916 181.497C649.447 192.683 689.587 331.472 710.915 402.279C713.32 410.262 716.036 417.645 718.988 424.483L720.073 419.169C728.77 376.374 733.118 350.466 733.118 341.447C733.118 327.354 721.876 267.895 733.118 252.774C744.247 237.805 771.068 225.565 783.135 225.321L783.496 225.318C791.419 225.318 798.294 222.841 804.121 217.888L812.663 213.592C856.122 191.784 881.513 179.822 888.835 177.706C900.519 174.328 920.405 181.524 910.462 192.328C903.833 199.531 887.177 212.273 860.492 230.553L850.43 238.548L851.646 239.183C864.65 246.029 872.295 251.791 874.584 256.469C876.943 261.291 875.811 266.995 871.188 273.581L871.89 274.265C877.735 280.001 880.657 283.849 880.657 285.808L880.657 295.379C886.472 303.895 887.926 310.997 885.019 316.685C882.111 322.374 877.501 327.303 871.188 331.472C866.537 343.708 860.997 352.417 854.57 357.598C848.143 362.779 837.035 367.092 821.246 370.538L806.958 404.7L795.381 452.694L789.547 506.247L791.241 507.474C799.092 513.192 804.121 517.431 804.121 521.811C804.121 528.635 772.444 689.113 723.16 696.296C712.502 697.849 657.225 690.23 639.076 675.466L639.343 677.061C643.614 702.854 642.71 716.248 636.633 717.244C561.946 729.489 349.829 733.272 0.28247 728.594C-1.79718 543.072 7.60656 419.518 28.4937 357.93C81.9137 200.417 140.812 146.618 161.417 142.01C179.466 137.974 242.055 113.064 259.551 106.452C270.972 102.136 273.419 89.1966 286.433 89.1966L287.485 89.2019C300.072 89.3283 311.233 91.5792 317.504 85.1062C333.96 68.1191 329.36 44.6057 336.187 22.0917C339.948 9.68675 365.653 -1.58116 401.402 0.182979Z" transform="translate(55.50383 -39.09181)" fill="#FFFFFF" stroke="none"></path><path d="M329.87 2.57124C331.58 -0.81676 336.119 -0.37776 339.114 1.15924C345.987 6.18396 342.099 14.8162 338.78 22.1837C337.762 24.445 336.797 26.5872 336.213 28.4692C329.821 44.0132 318.719 59.2042 303.393 66.4692C304.663 81.9212 306.102 97.3392 306.633 112.839C326.228 137.144 359.265 146.015 388.592 152.837C434.653 165.575 486.637 139.477 502.183 93.9482C484.49 83.8952 478.764 57.5732 484.043 39.2092C484.502 37.9192 486.502 37.3492 487.213 38.7892C492.058 48.7542 491.412 60.9112 496.92 70.7562C549.788 75.8172 618.018 95.7652 652.653 138.519C668.002 159.909 674.082 187.729 681.642 212.519C697.772 263.627 710.624 315.769 726.443 366.929L728.308 357.249C733.419 330.583 738.063 303.556 734.611 276.438L734.549 275.141C734.368 271.673 734.042 267.727 733.691 263.485C731.858 241.334 729.358 211.124 743.403 198.897C758.54 187.33 780.468 178.035 799.463 183.367C833.266 168.325 862.442 142.995 898.443 133.129C909.523 130.849 925.463 133.549 922.844 148.58C915.586 174.869 885.191 185.073 864.413 198.629C877.732 202.238 893.969 218.435 883.563 232.559C883.473 232.809 883.393 232.999 883.313 233.149C891.752 236.889 892.934 246.289 890.863 254.349C890.755 255.442 890.555 255.492 890.555 255.543C890.555 255.556 890.569 255.569 890.601 255.601C890.686 255.684 890.901 255.896 891.344 256.579C900.866 265.559 896.657 290.592 882.313 291.438C883.252 303.299 875.633 314.819 865.983 321.289C855.582 328.259 840.543 328.559 831.932 338.099C811.715 373.747 804.741 415.831 802.537 456.653C815.864 461.641 827.821 476.558 815.713 489.213C815.474 489.241 815.235 489.269 814.993 489.289C807.974 508.02 805.264 527.987 801.552 547.549C795.841 580.928 780.958 611.575 761.953 639.381C739.975 676.188 680.876 670.353 651.103 646.599C651.131 648.044 651.207 649.488 651.283 650.927C651.536 655.695 651.786 660.423 650.253 665.048C647.307 671.547 640.124 668.739 639.413 662.339C623.674 671.19 619.967 641.974 637.463 646.608C636.117 625.487 635.337 604.336 634.704 583.179C614.896 589.59 614.042 556.728 634.303 563.299L634.279 554.214C634.13 484.552 634.9 414.652 644.093 345.539C644.943 340.369 646.383 335.369 647.223 330.229C647.313 329.698 648.143 329.849 648.146 330.358C648.68 366.619 648.125 402.908 647.57 439.209L647.57 439.213C646.644 499.774 645.718 560.36 649.843 620.879C655.336 622.553 657.526 628.856 661.593 632.528C670.622 640.864 682.918 644.923 694.942 646.337C728.612 651.058 743.149 640.775 758.143 611.509C751.38 616.029 742.242 608.048 746.364 600.896L746.493 600.679C750.774 593.1 762.863 597.642 761.332 606.129C776.407 581.989 784.297 554.768 790.124 527.149L790.912 523.85C793.745 512.124 797.421 498.688 804.223 488.079C762.741 477.507 722.163 445.296 715.672 401.103C705.14 434.192 690.872 466.537 677.273 498.719C673.073 509.909 671.323 521.938 665.303 532.319C663.903 534.719 660.353 534.099 659.561 531.568C655.479 513.318 663.801 495.74 671.793 478.856C674.402 473.346 676.975 467.91 679.071 462.548C686.027 450.233 705.993 393.996 718.372 393.86C704.462 332.892 685.909 272.38 668.24 212.171C651.155 130.873 616.338 115.196 542.58 89.5992C547.055 112.404 556.898 134.963 566.76 157.568C586.217 202.165 605.752 246.94 584.303 294.129L583.517 295.973C580.211 303.814 577.465 311.714 579.773 320.319C582.013 328.669 587.113 335.919 591.194 343.429C610.947 380.168 601.817 422.248 593.288 461.558C591.969 467.638 590.664 473.652 589.483 479.569C578.343 531.376 567.338 583.231 555.823 634.959C553.553 645.278 552.082 655.909 548.653 665.909C546.883 671.069 538.053 670.579 538.624 664.559C539.713 652.879 542.993 641.489 545.395 630.019C559.733 555.759 579.134 482.374 591.47 407.789C596.048 375.937 587.588 359.637 579.833 344.697C574.146 333.739 568.839 323.513 569.332 308.419C570.91 301.638 573.454 295.128 575.995 288.627C580.291 277.635 584.577 266.666 584.172 254.449C585.537 221.928 573.212 192.517 560.877 163.082C550.639 138.65 540.394 114.203 537.966 87.9482L528.516 84.5772C523.793 82.8865 519.075 81.182 514.372 79.4372C539.127 252.562 531.61 429.469 519.235 603.449C518.452 605.936 518.142 613.031 517.773 621.495C516.949 640.359 515.829 666.015 508.513 662.579C507.978 665.713 506.313 668.794 502.693 668.778C469.823 669.079 436.943 669.599 404.073 669.991C398.893 669.514 393.076 669.841 387.124 670.176C374.91 670.862 362.124 671.581 353.082 665.448C337.555 661.017 335.77 618.967 331.619 603.979L330.001 593.079C303.617 414.97 280.006 233.186 298.971 53.3132C272.585 54.3272 267.139 82.8042 265.182 103.538C260.289 149.301 230.721 188.711 229.303 234.999C229.183 246.229 231.303 257.108 235.792 267.419C237.675 271.414 239.776 275.507 241.917 279.679C253.316 301.892 265.866 326.347 252.905 350.1C234.815 371.923 236.255 377.77 242.827 404.467L242.955 404.988C261.752 494.72 292.968 580.985 322.663 667.501C317.14 696.289 287.903 608.94 277.311 577.298C275.531 571.979 274.278 568.234 273.752 566.879C256.573 575.517 247.189 546.851 266.893 544.809C254.237 502.447 242.59 459.768 232.893 416.619L232.636 415.403C232.057 412.707 231.402 409.949 230.738 407.15C226.488 389.256 221.852 369.731 234.155 354.438C255.279 333.076 244.04 310.266 232.172 286.178C223.428 268.432 214.343 249.993 217.603 230.929C210.967 235.849 200.922 230.673 201.073 222.409C200.772 213.105 213.27 208.339 219.284 215.438C225.468 178.975 246.98 147.143 253.49 110.787L253.784 109.079C255.99 96.2302 256.612 82.7102 262.923 70.9992C254.332 76.5792 245.183 81.0892 235.773 85.0692C252.598 99.1222 220.017 111.948 222.713 90.2392C130.445 116.933 109.59 154.159 75.7132 239.649C82.0412 233.501 92.8812 241.457 89.0932 249.298C86.0712 257.558 72.8882 255.143 72.8932 246.339L71.3491 250.021C50.8065 299.14 32.1093 349.452 22.7132 402.019C41.1452 399.417 36.4522 428.874 19.7522 420.569C13.0502 467.319 12.9442 514.731 13.7632 561.858C29.3102 553.706 29.7782 581.408 13.9132 573.509C14.4932 612.129 15.3432 650.749 15.9832 689.369C16.1132 697.589 3.43318 697.549 3.23318 689.369C2.8868 675.491 2.47381 661.606 2.06071 647.718C0.707513 602.226 -0.646759 556.696 0.336176 511.22C-0.870824 408.194 28.7472 308.894 72.8772 216.604C111.924 110.339 165.86 98.2542 265.093 67.3582C274.253 53.7612 293.823 40.9012 309.79 49.4392C318.723 35.0192 323.26 17.9352 329.87 2.57124ZM565.743 115C564.833 114.759 563.924 114.759 563.014 115C561.653 115.059 560.384 115.469 559.204 116.219C559.113 116.269 559.034 116.32 558.943 116.359C555.853 118.049 553.943 121.599 553.943 125.07C553.943 128.54 555.853 132.08 558.943 133.769L559.204 133.92C560.023 134.259 560.844 134.599 561.653 134.949C563.014 135.38 564.384 135.439 565.743 135.13C566.663 135.13 567.534 134.9 568.333 134.429C569.603 134.019 570.693 133.309 571.624 132.309L571.953 131.985C572.807 131.117 573.428 130.114 573.804 128.96C574.434 127.759 574.724 126.46 574.674 125.07L574.313 122.38C573.833 120.67 572.964 119.179 571.714 117.92C571.684 117.88 571.653 117.849 571.624 117.82L569.554 116.219C568.374 115.469 567.103 115.059 565.743 115ZM903.473 141.528C913.348 139.548 917.174 145.245 910.603 153.249C895.953 174.622 866.692 178.497 849.023 195.419C839.284 195.788 829.307 198.622 821.502 204.549C817.592 197.001 812.474 190.386 805.592 186.162C822.271 178.047 839.122 170.924 855.473 162.288C870.454 154.579 886.463 143.829 903.473 141.528ZM192.734 142.494L193.083 142.499C195.073 142.509 196.923 143.009 198.643 144.009C199.383 144.58 200.124 145.15 200.863 145.73C202.233 147.099 203.173 148.719 203.704 150.589L204.093 153.509C204.153 155.029 203.833 156.439 203.143 157.749C202.704 159.12 201.943 160.299 200.863 161.299C199.874 162.37 198.693 163.129 197.323 163.57C196.013 164.259 194.603 164.58 193.083 164.519C191.093 164.519 189.243 164.019 187.523 163.019C186.784 162.449 186.044 161.87 185.294 161.299C183.933 159.919 182.993 158.299 182.463 156.439L182.073 153.509C182.013 151.999 182.333 150.58 183.023 149.269C183.463 147.91 184.223 146.719 185.294 145.73C186.294 144.65 187.473 143.889 188.843 143.449C190.052 142.812 191.347 142.499 192.734 142.494ZM598.583 153.329L598.279 153.325C597.371 153.334 596.514 153.546 595.714 153.969C594.794 154.269 593.993 154.778 593.313 155.509C592.594 156.179 592.073 156.98 591.773 157.909C591.304 158.799 591.094 159.749 591.134 160.778L591.403 162.759L591.496 163.071C591.861 164.201 592.469 165.197 593.313 166.049C593.813 166.439 594.323 166.829 594.823 167.209C595.983 167.889 597.243 168.23 598.583 168.23C599.613 168.269 600.573 168.059 601.454 167.589C602.384 167.289 603.183 166.778 603.853 166.049C604.583 165.369 605.094 164.569 605.393 163.65C605.863 162.759 606.073 161.809 606.044 160.778L605.773 158.799C605.424 157.539 604.784 156.439 603.853 155.509C603.353 155.119 602.853 154.73 602.344 154.339C601.183 153.669 599.933 153.329 598.583 153.329ZM134.284 179.82C136.066 179.828 137.735 180.247 139.3 181.083L139.633 181.269L141.773 182.929C142.813 183.889 143.543 185.028 143.973 186.339C144.633 187.599 144.933 188.969 144.883 190.429C144.933 191.889 144.633 193.249 143.973 194.509C143.543 195.829 142.813 196.959 141.773 197.919C141.183 198.689 140.423 199.289 139.513 199.73C138.662 200.079 137.823 200.439 136.973 200.799C136.023 201.099 134.923 201.139 133.893 201.189C132.023 201.179 130.284 200.709 128.662 199.769L126.563 198.15C125.553 197.209 124.832 196.099 124.412 194.809C123.817 193.673 123.516 192.46 123.516 191.164L123.523 190.809C123.523 190.73 123.523 190.639 123.534 190.549C123.653 189.609 123.784 188.669 123.912 187.73C124.243 186.349 124.873 185.139 125.813 184.119C126.053 183.639 126.373 183.249 126.784 182.929C128.103 181.609 129.662 180.709 131.463 180.198C132.403 180.079 133.343 179.948 134.284 179.82ZM770.363 193.599C801.69 180.447 811.961 204.543 814.693 226.94C813.752 231.059 810.573 235.179 805.874 234.249C801.939 233.991 799.189 230.518 796.541 227.176C793.392 223.2 790.389 219.409 785.713 221.428C780.034 224.669 774.093 226.389 767.643 227.299C761.624 228.149 762.983 238.528 769.082 237.979C775.454 237.399 781.413 235.759 787.082 233.059C787.92 234.028 788.819 234.985 789.747 235.923C779.916 244.228 762.281 269.149 786.034 270.599C779.502 275.144 781.773 287.356 788.573 290.519C758.397 303.64 779.158 311.089 792.173 291.839C797.392 292.999 803.151 291.749 807.874 289.659C804.152 311.518 835.445 302.592 848.35 298.255L849.863 297.739C855.03 311.964 871.915 306.135 852.643 296.879C853.858 296.261 855.729 295.864 857.711 295.444C862.613 294.404 868.196 293.22 866.234 288.179C861.589 285.147 854.385 287.899 847.71 290.451C844.262 291.768 840.954 293.032 838.213 293.417C837.88 293.506 837.523 293.602 837.146 293.703C828.821 295.943 810.382 300.904 812.073 287.688C830.033 277.724 847.483 264.323 868.923 264.189C873.443 264.129 873.463 257.129 868.923 257.159C852.472 257.253 838.153 264.313 824.046 271.934L821.273 273.438C811.272 279.965 784.415 294.365 788.313 270.698C798.889 270.835 806.383 264.694 813.97 258.476C818.511 254.755 823.086 251.006 828.374 248.56C838.561 241.669 853.068 241.769 861.864 233.28C862.829 225.1 846.88 231.526 838.327 234.971C836.555 235.685 835.101 236.271 834.18 236.573L833.874 236.668C819.418 241.786 808.697 252.529 796.244 260.84C770.801 271.353 782.506 248.802 792.973 238.909C812.208 256.376 833.519 235.317 825.073 213.448C832.83 211.568 839.571 205.592 848.053 204.8C849.652 204.807 851.298 204.714 852.965 204.621C857.31 204.377 861.794 204.126 865.926 205.595C883.81 213.859 880.507 219.839 877.061 226.078C875.126 229.583 873.145 233.169 874.852 237.288C876.643 240.399 880.593 240.489 882.423 243.188C883.796 245.807 883.237 248.849 882.685 251.846C881.918 256.013 881.167 260.093 885.654 262.829C893.056 267.66 891.299 287.709 880.484 285.79C877.363 284.929 875.933 289.409 878.523 290.719C866.192 323.399 840.42 311.885 821.682 332.228C812.47 343.893 811.141 358.288 808.485 372.313L808.223 373.669C801.581 404.773 795.34 436.063 794.002 467.938C762.369 456.253 739.18 430.104 721.853 402.069C739.166 364.48 747.862 321.628 745.115 280.269C742.987 262.624 741.891 244.929 743.934 227.209C744.053 225.77 744.063 224.08 744.075 222.285C744.106 217.285 744.142 211.476 746.534 208.039C751.252 201.261 760.285 197.406 768.036 194.471L770.363 193.599ZM613.823 207.04C614.753 207.009 615.613 207.199 616.424 207.62C617.253 207.889 617.973 208.359 618.583 209.009C619.874 210.04 620.663 212.099 620.663 213.769C620.663 215.439 619.874 217.5 618.583 218.529C617.743 219.359 616.753 219.939 615.613 220.259L613.823 220.5C612.083 220.58 610.313 219.67 609.073 218.529C608.823 218.3 608.583 218.07 608.333 217.849C607.204 216.809 606.714 215.259 606.643 213.769C606.613 212.98 606.784 212.24 607.143 211.55C607.374 210.83 607.773 210.219 608.333 209.689C608.583 209.469 608.823 209.24 609.073 209.009C610.424 207.759 612.003 207.13 613.823 207.04ZM660.993 237.239L660.665 237.233C659.469 237.237 658.348 237.519 657.304 238.069C656.124 238.448 655.094 239.108 654.224 240.039C653.294 240.909 652.634 241.929 652.253 243.119C651.653 244.259 651.374 245.489 651.424 246.799L651.774 249.349L651.884 249.719C652.352 251.183 653.134 252.462 654.224 253.569C654.874 254.059 655.514 254.559 656.163 255.059C657.653 255.929 659.264 256.358 660.993 256.369C662.304 256.419 663.534 256.139 664.674 255.539C665.863 255.159 666.884 254.499 667.753 253.569C668.684 252.698 669.344 251.669 669.724 250.489C670.323 249.349 670.604 248.119 670.554 246.799C670.434 245.959 670.323 245.108 670.214 244.259C669.753 242.639 668.934 241.239 667.753 240.039L665.814 238.549C664.323 237.679 662.714 237.249 660.993 237.239ZM137.784 259.849C148.183 259.849 148.163 275.98 137.784 275.98C127.393 275.98 127.413 259.849 137.784 259.849ZM188.534 280.9L188.261 280.906C186.432 280.981 184.332 281.807 183.094 283.16C181.753 284.619 180.753 286.539 180.844 288.589C180.934 289.269 181.023 289.949 181.124 290.639C181.483 291.939 182.144 293.07 183.094 294.029L184.344 295.469C184.523 295.679 184.693 295.889 184.874 296.089C186.434 297.769 188.493 298.23 190.663 298.419C191.724 298.459 192.724 298.24 193.644 297.759C194.603 297.439 195.434 296.91 196.134 296.16C197.434 294.74 198.613 292.689 198.394 290.689C198.313 289.919 198.214 289.16 198.094 288.389C197.714 287.049 197.044 285.889 196.063 284.9C195.996 284.84 195.927 284.78 195.857 284.722L195.434 284.379L193.974 283.16C193.273 282.41 192.443 281.879 191.493 281.57C190.583 281.079 189.594 280.859 188.534 280.9ZM603.544 292.469C605.144 292.469 606.634 292.879 608.014 293.679C608.063 293.698 608.113 293.719 608.153 293.74C609.474 294.519 610.523 295.57 611.304 296.889C612.104 298.259 612.503 299.74 612.503 301.32C612.503 302.909 612.104 304.379 611.304 305.749C610.523 307.07 609.474 308.119 608.153 308.9C608.113 308.929 608.063 308.948 608.014 308.969C606.634 309.769 605.144 310.169 603.544 310.179C601.954 310.169 600.464 309.769 599.083 308.969C596.384 307.389 594.693 304.439 594.693 301.32C594.693 298.198 596.384 295.249 599.083 293.679C600.464 292.879 601.954 292.469 603.544 292.469ZM89.6433 300.129C88.8733 299.719 88.0433 299.539 87.1533 299.57C85.9833 299.57 84.8933 299.869 83.8933 300.448C83.6533 300.619 83.4123 300.779 83.1833 300.939L83.1091 300.989L83.0433 301.039C82.3033 301.439 81.7033 301.98 81.2633 302.669C80.7523 303.329 80.3033 304.109 80.0823 304.929C79.9833 305.32 79.8633 306.269 79.8633 306.659C79.8733 306.73 79.8733 306.789 79.8733 306.859C79.9033 307.32 79.9533 307.98 80.0733 308.419L80.6233 309.719C81.1033 310.539 81.7523 311.189 82.5733 311.669C83.4123 312.309 84.3633 312.589 85.3933 312.73C86.3733 312.859 87.2933 312.839 88.2333 312.499L88.8733 312.279C89.9733 311.969 90.9233 311.419 91.7233 310.609C92.0633 310.179 92.4033 309.74 92.7433 309.299C93.3233 308.299 93.6233 307.209 93.6233 306.039C93.6533 305.15 93.4733 304.32 93.0633 303.549C92.8033 302.749 92.3633 302.049 91.7233 301.469C91.1433 300.829 90.4533 300.389 89.6433 300.129ZM221.384 324.539C220.094 324.249 218.794 324.309 217.503 324.709C216.683 324.959 215.893 325.209 215.134 325.698L213.193 327.198C212.014 328.389 211.193 329.799 210.733 331.419L210.714 331.499L210.363 334.089L210.714 336.679C211.034 337.448 211.363 338.229 211.693 338.999C212.304 340.129 213.134 341.039 214.193 341.729C214.804 342.329 215.523 342.749 216.344 342.979C217.103 343.419 217.924 343.639 218.794 343.639C219.663 343.879 220.523 343.879 221.384 343.639C222.674 343.589 223.884 343.198 225.003 342.489C226.759 341.186 226.875 341.176 227.599 340.21L228.493 338.999C228.813 338.229 229.143 337.448 229.473 336.679L229.813 334.089L229.473 331.499C229.174 330.239 228.594 329.139 227.733 328.198C227.294 327.469 226.714 326.879 225.983 326.448C225.374 325.849 224.663 325.429 223.833 325.198C223.083 324.759 222.264 324.539 221.384 324.539ZM762.553 325.589C762.513 325.029 763.233 324.83 763.593 325.16C768.413 329.48 771.483 334.66 777.333 338.009C783.214 341.37 789.273 341.099 795.403 343.269C797.483 344.009 797.493 346.79 795.403 347.519C783.803 351.57 763.433 337.839 762.553 325.589ZM684.313 326.649C687.082 325.888 690.123 326.688 692.152 328.719C694.183 330.749 694.983 333.778 694.223 336.549C693.473 339.249 691.303 341.438 688.593 342.169C687.783 342.388 686.964 342.509 686.133 342.469C684.742 342.459 683.443 342.108 682.233 341.409L680.673 340.198C679.912 339.499 679.383 338.669 679.073 337.709C678.583 336.789 678.362 335.799 678.402 334.729L678.393 334.539C678.362 334.159 678.412 333.778 678.534 333.409C678.534 333.018 678.594 332.638 678.693 332.268C679.423 329.569 681.623 327.388 684.313 326.649ZM89.1133 368.429C85.0633 364.379 77.6233 366.169 76.1833 371.839L76.0233 372.48C74.6333 377.959 79.5733 382.909 85.0533 381.519L85.7043 381.359C91.3733 379.919 93.1623 372.48 89.1133 368.429ZM162.153 373.239C162.093 371.948 160.223 371.619 159.853 372.929C156.443 385.159 154.252 397.669 152.463 410.229C150.193 407.369 147.993 404.469 145.933 401.438L144.309 399.077L141.023 394.379C140.063 392.999 138.543 391.608 137.573 390.119C137.662 389.979 137.704 389.799 137.653 389.639C137.252 388.409 136.473 388.009 135.243 388.569C132.962 389.612 133.723 393.336 134.184 395.589C134.199 395.664 134.214 395.737 134.229 395.809L134.323 396.289C135.313 401.509 137.233 406.429 139.313 411.289L139.754 412.327C141.67 416.883 143.713 422.171 147.082 425.709C147.923 426.589 148.983 427.379 150.123 427.948C150.013 428.749 149.912 429.549 149.813 430.349C147.69 447.093 146.19 463.942 144.741 480.773L143.653 493.43C140.447 530.929 137.649 568.534 136.162 606.139C135.723 617.349 135.363 628.558 135.053 639.778C134.912 645.049 134.733 650.329 134.733 655.608C134.735 656.152 134.729 656.699 134.722 657.253C134.693 659.714 134.663 662.195 135.383 664.549C135.662 665.459 136.133 666.308 136.443 667.209C136.493 667.319 136.553 667.419 136.593 667.528C134.582 669.188 133.403 672.729 134.763 675.188C136.383 678.129 140.183 678.688 143.002 677.179C146.534 675.289 147.563 670.558 148.883 667.159L149.103 666.572C150.938 661.483 150.903 656.316 150.974 650.919L151.192 637.796L151.303 631.858C151.543 619.989 151.903 608.119 152.173 596.249C152.473 582.629 152.883 569.009 153.383 555.399L153.582 555.459C154.903 556.149 156.332 556.469 157.863 556.409C158.082 556.399 158.303 556.379 158.523 556.358C160.582 556.349 162.493 555.839 164.273 554.808C165.983 553.789 167.343 552.429 168.353 550.719C169.393 548.938 169.903 547.028 169.912 544.969L169.919 544.609C169.92 543.175 169.589 541.834 168.933 540.579C168.473 539.169 167.683 537.948 166.573 536.919L166.286 536.641C164.929 535.372 163.355 534.492 161.553 533.989C159.534 533.438 157.513 533.438 155.493 533.989C155.053 534.108 154.633 534.259 154.223 534.429C155.393 507.599 156.933 480.789 158.843 454.009C159.563 443.858 160.412 433.649 161.103 423.429C162.243 406.688 162.983 389.909 162.153 373.239ZM678.073 385.608L677.74 385.603C676.525 385.608 675.386 385.89 674.323 386.448C673.113 386.839 672.073 387.509 671.193 388.459L670.939 388.724C669.866 389.884 669.12 391.226 668.693 392.759C668.223 394.479 668.223 396.209 668.693 397.928C668.853 398.919 669.223 399.879 669.813 400.709C670.663 402.138 671.803 403.289 673.243 404.138C674.733 405.009 676.344 405.438 678.073 405.448C679.803 405.438 681.413 405.009 682.903 404.138C684.344 403.289 685.483 402.138 686.344 400.709C686.924 399.879 687.294 398.919 687.454 397.928C687.924 396.209 687.924 394.479 687.454 392.759C686.993 391.108 686.163 389.678 684.954 388.459C684.303 387.948 683.643 387.448 682.983 386.938C681.464 386.058 679.833 385.619 678.073 385.608ZM196.742 386.138C197.483 385.938 198.213 385.938 198.953 386.138C200.053 386.188 201.082 386.518 202.033 387.119C202.593 387.558 203.153 387.989 203.713 388.419L204.202 389.005C205.245 390.277 205.272 390.493 206.072 392.429C206.403 393.509 206.453 394.589 206.213 395.669C206.213 396.399 206.023 397.079 205.662 397.709C205.463 398.399 205.123 398.999 204.613 399.499C204.252 400.108 203.773 400.598 203.162 400.959C202.383 401.669 201.463 402.159 200.403 402.409L198.252 402.698C197.973 402.659 197.683 402.619 197.403 402.589C197.066 402.579 196.738 402.541 196.417 402.479L196.092 402.408L195.797 402.329C195.405 402.215 195.024 402.063 194.653 401.869C193.953 401.669 193.343 401.319 192.822 400.799C191.923 400.219 191.203 399.438 190.683 398.469L190.543 398.149C190.353 397.808 190.193 397.459 190.072 397.079C189.733 396.479 189.563 395.839 189.553 395.149C189.354 394.231 189.368 393.321 189.606 392.412L189.693 392.108L190.463 390.278C190.863 389.659 191.283 389.028 191.822 388.518C192.147 388.23 192.941 387.611 193.388 387.301L193.662 387.119C194.613 386.518 195.643 386.188 196.742 386.138ZM614.714 433.029C616.794 433.029 618.643 433.9 620.153 435.279C621.663 436.659 622.313 438.73 622.403 440.709C622.443 441.769 622.223 442.759 621.743 443.679C621.433 444.629 620.903 445.449 620.153 446.15C618.753 447.539 616.683 448.4 614.714 448.4C612.634 448.4 610.784 447.529 609.273 446.15C607.764 444.759 607.113 442.699 607.023 440.709C606.983 439.659 607.204 438.669 607.683 437.749C607.962 436.894 608.419 436.136 609.054 435.49L609.273 435.279C610.674 433.879 612.743 433.029 614.714 433.029ZM60.1035 451.489C61.6125 451.079 63.1235 451.079 64.6335 451.489L66.6625 452.339C67.6625 452.879 68.4535 453.608 69.0535 454.539C69.8135 455.358 70.3225 456.329 70.5825 457.439C71.1735 458.959 71.1035 461.369 70.6335 462.919C70.1035 464.679 69.2835 466.079 68.0135 467.399C65.9035 469.579 62.6625 470.209 59.7935 469.549C59.0025 469.369 58.2525 469.019 57.5725 468.589C55.4035 467.249 53.9435 464.909 53.9535 462.319C53.9535 462.039 53.9735 461.759 54.0135 461.48C53.8735 460.909 53.8225 460.319 53.8435 459.698L54.1435 457.439L54.1625 457.379C54.5635 455.948 55.2835 454.709 56.3325 453.659C57.3026 452.699 58.4338 452.003 59.7268 451.587L60.0535 451.489L60.1035 451.489ZM702.263 487.09C700.813 486.769 699.362 486.83 697.903 487.29C697.043 487.65 696.173 488.019 695.303 488.389C694.563 488.949 693.832 489.519 693.093 490.09C692.023 491.08 691.273 492.25 690.832 493.609C690.343 494.46 690.093 495.37 690.093 496.359C689.832 497.33 689.832 498.29 690.093 499.259C690.153 500.71 690.582 502.07 691.383 503.32C691.953 504.049 692.523 504.79 693.093 505.529C693.832 506.099 694.563 506.67 695.303 507.23C696.173 507.599 697.043 507.969 697.903 508.33C699.362 508.79 700.813 508.849 702.263 508.529C702.773 508.509 703.263 508.439 703.742 508.32C703.752 508.32 703.773 508.32 703.783 508.309C703.803 508.309 703.822 508.309 703.843 508.299L703.963 508.269L704.297 508.177C705.509 507.822 706.577 507.222 707.502 506.38C708.313 505.9 708.953 505.259 709.433 504.449C710.383 503.41 711.023 502.189 711.353 500.79C711.752 499.09 711.992 496.599 711.332 494.91L710.233 492.299C709.543 491.029 708.612 490.009 707.423 489.24C706.742 488.559 705.943 488.099 705.013 487.84C704.162 487.34 703.242 487.09 702.263 487.09ZM201.983 504.159C203.367 503.781 204.744 503.752 206.12 504.072L206.464 504.159C207.563 504.419 208.514 504.919 209.333 505.659C210.243 506.259 210.974 507.049 211.503 508.028C212.264 509.339 212.644 510.759 212.653 512.278C212.644 513.799 212.264 515.219 211.503 516.528C210.753 517.799 209.743 518.799 208.474 519.549L207.374 520.079C206.454 520.659 205.474 520.969 204.413 521.018C203.704 521.209 202.993 521.209 202.294 521.018C201.573 521.018 200.903 520.839 200.284 520.479C199.604 520.289 199.023 519.948 198.523 519.448C197.653 518.888 196.974 518.149 196.474 517.219L195.663 515.308L195.384 513.188L195.663 511.079L196.104 510.039C196.503 508.608 197.224 507.369 198.273 506.319C199.323 505.278 200.563 504.558 201.983 504.159ZM758.553 514.799C757.613 514.299 756.593 514.07 755.502 514.109L755.143 514.117C753.827 514.177 752.587 514.536 751.433 515.21C750.502 515.71 749.752 516.4 749.183 517.269C748.473 518.04 748.002 518.949 747.752 519.99C747.373 521.41 747.373 522.83 747.752 524.25C747.863 524.62 748.073 525.029 748.204 525.349C748.353 525.689 748.473 526.109 748.683 526.439C750.173 528.79 752.613 530.32 755.443 530.32C756.863 530.309 758.173 529.949 759.393 529.25C760.493 528.599 761.383 527.73 762.053 526.669C762.113 526.599 762.162 526.519 762.204 526.439C762.643 525.769 762.973 525.04 763.193 524.25L763.279 523.96C763.541 522.994 763.561 522.023 763.343 521.059C763.293 519.99 762.973 519 762.393 518.08C761.683 516.879 760.723 515.919 759.513 515.21C759.204 515.049 758.883 514.91 758.553 514.799ZM107.082 528.639C108.463 528.329 109.843 528.389 111.213 528.819C112.043 529.169 112.863 529.519 113.683 529.858L115.783 531.48C116.173 531.809 116.363 532.169 116.723 532.639L117.173 533.228C117.824 534.099 117.839 534.283 118.553 536.139C119.033 537.919 119.033 539.698 118.553 541.48C118.322 542.339 117.973 543.149 117.523 543.899C117.112 544.619 116.62 545.251 116.066 545.832L115.783 546.119C114.843 547.129 113.733 547.839 112.453 548.259C111.643 548.73 110.773 548.959 109.843 548.959C108.463 549.269 107.082 549.209 105.713 548.778C104.883 548.429 104.063 548.079 103.242 547.739L101.143 546.119L99.5234 544.019L99.0068 542.788L98.4834 541.549L98.1134 538.799C98.0634 537.369 98.3534 536.049 99.0024 534.809C99.2524 533.938 99.6934 533.169 100.332 532.528C100.793 531.749 101.412 531.129 102.193 530.669C102.832 530.028 103.603 529.589 104.473 529.339C105.283 528.869 106.153 528.639 107.082 528.639ZM587.063 551.549C600.153 551.549 600.173 531.209 587.063 531.209C573.973 531.209 573.954 551.549 587.063 551.549ZM687.743 584.129C689.193 583.739 690.653 583.739 692.103 584.129C693.174 584.379 694.103 584.869 694.894 585.598C695.695 586.12 696.349 586.788 696.844 587.617L697.003 587.899C698.144 589.839 698.323 592.058 697.833 594.218C697.224 596.888 694.764 599.319 692.103 599.948L692.013 599.965L691.924 599.989C690.844 600.329 689.753 600.379 688.674 600.129C687.583 600.079 686.573 599.759 685.644 599.159C684.464 598.399 683.474 597.419 682.714 596.239C682.113 595.299 681.794 594.289 681.743 593.198C681.554 592.479 681.554 591.759 681.743 591.039C681.794 589.948 682.113 588.938 682.714 587.999L683.993 586.348L684.124 586.239C685.144 585.218 686.353 584.518 687.743 584.129ZM178.153 612.489C180.242 612.469 182.363 613.059 184.073 614.269C185.733 615.448 186.992 616.719 187.803 618.629C188.023 619.15 188.242 619.659 188.433 620.179C189.293 622.469 189.453 624.769 188.263 627.009C187.113 629.179 184.633 630.129 182.412 630.778C180.533 631.339 178.403 631.429 176.533 630.759C175.603 630.429 174.693 630.079 173.853 629.569C172.283 628.599 171.433 627.448 170.383 626.028C169.563 624.629 169.153 623.108 169.153 621.489C169.153 619.858 169.563 618.349 170.383 616.939C171.992 614.189 174.973 612.509 178.153 612.489ZM78.704 617.698C77.113 615.639 74.794 614.419 72.153 614.419C70.643 614.419 69.243 614.799 67.933 615.559C66.683 616.299 65.683 617.289 64.943 618.549C64.893 618.659 64.843 618.769 64.784 618.869C64.603 619.039 64.424 619.209 64.243 619.369L64.723 618.999L64.714 619.028C63.424 620.119 62.573 621.319 62.333 623.159C62.083 624.999 62.553 627.278 64.083 628.528C65.424 629.608 66.763 630.649 68.513 630.948C70.583 631.299 72.284 631.319 74.363 630.809C77.174 630.119 79.443 627.719 80.193 624.98C80.903 622.389 80.313 619.789 78.704 617.698ZM244.483 615.799L244.15 615.795C243.158 615.808 242.236 616.04 241.363 616.499C240.363 616.819 239.493 617.379 238.763 618.169C237.973 618.899 237.423 619.769 237.093 620.769C236.583 621.73 236.353 622.769 236.393 623.879C236.493 624.599 236.593 625.309 236.683 626.028C237.073 627.399 237.763 628.589 238.763 629.599L240.403 630.858C241.663 631.589 243.023 631.959 244.483 631.959L244.784 631.966C245.781 631.963 246.72 631.724 247.593 631.269C248.593 630.939 249.464 630.379 250.193 629.599C250.983 628.858 251.544 627.999 251.863 626.999C252.374 626.028 252.603 624.989 252.563 623.879C252.464 623.169 252.363 622.448 252.273 621.73C251.883 620.358 251.193 619.179 250.193 618.169L248.553 616.899C247.294 616.169 245.933 615.809 244.483 615.799ZM583.663 622.198L586.284 622.549C588.794 623.119 590.813 624.969 592.163 627.079C592.884 628.209 593.273 629.429 593.333 630.739C593.624 632.039 593.563 633.349 593.153 634.659C592.853 635.938 592.264 637.058 591.393 638.009C591.094 638.479 590.743 638.909 590.344 639.289C589.523 640.659 588.284 641.558 587.003 642.479C585.924 643.169 584.753 643.539 583.493 643.599C582.663 643.819 581.823 643.819 580.983 643.599C579.733 643.539 578.563 643.169 577.483 642.479C576.844 641.989 576.204 641.489 575.573 640.999C575.014 640.349 574.493 639.679 574.003 638.979C573.674 638.209 573.353 637.448 573.034 636.688C572.447 634.87 572.729 633.261 573.047 631.445L573.054 631.409C573.103 631.099 573.184 630.819 573.294 630.518L573.51 629.937C574.085 628.418 574.393 627.903 575.413 626.579L575.802 626.059C575.996 625.8 576.196 625.547 576.424 625.319C577.063 624.659 577.974 624.108 578.693 623.539C580.233 622.649 581.893 622.209 583.663 622.198ZM115.903 641.218L115.55 641.211C114.262 641.212 113.05 641.514 111.923 642.108C110.643 642.518 109.544 643.229 108.603 644.239C107.603 645.169 106.893 646.278 106.473 647.558C105.833 648.789 105.534 650.108 105.583 651.528C105.714 652.438 105.833 653.358 105.954 654.268C106.443 656.018 107.333 657.539 108.603 658.819C109.303 659.358 109.993 659.899 110.693 660.428C112.303 661.369 114.034 661.839 115.903 661.839L116.256 661.847C117.542 661.847 118.746 661.544 119.874 660.948C121.153 660.539 122.253 659.829 123.193 658.819C124.193 657.888 124.903 656.778 125.323 655.499C125.973 654.268 126.263 652.948 126.214 651.528L125.843 648.789C125.353 647.039 124.473 645.518 123.193 644.239C122.493 643.698 121.803 643.159 121.103 642.629C119.493 641.688 117.763 641.218 115.903 641.218ZM294.593 652.82C298.703 649.599 305.393 651.349 305.393 657.29C305.393 663.259 298.693 664.98 294.593 661.759L294.389 661.608L294.193 661.449C291.961 659.704 291.886 655.163 294.024 653.27L294.193 653.13C294.322 653.018 294.453 652.919 294.593 652.82Z" transform="translate(46.99951 2.99996)" fill="#000000" fill-rule="evenodd" stroke="none"></path></g><g transform="translate(225 0)"><g><g><path d="M101.559 0.333343C253.129 -7.12039 355.969 112.412 360.393 160.078C363.464 193.166 361.38 237.293 361.38 266.859C361.38 281.951 368.996 327.825 360.393 349.821C341.247 398.78 319.615 437.129 259.678 437.129C199.741 437.129 108.369 406.064 76.9939 365.997C71.2653 358.681 0.0805339 305.131 0.0805339 263.038C0.0805339 173.233 -6.59297 5.6519 101.559 0.333343Z" transform="translate(47.92791 63.53391)" fill="#FFFFFF" stroke="none"></path><path d="M130.169 8.08201C126.236 2.06001 120.723 -1.82699 112.085 0.873012C109.564 1.66201 107.285 3.04601 105.243 4.84101C100.149 1.50301 93.1925 2.28801 88.9815 8.45201C87.8215 10.151 86.8675 12.009 86.0795 13.963C81.7845 12.14 77.3215 12.22 73.0945 16.483C71.4035 18.188 70.3515 20.268 69.9015 22.47C69.7845 22.221 69.6615 21.986 69.5475 21.729L69.4385 21.496C67.2054 16.9608 59.6802 15.194 55.6535 18.086C52.9925 19.998 50.9535 22.158 49.7315 24.815C48.0485 24.808 46.3925 25.015 44.8015 25.576C38.8505 27.676 36.3325 33.844 36.7825 39.867C31.7175 41.682 26.8975 44.251 22.5025 47.612C18.9025 50.362 17.4725 54.052 18.5525 57.752C14.3025 59.592 10.7725 62.252 8.60248 66.602C6.15248 71.522 5.87248 77.212 7.77248 81.712C7.12948 82.952 6.60948 84.243 6.18348 85.563C2.34348 86.533 -0.50952 90.207 0.0764801 94.541C0.54448 97.998 2.84148 100.3 5.68748 101.133C6.37848 104.072 7.49148 106.916 8.98948 109.524C5.55448 112.069 2.55448 115.314 1.08148 119.193C-0.0355199 122.137 0.39548 124.764 1.74248 126.804C1.78648 130.366 3.75248 134.025 6.76748 135.751C4.49748 140.261 6.13948 146.521 10.9155 148.307C8.96848 152.259 7.86348 156.533 8.27248 161.163C8.83248 167.613 12.1225 173.783 17.1725 177.453C15.7635 183.522 15.8725 189.832 17.6725 196.062C19.1845 201.303 24.6405 203.464 29.4065 201.62C30.2185 203.8 31.9275 205.69 34.1285 206.721C34.1958 206.753 34.2636 206.782 34.3316 206.811L34.7415 206.972C34.0945 208.185 33.7905 209.621 34.0095 211.246C34.5635 215.346 38.8475 218.637 43.0445 217.265C46.3395 216.188 49.3435 214.307 52.2145 212.263C52.2255 213.059 52.3345 213.85 52.5155 214.582C53.7655 219.639 58.3425 222.881 63.3485 223.472C67.7635 223.993 71.9015 222.469 75.3495 219.895C79.0185 227.25 87.5185 229.858 94.9505 225.462C98.6995 223.245 103.16 219.539 106.525 215.261C107.589 214.535 108.618 213.734 109.599 212.875C107.895 216.956 106.287 221.085 104.792 225.272C103.843 227.932 102.944 230.611 102.083 233.301C99.7895 233.899 97.7075 234.667 96.1525 235.403C92.0265 237.353 90.1335 242.747 91.0645 247.176C88.9195 249.601 87.5175 252.564 87.5175 256.304C87.5175 258.383 87.9195 260.24 88.6105 261.898C87.2945 264.078 86.1525 266.431 85.1535 269.003C83.7495 272.622 84.8785 276.484 87.2555 279.39C85.5645 281.805 84.5175 284.644 84.5485 288.043C84.5625 289.578 84.8195 291.073 85.2715 292.487C84.0975 295.32 84.1505 298.495 85.1785 301.309C82.4005 304.868 80.5315 308.749 81.5525 312.828C82.0925 314.987 83.3005 316.757 84.8555 318.226C84.6965 319.601 84.7475 320.991 84.9935 322.332C83.8825 324.323 83.3715 326.648 83.5325 328.982C83.9425 334.916 87.3455 338.136 91.7655 339.694C91.6015 340.045 91.4415 340.398 91.3175 340.773C90.2705 343.952 90.4825 347.746 92.1055 350.707C92.2735 351.013 92.4595 351.295 92.6425 351.582C93.8995 353.896 95.9375 355.717 98.3415 357.064C98.9628 357.412 99.8264 357.711 100.769 358.011L102.222 358.468C102.16 358.539 102.102 358.605 102.05 358.664L101.422 359.394C99.2233 361.996 97.2682 364.809 97.0615 368.339C96.8365 372.211 98.8465 375.955 102.117 378.044C102.444 378.252 102.815 378.459 103.205 378.661L103.209 379.035C102.354 380.225 101.812 381.649 101.962 383.045C102.683 389.796 106.739 393.017 112.739 395.403L113.942 395.914L114.025 397.416C114.052 397.914 114.092 398.411 114.13 398.908C113.865 399.519 113.648 400.06 113.529 400.377L113.448 400.599C111.09 407.652 114.528 415.28 120.533 419.343C121.371 419.911 122.246 420.396 123.147 420.815C124.019 423.714 125.503 426.339 127.47 428.668C129.085 430.582 131.218 432.384 133.587 433.713C134.911 436.175 136.983 437.984 139.675 438.895C140.067 439.028 140.464 439.131 140.864 439.215C140.491 442.129 141.266 445.195 143.288 447.365C144.286 448.436 145.373 449.134 146.519 449.587C147.136 449.887 147.809 450.07 148.504 450.135C149.945 450.374 151.455 450.333 152.993 450.198C154.005 451.667 155.203 453.047 156.592 454.323C158.106 455.71 160.145 456.389 162.102 456.211C166.348 458.825 171.35 459.071 176.2 458.479C177.299 458.345 178.354 458.047 179.313 457.604C183.884 462.999 188.756 468.135 193.822 473.073C201.142 480.203 208.202 487.373 218.272 490.203C220.842 490.922 224.162 488.283 223.002 485.482C217.263 471.573 203.412 462.502 193.542 451.512C188.442 445.832 183.692 439.852 179.552 433.432C175.132 426.592 172.022 421.672 163.892 419.132L163.295 418.941C151.396 415.068 141.933 407.377 135.952 396.252C130.933 386.913 128.312 373.422 132.852 363.212C133.622 362.292 134.202 361.232 134.542 360.082C134.912 359.522 135.302 358.962 135.722 358.432C140.522 352.363 147.642 349.012 155.002 347.302C159.172 346.332 163.672 345.892 167.952 346.042C171.42 346.169 174.806 347.004 178.24 347.45C178.603 347.736 178.964 348.017 179.316 348.291L179.964 348.796C184.559 352.368 190.413 356.714 196.314 356.873C210.845 357.266 209.81 340.76 209.118 329.714C209.056 328.722 208.997 327.774 208.952 326.886L208.907 325.913C208.426 313.582 208.16 301.247 207.673 288.918L207.67 288.825C207.664 288.591 207.665 288.236 207.671 287.78L207.725 284.968C208.256 281.129 208.884 277.303 209.643 273.491C214.618 273.804 219.707 272.411 224.079 269.733C229.934 270.323 235.777 268.067 239.769 263.765C240.648 263.498 241.51 263.168 242.336 262.777C242.944 262.49 243.485 262.198 244.011 261.89C247.839 263.478 252.41 263.116 255.935 259.668C258.243 259.808 260.54 259.328 262.311 258.169C263.965 257.089 265.57 255.966 267.12 254.779C269.667 254.716 272.329 253.745 274.826 251.713L278.411 248.792C279.724 248.953 281.059 248.874 282.354 248.499C286.487 247.301 290.399 245.57 293.983 243.32C295.717 243.308 297.544 242.847 299.382 241.825C310.808 235.469 321.667 228.623 331.82 220.507C336.207 220.068 339.845 217.079 343.094 213.996C349.651 212.087 355.435 210.156 361.092 205.93C364.989 203.019 368.524 199.693 371.855 196.165C373.247 196.831 374.744 197.29 376.254 197.508C378.941 197.896 381.617 197.131 384.26 196.376C387.436 195.468 390.563 194.574 393.601 195.711C398.865 197.682 403.05 201.935 408.29 204.087C411.155 205.264 414.099 205.943 417.012 205.97C417.983 206.538 418.947 207.118 419.902 207.71C422.19 210.605 425.328 212.615 428.904 213.949C429.181 214.166 429.466 214.372 429.742 214.592C432.55 216.835 435.224 219.227 437.779 221.734C438.18 222.857 438.675 223.955 439.279 225.007C441.07 228.127 443.687 230.819 446.822 232.596C446.931 232.658 447.119 232.75 447.36 232.86L447.673 233C449.109 234.916 450.47 236.891 451.76 238.918C451.806 239.501 451.883 240.083 452.029 240.66C452.737 243.425 454.567 245.562 456.736 247.282C462.678 257.517 473.385 275.833 474.742 275.762C473.086 284.481 472.125 293.388 471.271 302.228L470.552 309.783C469.172 324.302 468.142 338.873 467.612 353.453C467.196 364.783 467.236 376.125 467.346 387.46L467.488 401.009C467.617 413.375 467.652 425.814 465.742 438.052C458.842 482.243 423.872 519.512 378.992 525.652C366.562 527.363 353.592 526.762 341.362 524.012C335.263 522.652 329.242 520.802 323.473 518.392C317.013 515.692 311.172 511.863 304.663 509.272C298.092 506.663 293.562 516.152 298.042 520.632C306.528 529.108 319.886 533.948 331.419 537.117L332.692 537.462C344.612 540.652 357.142 542.052 369.462 541.363C393.684 539.993 416.492 531.232 435.412 516.092C453.891 501.292 467.672 481.772 474.552 459.033C481.482 436.143 480.251 412.114 479.038 388.427C478.779 383.365 478.52 378.318 478.342 373.302C477.742 356.113 477.383 338.892 477.473 321.682C477.507 314.939 477.737 308.173 477.968 301.401C478.278 292.296 478.589 283.181 478.422 274.102C478.742 273.762 479.032 273.352 479.272 272.892C481.355 268.927 483.471 263.971 484.454 259.121C486.465 257.876 487.478 255.281 487.745 253.061C487.932 251.509 487.33 249.936 486.322 248.649C486.868 247.551 487.015 245.944 487.378 244.794C488.322 241.814 489.122 238.973 489.454 235.853C489.73 233.253 489.673 230.505 488.851 227.992C488.432 226.705 487.879 225.55 487.162 224.466C488.047 223.113 488.655 221.597 488.655 219.651C488.655 215.642 486.338 212.179 482.949 210.184C482.234 209.81 481.508 209.463 480.766 209.143L480.754 209.135L480.69 208.787C480.627 208.432 480.565 208.067 480.513 207.752L480.311 206.452C479.837 203.231 479.536 200.185 477.878 197.263C475.701 193.424 472.146 191.238 468.056 189.885C467.3 189.635 465.892 189.474 465.063 189.017C465.886 189.403 465.199 187.264 464.785 185.976C464.715 185.757 464.652 185.562 464.606 185.409L464.438 184.797C462.497 177.92 457.882 174.025 451.988 170.515L451.228 170.069C449.239 168.915 447.148 167.907 445.78 166.019C443.896 163.42 443.2 160.049 441.564 157.297C440.218 155.03 438.486 152.936 436.273 151.483C435.684 148.627 435.167 145.768 433.768 143.155C430.423 136.894 423.391 134.392 416.813 133.082C414.398 132.6 411.347 132.687 409.194 131.312C408.784 130.873 408.349 130.455 407.889 130.065C406.577 128.403 404.681 125.379 403.427 123.839C397.692 116.802 390.241 114.133 381.311 115.865C380.659 115.992 379.289 116.549 378.409 116.691C378.353 116.581 378.293 116.458 378.225 116.311L378.014 115.859C376.553 112.832 374.118 109.515 371.849 107.171C365.712 100.833 357.688 100.488 349.494 100.712L347.323 100.777C345.296 100.817 344.401 100.636 342.852 98.98L342.52 98.6262C339.202 95.1081 335.97 92.1964 331.098 90.887C326.443 89.636 321.57 90.516 317.015 91.704L316.533 91.8278C312.245 92.9088 309.46 93.0965 305.032 91.922L303.816 91.6054C294.32 89.1804 285.491 88.0846 275.835 91.036C275.481 91.144 275.137 91.281 274.777 91.399L273.914 91.6933C272.523 92.1779 271.152 92.7172 269.813 93.328C267.114 91.603 263.503 91.563 260.62 94.309C258.362 96.461 255.986 98.527 253.718 100.688C245.49 101.94 237.343 103.709 229.337 105.99C228.859 106.972 228.007 107.802 226.708 108.243C208.674 114.353 191.737 123.47 177.718 136.461C176.142 137.921 174.276 137.958 172.767 137.233C174.654 134.215 176.707 131.304 178.942 128.554C183.419 123.047 188.508 118.097 193.853 113.415C202.434 108.331 211.547 104.135 220.998 100.728C224.413 94.916 227.477 88.815 231.052 83.292L231.181 83.0864C233.822 78.6951 229.963 74.0264 225.492 73.602L225.472 73.602L225.539 73.1846C227.113 63.157 226.356 52.5272 217.942 45.632C216.222 44.222 214.36 43.097 212.427 42.256C212.979 41.253 213.575 40.266 214.26 39.311L214.428 39.0714C219.826 31.1498 212.015 21.925 203.938 21.326C200.19 21.047 196.327 21.454 192.726 22.56C191.741 22.863 190.78 23.305 189.834 23.776C188.733 23.102 187.558 22.6 186.369 22.321C185.325 20.309 183.948 18.547 182.076 17.14C178.232 14.248 173.276 13.106 168.559 14.316C167.724 14.531 166.944 14.823 166.206 15.17C165.155 14.412 163.935 13.796 162.635 13.37C162.056 12.12 161.378 10.935 160.539 9.87101C156.204 4.36301 149.272 3.32901 142.878 5.55701L142.13 5.83201C140.515 5.59201 138.813 5.93201 137.161 7.10001C136.426 7.62001 135.745 8.26501 135.097 8.97201L134.928 9.06101C134.644 8.88501 134.349 8.71901 134.022 8.58201C133.599 8.41601 133.04 8.20501 132.809 8.14901C131.875 7.92401 131.036 7.91301 130.169 8.08201ZM169.342 372.392C160.962 369.203 150.672 368.222 142.193 371.542C141.523 371.802 141.273 373.033 142.193 373.163C150.382 374.372 158.013 376.002 165.273 380.192C168.752 382.203 171.943 384.493 174.792 387.342C177.672 390.222 179.702 394.192 183.322 396.163C187.483 398.432 191.582 394.703 190.832 390.392C189.383 382.067 177.358 375.557 169.956 372.631L169.342 372.392Z" transform="translate(-65.99968 -34.00051)" fill="#000000" fill-rule="evenodd" stroke="none"></path></g></g><g transform="translate(159 186)"><g><path d="M139.603 3.56553C135.664 -1.94347 124.939 -1.13147 123.503 6.43953C120.915 20.0849 135.421 20.5 145.678 20.7936C146.541 20.8183 147.374 20.8421 148.164 20.8729L150.534 20.9796C162.089 21.4589 173.382 20.7633 184.867 19.2685C185.682 19.1615 185.915 18.0855 185.067 17.7945C176.838 14.9775 168.67 11.9555 160.3 9.57154C156.258 8.42054 152.225 7.23253 148.195 6.03753C145.882 5.35153 142.149 4.43953 139.603 3.56553ZM73.5171 5.04064C78.9371 3.07164 84.5701 7.67964 85.2731 12.8726C86.0826 18.8569 81.7664 22.7969 76.2956 23.5116L76.0211 23.5446C63.9451 24.8746 51.9601 27.3066 39.8681 28.6816C34.3763 29.3053 28.8431 29.7157 23.3145 29.8633L19.3635 29.9521C14.5218 30.0745 9.32892 30.1849 4.8591 28.5176L4.8761 28.4876C3.6891 28.1436 3.1431 26.4316 4.4641 25.4956C9.2231 22.1306 15.6381 20.8586 21.1781 19.2596C26.7481 17.6506 32.3591 16.1676 37.9851 14.7746C49.7991 11.8526 62.0711 9.19864 73.5171 5.04064ZM153.46 39.688L153.152 39.7187C147.74 40.2421 138.511 40.3887 134.767 44.8451C133.854 45.931 133.717 47.111 134.31 48.382C136.276 52.5989 143.689 53.5632 149.03 54.0353L150.816 54.1861C150.479 55.1711 150.195 56.1691 149.879 57.062L149.804 57.2893C148.184 62.4353 153.301 67.2333 158.238 66.5701C163.551 65.856 166.167 60.2691 163.962 55.591C168.276 55.9891 172.602 56.1911 176.708 55.7751C187.893 54.6421 187.912 39.4961 176.708 38.3571C170.637 37.7389 164.074 38.4903 157.823 39.2059C156.348 39.3748 154.89 39.5416 153.46 39.688ZM56.7411 44.2924L58.0752 44.1806C58.7215 44.1236 59.3688 44.0633 60.0166 44.0029C65.1694 43.5229 70.3594 43.0394 75.4291 44.2024C83.0961 45.9624 82.534 57.1164 75.4291 59.1674C70.6988 60.5324 65.5823 60.4201 60.576 60.3102L60.5758 60.3102C58.9547 60.2746 57.3452 60.2393 55.7641 60.2544C54.7471 60.2645 53.7321 60.2905 52.7161 60.3074C52.5161 62.7244 51.7231 64.8084 50.5091 66.8904C49.6391 68.3845 48.5291 69.8035 47.4371 71.1304C44.8411 74.2845 38.7181 74.2135 36.0981 71.1304C34.1601 68.8484 32.6171 66.2234 32.5921 63.1345C32.5861 62.3435 32.6821 61.5034 32.8711 60.6775L29.343 60.7391C20.7079 60.8709 12.0069 60.8124 3.52806 59.4405C0.512058 60.0644 -1.95594 54.6224 2.20706 52.9935C13.5241 48.5674 26.1671 47.2645 38.1761 45.9354C44.3471 45.2514 50.5521 44.7804 56.7411 44.2924ZM129.748 115.04C137.871 103.66 126.365 92.9574 118.814 88.3673C116.836 86.9473 118.406 82.2436 122.633 82.9706C161.03 89.5676 141.135 155.708 92.1117 119.413C86.2751 114.705 93.3431 104.334 99.6339 108.366C99.9529 108.611 100.287 108.87 100.636 109.139C107.704 114.603 120.635 124.601 129.748 115.04ZM130.466 158.065C131.041 157.555 130.43 156.623 129.736 156.811C127.323 157.463 124.665 157.129 122.201 157.654C119.792 158.168 117.487 159.054 115.268 160.113C110.239 162.516 105.743 165.796 101.728 169.649C97.1376 174.054 92.6206 179.992 92.7836 186.656C92.9906 195.127 100.433 202.25 109.107 199.635C114.178 198.106 118.674 192.027 116.532 186.557L116.469 186.393C116.253 185.814 115.959 184.932 115.584 184.039L115.832 183.407C117.086 180.274 118.642 177.324 120.253 174.363C121.69 171.721 123.265 169.223 124.899 166.699C126.617 164.046 128.112 160.154 130.466 158.065ZM113.387 180.961C114.023 181.261 114.566 181.994 115.023 182.85C114.795 182.124 114.324 181.402 113.387 180.961Z" transform="translate(52 55.99988)" fill="#000000" fill-rule="evenodd" stroke="none"></path></g></g><g transform="translate(123 338)"></g><g transform="translate(47 241)"></g></g></g></svg>