<?xml version="1.0" standalone="no"?>
<svg viewBox="-395 -150 1500 1500" style="width: 195px; height: 195px; justify-content: center; align-self: center; transform: scale(1, 1);" xmlns="http://www.w3.org/2000/svg"><g transform="rotate(0 348.4207305908203 581.5005246249202)"><g transform="translate(0 459)"><path d="M775.898 68.6694C760.379 7.48967 686.815 -3.14589 633.159 0.69637C616.289 5.1391 615.152 15.9766 613.771 29.1472C613.296 33.6753 612.793 38.4792 611.611 43.3938C606.99 62.6031 592.008 83.5037 562.905 101.07C563.776 99.044 536.193 102.393 535.209 115.513C488.786 133.715 437.665 134.573 392.365 156.383C348.063 179.097 310.074 212.153 269.202 240.28L110.794 354.916C106.996 357.665 105.078 362.026 105.219 366.175C67.3151 394.016 37.0616 431.092 10.3302 469.537L8.62864 471.992C3.64464 476.016 -1.54236 484.474 0.428643 490.376C1.50936 510.007 16.2761 525.544 27.4013 540.747L28.1456 541.772C63.8916 590.33 103.137 636.296 145.296 679.388C166.408 699.191 185.018 726.529 215.901 729.888C247.61 732.377 279.675 728.252 311.141 723.669L320.887 722.239C329.067 720.871 331.382 709.123 325.73 703.869C259.354 642.286 199.515 573.312 148.385 498.559C148.907 498.186 149.485 497.769 149.998 497.398L151.306 496.446C158.396 491.39 171.217 482.087 178.834 476.629L182.374 474.101C189.088 469.335 196.678 464.84 201.792 458.32C223.742 424.846 169.874 375.032 141.541 361.985C214.758 309.422 287.197 255.743 360.676 203.555C378.695 190.917 397.499 178.829 418.236 171.169C456.471 157.102 498.067 154.155 536.279 140.238C554.417 266.455 907.254 244.699 806.126 115.263C790.194 100.703 780.711 90.9319 775.898 68.6694ZM914.779 320.144C914.053 315.54 907.996 310.788 903.28 311.376C846.677 318.456 789.395 318.748 732.723 312.249C724.595 311.316 719.649 320.604 721.203 327.391L728.252 358.163L728.473 359.148C730.288 367.397 731.444 376.651 734.581 384.652C733.69 392.63 731.782 400.922 729.852 409.308C724.602 432.131 719.19 455.654 733.653 475.465C764.568 506.775 816.832 523.336 858.857 506.59C871.957 501.009 883.368 491.829 890.911 479.649C898.303 467.714 901.615 453.829 904.578 440.213L906.057 433.377C914.093 396.043 920.795 358.31 914.779 320.144ZM1024.89 412.266C1073.87 338.565 1120.56 420.109 1140.95 469.256C1163.72 532.805 1120.43 610.17 1088.4 667.419C1086.53 670.761 1084.7 674.034 1082.92 677.231C1071.05 693.333 1055.43 727.297 1034.51 729.759C981.787 729.544 928.994 725.832 876.242 724.726C842.18 716.276 889.97 665.089 922.982 683.785C932.984 687.527 937.981 698.883 947.734 702.526C950.965 703.215 951.461 701.968 952.611 699.076C952.726 698.787 952.847 698.482 952.978 698.161L953.183 697.666C955.76 691.543 958.259 685.386 960.797 679.247C982.274 626.357 1004.98 573.934 1027.56 521.533C1032.38 510.156 1025.61 500.783 1016.82 494.011C1014.98 492.5 1011.5 490.394 1007.95 488.251C998.481 482.539 988.584 476.565 1008.42 480.895C997.914 456.522 1010.53 431.783 1024.89 412.266Z" transform="translate(-224 -30.00002)" fill="#FFFFFF" fill-rule="evenodd" stroke="none"></path><path d="M630.857 0.303104C630.797 -0.115896 630.137 -0.0858957 630.047 0.303104C626.227 16.9141 620.537 32.8141 609.667 46.2741C604.407 52.7741 598.157 58.6751 591.097 63.1641C584.027 67.6641 576.557 68.9341 568.987 71.5941C567.537 70.3941 565.907 69.4441 564.347 68.7941C560.567 67.2341 555.747 67.7441 551.907 69.2041C536.427 69.5641 520.887 71.9841 505.707 74.8031C488.817 77.9341 471.997 81.3941 455.247 85.1941C438.517 88.9941 421.877 93.2551 405.327 97.7841L404.345 98.051C389.59 102.037 373.489 105.291 360.097 112.814C354.405 116.011 349.294 120.157 344.288 124.349L334.52 132.55L314.546 149.359C303.305 158.809 292.034 168.232 280.867 177.774C254.087 200.664 227.367 223.614 200.497 246.404C185.537 259.094 170.577 271.784 155.617 284.464C148.267 290.704 140.917 296.944 133.567 303.175C125.747 309.803 117.437 316.133 110.227 323.414C107.587 326.074 108.347 330.264 111.357 332.224C112.347 332.864 113.317 333.524 114.287 334.214C103.507 341.633 93.427 349.644 83.757 358.734C71.447 370.284 59.387 382.184 47.857 394.524C36.367 406.824 24.977 419.244 13.787 431.814L13.3302 432.329C8.4623 437.828 3.78308 443.674 1.41702 450.714C-1.16298 458.374 -0.00273869 466.244 3.14702 473.514C9.15701 487.335 18.747 500.224 27.037 512.755C35.587 525.664 44.507 538.294 53.817 550.664C72.917 576.014 93.297 600.714 115.787 623.144C140.287 647.585 166.917 670.344 195.907 689.294C202.797 693.794 209.227 682.734 202.347 678.284C152.707 646.184 111.107 602.425 74.637 556.255C56.427 533.204 39.427 509.114 23.557 484.394L23.1705 483.795C19.2835 477.794 14.7738 471.632 12.877 464.684C10.9112 457.476 13.9226 451.197 18.1531 445.523L18.637 444.883C28.327 432.244 39.747 420.633 50.407 408.803L55.5238 403.128C65.7599 391.776 76.0284 380.441 86.657 369.444C93.057 362.835 99.487 356.224 106.007 349.744C109.319 346.448 112.452 342.966 115.554 339.458L117.877 336.824C125.298 342.437 132.25 348.987 138.937 355.444L143.357 359.724C153.197 369.264 162.497 379.335 171.257 389.883C182.907 403.904 193.347 418.744 202.867 434.184C202.487 434.474 202.117 434.764 201.737 435.064C201.407 435.324 201.117 435.624 200.877 435.944C192.906 440.044 185.552 445.369 178.237 450.557L176.147 452.034C170.297 456.144 164.457 460.274 158.727 464.553C158.521 464.707 158.314 464.862 158.105 465.019C153.516 468.445 148.28 472.355 149.887 478.734C150.577 481.484 154.037 483.794 156.857 482.694C158.507 482.053 159.637 481.204 160.637 480.194C163.239 486.898 167.53 493.439 171.565 499.261L172.527 500.644C177.127 507.244 181.932 513.697 186.762 520.13L190.387 524.954C201.067 539.175 211.967 553.303 223.197 567.094C245.387 594.344 269.087 620.494 295.427 643.803C310.457 657.114 326.107 669.764 342.647 681.154C351.387 687.184 359.777 672.814 350.977 666.914C295.299 629.589 251.853 576.964 208.846 526.18L202.765 519.009C196.482 511.616 190.148 504.251 183.587 497.114C177.477 490.464 170.657 482.814 162.867 477.774C162.904 477.727 162.944 477.68 162.986 477.633L163.247 477.344C165.047 475.374 167.297 473.744 169.337 472.034C174.477 467.734 179.657 463.474 184.857 459.234C189.647 455.335 194.517 451.484 199.047 447.284C202.777 452.284 208.077 456.374 213.347 459.694L213.857 460.018C214.197 460.231 214.537 460.438 214.877 460.644C216.557 461.654 218.267 461.874 219.807 461.514L219.817 461.514L220.036 461.59C221.723 462.126 223.626 461.552 224.987 460.344C239.957 456.024 254.027 447.714 268.037 441.064C283.387 433.784 298.917 426.844 314.527 420.154C343.387 407.784 373.007 396.255 403.087 387.064C414.297 459.604 417.137 532.505 412.277 605.784C410.877 626.724 409.507 647.675 407.067 668.524C405.877 669.724 404.737 670.954 403.907 672.335C401.037 677.124 402.097 683.064 406.857 686.303C411.469 689.445 418.01 689.437 423.84 689.43C425.305 689.428 426.724 689.426 428.057 689.474L431.4 689.585C436.973 689.749 442.555 689.816 448.134 689.871L461.335 689.994C489.538 690.21 517.747 689.9 545.95 689.502L581.316 688.99C643.898 688.097 706.521 687.466 769.047 690.755C788.377 691.764 807.647 693.374 826.927 695.074C846.017 696.755 865.207 697.954 884.277 695.414C890.627 694.564 892.697 689.133 891.177 684.974C897.527 686.774 904.517 686.744 911.027 687.244L912.53 687.356C919.532 687.855 926.358 688 933.237 686.133C935.107 685.624 935.797 682.574 933.817 681.684C924.397 677.444 914.297 677.164 904.167 676.324L901.53 676.108C899.77 675.956 898.01 675.767 896.277 675.414C896.02 675.363 895.345 675.119 894.522 674.807L892.537 674.044C892.827 673.694 893.117 673.335 893.397 673.053C895.027 671.434 896.737 669.944 898.627 668.624C907.727 662.294 918.237 660.264 928.347 661.925C929.617 663.654 931.377 665.014 933.417 665.574C935.297 666.094 937.337 665.904 939.207 665.194C942.767 666.784 946.177 668.854 949.347 671.374C949.847 671.774 950.687 671.274 950.297 670.633C948.367 667.474 946.067 664.714 943.487 662.364C945.647 660.074 946.687 656.904 945.347 653.644C943.587 649.364 941.057 643.883 936.657 641.714C936.777 640.449 936.673 639.115 936.514 637.736L936.387 636.694C935.837 632.194 935.367 627.684 934.917 623.164C934.007 614.144 933.347 605.104 932.947 596.053C932.137 577.934 932.447 559.803 933.137 541.694C934.547 504.974 938.957 468.414 944.417 432.104C944.807 429.524 945.197 426.934 945.577 424.354C945.617 425.085 945.827 425.835 946.167 426.633C947.907 430.764 951.737 434.844 954.597 438.284C960.284 445.095 967.132 450.305 974.196 455.462L978.048 458.264C981.316 460.648 984.514 463.145 987.277 466.104C990.087 469.114 991.407 472.744 993.627 476.104C996.097 479.864 999.727 482.414 1004.35 482.294C1008.01 482.196 1011.58 480.272 1014.9 478.245L1018.01 476.324C1019.64 477.814 1021.95 478.494 1024.74 477.553C1026.34 477.014 1027.94 476.464 1029.54 475.894C1030.77 478.784 1034.59 483.61 1035.51 484.589L1035.63 484.704C1037.97 486.914 1040.63 488.784 1043.47 490.324C1043.26 490.344 1043.05 490.425 1042.9 490.585C1031.33 502.216 1024.76 519.093 1018.4 534.102L1017.73 535.675C1011.6 550.024 1005.87 564.548 1000.2 579.085L994.427 593.922C988.6 608.889 982.802 623.87 977.567 639.053C974.557 647.794 971.657 656.564 968.697 665.324C965.787 673.954 961.977 682.755 959.957 691.624C958.417 698.383 968.017 703.094 971.537 696.514C975.817 688.524 978.687 679.464 982.137 671.074C985.667 662.484 989.207 653.883 992.727 645.284C998.423 631.349 1003.58 617.197 1008.67 603.026L1013.62 589.212C1019.36 573.204 1025.08 557.176 1030.34 540.994C1033.1 532.494 1035.78 523.994 1038.44 515.474L1039.74 511.302C1041.81 504.718 1043.76 498.204 1044.66 491.314C1044.68 491.175 1044.66 491.044 1044.62 490.934C1045.87 491.564 1047.16 492.133 1048.46 492.644C1053.73 494.704 1059.26 495.744 1064.87 496.364L1065.23 496.404C1065.71 496.459 1066.2 496.516 1066.69 496.574C1072.29 497.235 1078.08 497.919 1082.65 494.194C1084.78 492.464 1084.72 488.303 1082.65 486.574C1078.84 483.378 1073.93 483.408 1069.06 483.437C1067.33 483.448 1065.61 483.458 1063.94 483.324C1057.97 482.835 1052.08 481.614 1046.56 479.255C1042.97 477.714 1040.14 475.294 1037.13 473.053C1061.78 463.374 1085.08 449.314 1099.87 426.734C1109.26 412.373 1112.33 396.288 1114.11 379.541L1114.29 377.864C1115.22 368.734 1115.35 360.335 1110.58 352.154C1105.6 343.594 1099.34 335.585 1093.79 327.374C1070.84 293.454 1048.02 259.454 1025.2 225.454C1013.9 208.604 1003.13 191.364 991.697 174.604C986.697 167.274 981.377 159.454 974.527 153.734C967.797 148.114 960.127 144.044 952.387 140.014L948.43 137.961C929.958 128.39 911.402 119.002 892.567 110.154C888.787 108.374 884.767 106.364 880.577 104.364C873.677 100.194 865.347 97.3841 857.977 94.3241L856.488 93.7091C849.03 90.6444 841.401 87.7435 833.667 85.4841C827.897 83.7941 821.007 84.4841 818.037 89.6141C812.997 85.9341 808.587 81.5531 804.517 76.7841C799.587 71.0241 795.477 64.4441 792.367 57.5241C790.757 53.9541 789.537 50.2041 788.457 46.4341C787.527 43.1941 787.237 39.7741 785.727 36.7441C785.387 36.0641 784.187 36.0141 783.867 36.7441C781.066 43.0797 782.815 51.9512 784.555 58.6576L784.887 59.9141C787.137 68.3241 791.037 76.2041 796.197 83.2041C801.147 89.9251 807.447 95.6751 814.317 100.384C811.027 110.484 808.317 120.734 804.357 130.664C800.327 140.794 795.867 151.585 787.767 159.175C773.757 172.309 750.71 172.376 731.85 172.43C730.418 172.434 729.009 172.438 727.631 172.448L724.491 172.477C680.039 172.835 632.706 165.357 598.997 133.894C590.567 126.024 583.897 117.034 578.297 106.984C575.167 101.364 572.287 95.5941 569.077 90.0241C567.997 88.1541 566.937 86.2841 565.787 84.5051C566.067 84.6641 566.367 84.8031 566.687 84.9251C576.895 88.9119 588.007 82.9751 596.23 76.8273L596.857 76.3541C604.907 70.2141 611.737 62.5741 617.277 54.1141C627.427 38.6241 633.657 18.9251 630.857 0.303104ZM862.481 306.961C879.511 306.847 896.558 306.732 913.517 305.564C913.547 306.294 913.567 307.014 913.587 307.744C905.857 306.624 897.507 308.344 890.257 310.904C882.657 313.585 874.997 316.904 866.867 317.494C859.277 318.044 852.377 315.494 845.597 312.374L842.73 311.059C839.859 309.748 836.98 308.46 834.077 307.335C834.197 307.335 834.317 307.324 834.437 307.324L837.474 307.253C845.797 307.073 854.137 307.017 862.481 306.961ZM799.497 308.534C797.627 308.604 795.757 308.684 793.887 308.764C786.967 309.064 780.047 309.404 773.127 309.794C771.788 309.867 770.363 310.034 768.902 310.205C765.137 310.646 761.133 311.116 757.747 310.064C757.627 310.544 757.467 311.005 757.257 311.454C757.967 314.994 758.407 318.654 758.677 322.354C763.017 322.824 767.427 322.664 771.707 321.774C781.977 319.644 790.317 313.164 799.497 308.534ZM874.797 324.534C887.467 321.244 900.447 312.614 913.717 312.154C913.977 320.794 914.167 329.434 914.217 338.053C909.687 334.434 903.067 333.104 897.067 334.154C891.351 335.149 885.85 338.302 880.34 341.46C872.067 346.201 863.773 350.955 854.697 348.434C847.957 346.553 842.387 341.704 836.627 337.954C830.867 334.204 824.277 331.133 817.307 330.854C810.827 330.585 805.047 333.394 800.617 338.014C795.797 343.044 792.497 349.154 785.477 351.434C778.211 353.785 771.93 351.281 765.836 347.471L765.147 347.034C763.227 345.794 761.207 344.434 759.107 343.234C759.104 342.116 759.105 340.991 759.105 339.857L759.105 339.848C759.106 337.022 759.107 334.165 759.057 331.303C771.839 332.367 782.987 328.1 793.935 321.867L795.087 321.204C801.097 317.704 807.277 313.835 814.267 312.694C821.437 311.534 828.387 314.085 834.857 316.925L836.484 317.642C849.092 323.2 860.644 328.207 874.797 324.534ZM827.757 343.574C823.987 341.585 819.397 339.734 815.037 340.314C810.877 340.863 808.105 343.685 805.543 346.701L804.156 348.353C799.573 353.774 795.062 358.333 787.997 360.564C780.677 362.864 772.917 361.964 766.107 358.594C763.687 357.394 761.437 355.904 759.177 354.434L759.297 370.383C763.817 372.633 768.417 374.664 773.467 375.894C782.787 378.164 790.707 376.484 798.677 371.344L799.514 370.799C805.517 366.857 811.672 362.164 819.087 361.724C826.323 361.291 831.754 365.303 836.519 370.213L837.077 370.794C843.087 377.133 849.157 380.224 858.097 379.494C866.764 378.786 874.876 374.959 882.816 371.662L883.537 371.364C890.797 368.383 899.167 365.314 907.137 366.454C909.047 366.724 911.517 367.314 913.717 368.344C914.037 360.883 914.187 353.414 914.217 345.934C909.687 342.005 902.637 341.354 896.967 342.964C888.087 345.484 880.817 351.984 872.337 355.514C864.817 358.644 856.977 359.344 849.307 356.383C841.387 353.324 835.177 347.494 827.757 343.574ZM812.507 374.074C815.287 372.524 818.517 371.014 821.787 371.644C825.171 372.301 827.615 374.975 829.9 377.406L830.657 378.204C835.867 383.604 841.527 387.544 849.067 388.755C857.207 390.064 865.657 388.544 873.287 385.624C881.337 382.553 888.907 378.274 897.037 375.404C900.757 374.094 904.947 372.835 908.937 372.854C910.607 372.864 912.057 373.244 913.457 373.764C913.067 381.335 912.487 388.894 911.687 396.454C901.513 391.127 888.283 396.456 878.091 401.138L876.217 402.005C868.167 405.744 860.337 408.564 851.327 407.734C842.806 406.95 836.201 402.934 829.39 398.313L827.597 397.089C821.639 393.051 814.67 389.498 807.277 391.324C800.047 393.104 794.517 398.803 787.307 400.914C780.237 402.984 772.627 403.204 765.447 401.564C763.427 401.094 761.447 400.505 759.517 399.774C759.467 393.704 759.417 387.633 759.377 381.564C769.637 385.914 780.937 388.204 791.267 385.544C799.297 383.474 805.417 378.005 812.507 374.074ZM1114.2 379.624C1114.03 378.865 1114.94 378.284 1115.53 378.855C1125.5 388.464 1132.54 400.744 1140.27 412.124C1147.63 422.964 1155.64 433.384 1161.13 445.345C1166.23 456.464 1169.52 467.744 1170.5 479.964C1171.48 492.095 1170.21 504.255 1168.07 516.204C1163.86 539.744 1154.86 562.034 1144.98 583.685C1135.37 604.732 1124.52 625.18 1113.06 645.256L1108.95 652.424C1103.94 661.15 1098.87 669.861 1093.45 678.315C1086.7 688.835 1080.54 699.695 1071.64 708.475C1065.32 714.725 1053.41 708.475 1056.29 699.544C1057.54 695.655 1058.52 691.994 1060.46 688.384C1061.93 685.634 1063.59 682.964 1065.15 680.255C1068.27 674.835 1071.36 669.395 1074.48 663.975C1081.03 652.585 1087.93 641.405 1094.42 629.975C1105.68 610.155 1116.31 589.964 1125.71 569.185L1126.81 566.732C1135.46 547.49 1143.66 527.559 1147.46 506.744C1151.46 484.815 1147.88 464.145 1140.09 443.534C1136.06 432.874 1131.53 422.454 1126.82 412.074L1125.91 410.091C1121.36 400.184 1116.54 390.33 1114.2 379.624ZM821.749 404.753L820.544 403.977C817.366 401.949 813.721 399.848 809.827 400.594C806.347 401.264 803.357 404.034 800.327 405.744C793.677 409.494 786.217 411.544 778.607 412.064C772.277 412.494 765.707 411.724 759.617 409.844L759.827 429.505C762.057 430.214 764.367 430.724 766.797 430.904C774.177 431.454 781.377 429.684 787.567 425.614L790.698 423.535C796.057 420.014 801.085 417.22 808.177 418.505C815.197 419.784 821.087 424.284 826.827 428.204L827.768 428.836C834.36 433.188 841.042 435.997 849.127 436.064C857.857 436.133 866.487 433.704 874.617 430.714C882.687 427.755 890.357 424.204 898.987 423.114C901.627 422.784 904.847 422.684 907.877 423.204C908.277 420.974 908.657 418.755 909.017 416.524C909.797 411.734 910.467 406.954 911.047 402.164C900.929 399.441 891.322 404.34 881.865 409.162C877.013 411.636 872.199 414.09 867.377 415.484C859.127 417.864 850.147 417.835 841.897 415.534C834.263 413.404 828.262 408.982 821.749 404.753ZM819.419 435.241L820.497 435.974C827.147 440.434 833.817 444.053 841.847 445.214C850.077 446.404 858.427 445.383 866.417 443.234C874.577 441.044 882.157 437.294 889.907 434.005C894.007 432.264 898.147 430.704 902.547 429.894C903.947 429.633 905.327 429.564 906.687 429.564C906.617 429.954 906.537 430.354 906.457 430.744C905.687 434.644 905.487 440.204 903.137 443.524C900.977 446.585 896.337 448.324 893.237 450.144L892.877 450.354L892.066 450.36C889.632 450.402 887.183 450.676 884.807 451.144C879.67 452.146 874.616 454.237 869.548 456.333C860.398 460.119 851.201 463.923 841.387 461.374C828.947 458.154 819.117 448.484 806.107 446.814C799.197 445.925 792.887 447.803 786.637 450.614L784.447 451.595C781.201 453.04 778.114 454.358 774.907 455.454C769.967 453.335 765.027 451.234 760.057 449.184L759.957 440.303C766.527 441.664 773.527 441.454 779.637 440.044C783.317 439.194 786.947 437.784 790.247 435.944C793.527 434.124 796.257 431.394 799.587 429.704C806.373 426.261 813.045 430.854 818.718 434.759C818.953 434.921 819.187 435.082 819.419 435.241ZM804.057 456.094C798.057 455.675 792.657 458.154 787.297 460.794C790.317 462.104 793.337 463.404 796.357 464.694L816.457 473.274C823.097 476.104 830.127 478.564 836.437 482.053C836.887 482.303 837.247 482.604 837.517 482.954C844.077 478.755 851.017 475.005 857.667 471.014C859.187 470.104 860.717 469.194 862.247 468.284C854.327 470.934 846.207 472.264 837.607 469.774C826.137 466.464 816.177 456.944 804.057 456.094Z" transform="translate(-236.9973 -6.999804)" fill="#000000" fill-rule="evenodd" stroke="none"></path></g><g transform="translate(225 0)"><g><g><path d="M355.263 99.3187C366.641 91.1467 349.675 64.2597 343.911 56.2597C338.897 45.8237 333.883 35.3867 328.868 24.9497C329.478 16.3907 321.12 8.77573 312.861 11.3797C305.676 6.22673 293.642 8.69373 289.99 16.7617C210.543 -17.8403 73.0773 -3.44527 65.9683 103.327C50.6003 133.727 35.3683 164.387 21.7333 195.608C2.81534 196.624 -6.35466 219.607 4.90834 234.46C6.40734 258.579 21.6983 260.488 42.1123 259.415C50.3103 261.574 58.8083 262.744 64.9563 269.075C69.6293 273.85 72.8053 279.905 75.8703 285.78C90.0153 312.886 107.986 336.334 132.346 355.085C170.229 383.436 221.511 403.791 268.749 389.99C370.306 350.108 390.25 190.722 355.263 99.3187L355.263 99.3187Z" transform="translate(50.00006 125.9998)" fill="#FFFFFF" stroke="none"></path><path d="M335.259 61.2131C289.209 10.2631 214.669 -10.4169 148.319 4.99306C80.7995 20.6731 30.2595 75.8031 13.7995 142.313C9.25949 160.663 7.04949 179.893 8.37949 198.783C9.03949 208.043 10.3695 217.193 12.7495 226.173C14.3795 232.323 16.5895 238.873 19.9295 244.523C17.5295 245.833 15.3095 247.363 13.3395 249.103C-5.35051 265.583 -3.42051 296.463 13.0295 313.733C24.9595 326.263 43.9695 328.883 60.4795 327.803C61.0095 327.773 61.5695 327.693 62.1195 327.573C62.5095 328.813 63.0095 330.023 63.5095 331.213C65.2295 335.303 67.2195 339.303 69.0695 343.333C72.3157 350.394 76.1209 357.195 80.016 363.917L82.0871 367.477C89.6505 380.504 97.6955 395.302 110.009 404.373C115.719 408.573 124.499 412.533 131.419 409.203C135.409 407.283 138.379 402.833 137.119 398.243C135.859 393.653 131.919 391.563 127.679 390.503C115.315 387.424 107.915 373.332 100.782 363.574L100.219 362.813C94.1295 354.663 87.6595 346.683 80.7795 339.183C78.4366 336.633 76.007 334.144 73.5636 331.677L69.9917 328.079C68.9237 327.01 67.8278 325.961 66.6695 325.003C66.9595 324.653 67.2095 324.263 67.3995 323.833C68.7695 320.823 68.8695 318.763 67.3995 315.743C66.1495 313.183 63.1595 311.883 60.4795 311.773C58.9413 311.711 57.3833 311.67 55.816 311.629C43.4442 311.301 30.4937 310.958 22.1595 300.343C15.8095 292.273 13.7295 280.963 16.5595 271.153C19.6395 260.493 29.1395 253.833 39.6395 251.643C51.3095 249.203 62.3495 251.763 72.4895 257.793C73.0195 258.113 73.4695 257.503 73.2595 257.023C72.2295 254.623 70.9295 252.483 69.4095 250.593L70.1895 249.953L70.2771 250.066C70.4937 250.32 70.7945 250.512 71.1795 250.573C78.5095 251.713 85.3395 253.513 91.3495 257.773C92.0195 258.233 92.6895 258.743 93.3395 259.283C96.6495 262.033 102.699 260.513 102.479 255.503C101.829 240.303 98.9195 225.113 97.6395 209.953C96.3095 194.273 95.9195 178.603 96.3395 162.883L96.3479 162.516C96.358 162.038 96.3651 161.553 96.3723 161.063C96.448 155.888 96.5321 150.14 100.249 146.253C101.71 144.719 108.138 144.509 115.979 144.252C126.34 143.913 139.167 143.493 146.259 139.833C152.569 136.583 151.069 128.523 146.259 124.943C138.819 119.413 132.519 102.003 141.919 92.8031C150.619 84.2773 165.304 80.5371 177.154 78.7549L178.329 78.5831C199.442 75.5753 220.921 78.2398 242.169 80.8757C249.886 81.8329 257.572 82.7864 265.199 83.4631C273.289 84.1931 281.419 84.6731 289.549 84.6831L290.638 84.6832C298.45 84.6816 306.484 84.5742 313.24 80.5131C317.029 80.1631 320.589 79.0531 324.149 77.7231C340.299 101.793 351.71 129.543 358.339 157.723C365.239 187.033 366.339 217.423 365.629 247.423C364.169 308.823 357.369 384.803 301.399 422.593C286.759 432.473 270.629 437.913 252.919 438.413C242.909 438.703 233.02 437.583 223.249 435.443C213.259 433.263 203.669 429.063 193.6 427.573C185.239 426.343 180.129 436.453 187.709 441.543C195.098 446.496 204.073 449.009 212.727 451.176L215.009 451.743C224.509 454.093 234.239 455.633 243.999 456.313C262.509 457.613 280.829 454.503 297.869 447.213C327.459 434.543 351.059 407.933 364.339 378.993C380.899 342.883 384.729 302.963 385.839 263.693L385.887 261.948C386.748 229.369 385.815 196.511 379.379 164.473C375.77 146.513 370.219 129.253 361.519 113.083C353.479 98.1331 341.749 85.7131 327.679 76.3631C328.609 76.0031 329.539 75.6331 330.489 75.2831C331.27 76.3451 332.078 77.3819 332.896 78.4151L334.539 80.4831C335.649 81.8931 338.079 81.6531 339.249 80.4831C340.429 79.2931 340.629 76.9431 339.249 75.7731C337.929 74.6631 336.629 73.5531 335.299 72.4731C338.149 69.4531 338.499 64.7931 335.259 61.2131ZM64.7389 275.687C51.0892 272.071 26.0704 265.443 28.7496 280.983C28.8396 281.513 29.7496 281.523 29.8296 280.983C31.1416 272.485 41.8144 278.218 47.3526 281.193C48.1885 281.642 48.9075 282.028 49.4596 282.293L50.5901 282.824C55.8857 285.275 61.4403 287.349 66.4896 290.243L66.7737 290.4C76.1079 295.355 81.3938 278.719 71.9096 277.403L71.6682 277.367C70.1805 277.129 67.7333 276.481 64.7389 275.687Z" transform="translate(45.00021 64.99994)" fill="#000000" fill-rule="evenodd" stroke="none"></path></g></g><g transform="translate(159 186)"><g><path d="M152.262 2.4138C143.68 -0.975204 133.548 -0.875203 125.215 3.2198C117.442 7.0418 111.469 14.8988 109.608 23.3168C108.327 29.1068 108.501 41.0438 116.013 42.7818C116.132 42.8098 116.296 42.7908 116.378 42.6858C118.897 39.4558 119.206 34.8768 120.846 31.1688C122.77 26.8148 125.585 22.4978 129.686 19.9338C136.448 15.7078 147.205 17.1658 152.002 23.8118C152.755 32.7648 167.612 34.3698 169.681 24.8978C171.943 14.5492 161.499 6.24101 152.831 2.6441L152.262 2.4138ZM164.478 67.716C162.933 66.6023 161.237 66.0004 159.464 66.0004C157.691 66.0004 155.995 66.6023 154.45 67.716C152.93 68.812 151.554 70.4118 150.408 72.407C148.239 76.1828 146.883 81.396 146.883 87.1604C146.883 92.9248 148.239 98.138 150.408 101.914C151.554 103.909 152.93 105.509 154.45 106.605C155.995 107.719 157.691 108.32 159.464 108.32C161.237 108.32 162.933 107.719 164.478 106.605C165.998 105.509 167.374 103.909 168.52 101.914C170.689 98.138 172.045 92.9248 172.045 87.1604C172.045 81.396 170.689 76.1828 168.52 72.407C167.374 70.4118 165.998 68.812 164.478 67.716ZM77.3467 71.88L78.0143 71.7534C81.909 71.045 83.8771 71.2835 87.2687 73.938C89.8177 75.933 89.0877 79.862 87.2687 81.96C84.5873 85.0541 81.9579 85.0658 78.5822 85.0809C77.9692 85.0836 77.3316 85.0865 76.6646 85.1079L76.3597 85.119C72.7427 85.266 69.1227 85.369 65.5027 85.424C64.5127 85.44 63.5217 85.436 62.5317 85.442C62.6367 94.603 57.3547 101.578 50.3987 106.881C45.9027 110.31 40.2157 106.354 38.6117 102.086C37.2847 98.554 36.9997 94.211 37.6877 90.344C37.9426 88.9186 38.4738 87.3713 39.2862 86.0519L39.5147 85.698L39.4777 85.192C39.4725 85.1194 39.4733 85.0483 39.4742 84.9768C39.4748 84.9251 39.4754 84.8734 39.4737 84.821C33.0162 84.4286 26.596 83.781 20.178 82.9673L18.0387 82.69C12.5607 81.965 4.51572 81.732 0.0827243 78.169C-0.0572757 78.055 -0.00727572 77.806 0.140724 77.727C2.57768 76.4145 5.05017 76.4888 7.77563 76.3678L8.16672 76.349C11.1307 76.196 14.088 76.0683 17.0503 75.9668L20.0147 75.874C27.5967 75.657 35.1857 75.289 42.7607 74.886C44.0777 74.816 45.3947 74.733 46.7137 74.652C48.0927 74.074 49.5587 73.728 51.0067 73.664C52.2067 73.61 53.3607 73.776 54.4457 74.121C57.2125 73.9072 59.9775 73.6744 62.7405 73.4241L65.5027 73.168C69.4007 72.797 73.4987 72.635 77.3467 71.88ZM120.814 117.367C128.366 121.957 139.872 132.66 131.748 144.04C122.636 153.601 109.704 143.603 102.636 138.139C102.288 137.87 101.953 137.611 101.634 137.366C95.3435 133.334 88.2755 143.705 94.112 148.413C143.136 184.708 163.031 118.568 124.634 111.971C120.406 111.244 118.836 115.947 120.814 117.367ZM97.0803 206.526C97.0773 206.465 96.9843 206.465 96.9873 206.526C97.1703 210.85 98.3953 214.896 100.64 218.595C100.671 218.647 100.752 218.6 100.721 218.547C98.4773 214.851 97.2633 210.846 97.0803 206.526ZM105.884 223.932C108.08 223.626 110.325 223.048 112.581 222.467C118.09 221.047 123.669 219.61 128.791 222.078C132.166 223.704 133.768 229.265 131.486 232.356C128.001 237.077 124.403 237.858 118.746 238.312C114.505 238.652 110.241 238.677 106.011 238.188L104.935 238.056C97.3873 237.082 89.5425 234.975 83.6949 229.903C82.4989 228.865 83.1119 226.623 84.6469 226.299C91.5909 224.838 98.8549 224.911 105.884 223.932Z" transform="translate(49.99998 26.9998)" fill="#000000" fill-rule="evenodd" stroke="none"></path></g></g><g transform="translate(123 338)"><g><path d="M209.269 10.0051C205.955 5.55612 199.998 -0.282876 193.972 0.0311243C193.201 0.0711243 192.912 0.906124 193.375 1.47112C195.346 3.87812 198.039 5.59012 200.014 8.04712C202.351 10.9551 204.038 14.4621 205.135 18.0091C206.729 23.1621 207.169 28.9941 205.748 34.2341C203.244 43.4701 195.327 50.2401 186.689 53.6971C178.139 57.1191 167.851 58.2881 159.765 53.2741C147.83 45.8721 137.707 35.2021 122.706 34.9911C119.197 34.9421 116.724 36.5491 115.251 38.8431C113.771 36.6311 111.329 35.0661 107.908 35.0271C91.0909 34.8381 78.5388 46.4151 64.4239 53.6321C54.8849 58.5101 42.5419 56.9961 32.7009 53.7731C23.4179 50.7341 13.3409 44.6311 9.83886 34.9941C7.90586 29.6721 8.33886 23.4581 10.3239 18.2121C11.6289 14.7621 13.6439 11.4291 16.1369 8.71812C18.7219 5.90612 22.1199 4.13812 24.7679 1.47212C25.3089 0.927124 24.8819 0.0801243 24.1709 0.0311243C12.9249 -0.731876 2.76986 12.6961 0.646859 22.4381C-1.44414 32.0321 1.67386 41.6011 7.98486 48.9221C20.8179 63.8061 44.5799 68.7151 63.0739 64.3411C78.0429 60.8021 92.2599 52.6501 107.908 53.8201C111.338 54.0771 113.8 52.6471 115.286 50.4791C116.774 52.7101 119.252 54.1691 122.706 53.8351C137.29 52.4221 150.307 62.7501 164.463 65.2721C175.734 67.2791 187.909 64.5721 197.567 58.5001C207.662 52.1531 214.768 41.9721 215.236 29.8341C215.505 22.8511 213.456 15.6261 209.269 10.0051" transform="translate(95.99974 2.999676)" fill="#000000" stroke="none"></path></g></g><g transform="translate(47 241)"></g></g></g></svg>