<svg width="180" height="186" viewBox="0 0 180 186" fill="none" xmlns="http://www.w3.org/2000/svg">
<path d="M53.9206 106.942C83.0754 106.942 106.71 83.2746 106.71 54.0795C106.71 24.8844 83.0754 1.21706 53.9206 1.21706C24.7659 1.21706 1.13123 24.8844 1.13123 54.0795C1.13123 83.2746 24.7659 106.942 53.9206 106.942Z" fill="#FEC656"/>
<path fill-rule="evenodd" clip-rule="evenodd" d="M106.869 54.0795C106.869 24.8843 83.2334 1.21706 54.0794 1.21706C24.9246 1.21706 1.28998 24.8843 1.28998 54.0795C1.28998 83.2747 24.9246 106.942 54.0794 106.942C83.2334 106.942 106.869 83.2747 106.869 54.0795ZM1.92504 54.0795C1.92504 25.2355 25.2753 1.853 54.0794 1.853C82.8842 1.853 106.234 25.2355 106.234 54.0795C106.234 82.9235 82.8842 106.306 54.0794 106.306C25.2753 106.306 1.92504 82.9235 1.92504 54.0795Z" fill="black"/>
<path fill-rule="evenodd" clip-rule="evenodd" d="M15.3626 79.4725C15.3626 79.4725 14.8425 81.6352 15.3626 82.5182C20.5704 91.3614 29.2433 96.7844 38.3785 99.3949C53.4496 103.702 32.8217 87.8097 26.691 79.4725C20.5603 71.1354 15.3626 79.4725 15.3626 79.4725Z" fill="#FEC656"/>
<path d="M43.6009 65.9239C46.889 65.9239 49.5546 63.2546 49.5546 59.9619C49.5546 56.6692 46.889 54 43.6009 54C40.3128 54 37.6472 56.6692 37.6472 59.9619C37.6472 63.2546 40.3128 65.9239 43.6009 65.9239Z" fill="black"/>
<path d="M44.7917 21.7261H30.5028C28.9245 21.7261 27.645 23.0073 27.645 24.5878C27.645 26.1683 28.9245 27.4495 30.5028 27.4495H44.7917C46.37 27.4495 47.6494 26.1683 47.6494 24.5878C47.6494 23.0073 46.37 21.7261 44.7917 21.7261Z" fill="black"/>
<path fill-rule="evenodd" clip-rule="evenodd" d="M47.6494 24.749C47.6494 23.0368 46.2634 21.6488 44.5535 21.6488H30.7409C29.031 21.6488 27.645 23.0368 27.645 24.749C27.645 26.4611 29.031 27.8492 30.7409 27.8492H44.5535C46.2634 27.8492 47.6494 26.4611 47.6494 24.749ZM30.7409 22.2848H44.5535L44.6037 22.2852C45.9397 22.312 47.0144 23.4048 47.0144 24.749C47.0144 26.1099 45.9125 27.2133 44.5535 27.2133H30.7409L30.6908 27.2128C29.3548 27.1859 28.2801 26.0931 28.2801 24.749C28.2801 23.388 29.3819 22.2848 30.7409 22.2848Z" fill="black"/>
<path d="M74.5269 16.6713L61.0906 21.0431C59.5472 21.5452 58.7026 23.2052 59.2041 24.7507C59.7055 26.2962 61.3632 27.142 62.9066 26.6398L76.3429 22.2681C77.8862 21.7659 78.7309 20.106 78.2294 18.5605C77.7279 17.015 76.0703 16.1692 74.5269 16.6713Z" fill="black"/>
<path fill-rule="evenodd" clip-rule="evenodd" d="M78.2784 18.6332C77.7497 17.0049 76.0033 16.1136 74.3776 16.6427L61.2404 20.917C59.6143 21.4461 58.7243 23.1951 59.2526 24.8234C59.781 26.4519 61.5276 27.343 63.1538 26.8139L76.2907 22.5396C77.9164 22.0105 78.8071 20.2615 78.2784 18.6332ZM61.4366 21.5218L74.5728 17.2475L74.6205 17.2326C75.9001 16.8446 77.2591 17.5513 77.6735 18.8297C78.0942 20.124 77.3862 21.5143 76.0938 21.9348L62.9576 26.2091L62.9096 26.2241C61.6308 26.612 60.2714 25.9053 59.8567 24.6269C59.4366 23.3326 60.1441 21.9423 61.4366 21.5218Z" fill="#0C0C0C"/>
<path d="M48.9195 32.0601H28.4388C28.7299 35.6638 30.2964 42.8393 38.6792 42.7121C47.062 42.5849 48.9989 35.5578 48.9195 32.0601Z" fill="#FEC656"/>
<path fill-rule="evenodd" clip-rule="evenodd" d="M27.8038 31.5831H48.9391L48.9462 31.894C48.987 33.6935 48.5117 36.3947 46.9432 38.6716C45.3634 40.9653 42.6882 42.8059 38.3932 42.8711C34.091 42.9362 31.5033 41.1184 29.9692 38.8019C28.4493 36.5071 27.9787 33.7484 27.8316 31.9267L27.8038 31.5831ZM28.4954 32.2191C28.6695 33.9845 29.156 36.4236 30.4985 38.4505C31.916 40.5907 34.3028 42.2971 38.3836 42.2351C42.4713 42.1731 44.9561 40.4365 46.4204 38.3104C47.809 36.2947 48.2924 33.9085 48.3129 32.2191H28.4954Z" fill="black"/>
<path d="M44.4728 32.0601H32.5667C32.736 34.48 33.6466 39.2987 38.5198 39.2133C43.3929 39.1279 44.5189 34.4089 44.4728 32.0601Z" fill="black"/>
<path d="M79.8788 32.0601H59.3981C59.6891 35.6638 61.2556 42.8393 69.6384 42.7121C78.0212 42.5849 79.9582 35.5578 79.8788 32.0601Z" fill="#FEC656"/>
<path fill-rule="evenodd" clip-rule="evenodd" d="M58.763 31.5831H79.8978L79.9058 31.894C79.947 33.6935 79.4707 36.3947 77.9021 38.6716C76.3224 40.9653 73.6472 42.8059 69.3526 42.8711C65.0503 42.9362 62.4625 41.1184 60.9284 38.8019C59.4085 36.5071 58.938 33.7484 58.7908 31.9267L58.763 31.5831ZM59.4546 32.2191C59.6287 33.9845 60.1152 36.4236 61.4577 38.4505C62.8752 40.5907 65.2621 42.2971 69.3431 42.2351C73.4313 42.1731 75.916 40.4365 77.3798 38.3104C78.7674 36.2947 79.2517 33.9085 79.2723 32.2191H59.4546Z" fill="black"/>
<path d="M75.4317 32.0601H63.5259C63.6952 34.48 64.6059 39.2987 69.4796 39.2133C74.3521 39.1279 75.4778 34.4089 75.4317 32.0601Z" fill="black"/>
<path fill-rule="evenodd" clip-rule="evenodd" d="M85.6826 112.108C85.6826 112.108 98.4211 93.9908 126.728 98.1679C155.035 102.345 162.365 123.423 162.365 123.423L170.763 108.501L160.477 96.2488L143.528 85.4193L122.478 80.3334L105.626 83.79L91.7885 91.5857L80.9103 106.597L85.6826 112.108Z" fill="#6368C8"/>
<path fill-rule="evenodd" clip-rule="evenodd" d="M122.441 80.1268L143.585 85.2356L160.603 96.1083L171.03 108.529L162.267 124.1L162.083 123.571C157.23 109.618 145.432 101.256 126.647 98.4845C107.863 95.7126 94.277 100.327 85.8453 112.318L85.6586 112.583L80.5398 106.672L91.5744 91.4452L105.497 83.6026L122.441 80.1268ZM143.384 85.7217L122.429 80.6585L105.67 84.0961L91.9159 91.8446L81.194 106.64L85.6207 111.753L85.6918 111.654C94.1763 99.8789 107.678 95.2934 126.156 97.8886L126.723 97.9702C145.302 100.712 157.16 108.907 162.258 122.552L162.375 122.87L170.41 108.591L160.266 96.508L143.384 85.7217Z" fill="black"/>
<path d="M174.233 117.989C171.209 148.481 153.745 156.92 122.53 155.133C94.8065 153.546 72.0829 136.612 74.1764 115.901C75.6149 81.366 105.237 76.5217 125.887 78.1433C154.434 80.3852 177.986 98.64 174.233 117.989Z" fill="#434581"/>
<path fill-rule="evenodd" clip-rule="evenodd" d="M93.6936 83.172C83.5248 88.2789 75.6514 97.9043 74.6513 115.066L74.6514 115.074L74.6503 115.082C73.446 125.304 78.3859 134.724 87.106 141.861C95.8258 148.998 108.307 153.831 122.108 154.862C137.683 156.025 149.809 154.568 158.476 149.065C167.126 143.573 172.383 134.017 174.141 118.846L174.143 118.834L174.145 118.822C176.154 109.312 171.436 99.9149 162.612 92.5301C153.791 85.1485 140.904 79.8151 126.696 78.4508C116.407 77.4629 103.884 78.0538 93.6936 83.172ZM93.4711 82.7058C103.785 77.5261 116.418 76.9417 126.747 77.9335C141.041 79.3061 154.027 84.6724 162.935 92.1271C171.836 99.5757 176.702 109.147 174.644 118.916C172.873 134.177 167.566 143.904 158.742 149.506C149.933 155.099 137.671 156.546 122.068 155.38C108.18 154.343 95.5976 149.479 86.7867 142.267C77.9773 135.057 72.9171 125.479 74.1445 115.031C75.1584 97.6881 83.1373 87.8958 93.4711 82.7058Z" fill="black"/>
<path d="M164.344 113.245C163.511 126.837 147.901 136.83 125.073 134.584C105.381 131.678 87.7619 121.665 86.134 106.796C86.9679 93.2038 103.372 84.0076 125.047 85.2487C146.528 87.4293 165.177 99.6533 164.344 113.245Z" fill="#FC64AB"/>
<path fill-rule="evenodd" clip-rule="evenodd" d="M164.67 112.256C165.447 99.5872 144.798 86.3775 123.979 85.1855C103.161 83.9936 86.928 93.6657 86.1519 106.335C85.3746 119.004 103.396 133.696 128.079 134.875C152.762 136.054 163.893 124.925 164.67 112.256ZM86.6585 106.364C87.4278 93.8269 103.707 84.5454 123.948 85.7043C144.815 86.8991 164.907 100.093 164.163 112.227C163.766 118.695 160.656 124.369 155.052 128.332C148.804 132.751 139.713 134.911 128.106 134.356C116.474 133.801 105.743 130.171 97.8627 124.489C90.4273 119.126 86.2864 112.434 86.6585 106.364Z" fill="black"/>
<path d="M90.0299 141.137C91.9308 140.2 92.1663 136.64 90.5554 133.184C88.9451 129.728 86.0982 127.686 84.1966 128.623C83.9972 128.721 83.8167 128.848 83.6542 129.001L74.426 133.544L79.6896 144.971L89.093 141.363C89.4228 141.355 89.7378 141.281 90.0299 141.137Z" fill="#262540"/>
<path fill-rule="evenodd" clip-rule="evenodd" d="M83.5346 128.76C83.6837 128.627 83.8454 128.515 84.0194 128.423L84.0847 128.389C86.1483 127.372 89.1194 129.503 90.7812 133.071C92.4445 136.639 92.1987 140.354 90.1352 141.371C89.8265 141.523 89.4921 141.607 89.1382 141.622L79.5552 145.298L74.0858 133.423L83.5094 128.783L83.5346 128.76ZM89.9168 140.903C91.6558 140.047 91.881 136.641 90.323 133.297C88.7642 129.954 86.0415 128 84.3031 128.857C84.1275 128.943 83.9672 129.055 83.8225 129.192L83.7942 129.218L74.761 133.666L79.8174 144.644L89.0425 141.105L89.085 141.104C89.384 141.096 89.6621 141.029 89.9168 140.903Z" fill="black"/>
<path d="M77.7787 149.736C80.5994 148.346 80.9319 143.031 78.5244 137.863C76.1156 132.696 71.8779 129.633 69.0573 131.023C68.9922 131.054 68.9295 131.088 68.8664 131.124L33.6222 145.893L41.9034 164.692L77.1317 149.971C77.3542 149.916 77.5711 149.838 77.7787 149.736Z" fill="#434581"/>
<path fill-rule="evenodd" clip-rule="evenodd" d="M77.7749 149.735C80.5942 148.346 80.9281 143.031 78.5205 137.864C76.1117 132.696 71.8728 129.633 69.0534 131.023C68.9884 131.054 68.9257 131.088 68.864 131.124L33.6182 145.894L41.8995 164.693L77.1292 149.971C77.3517 149.916 77.5672 149.838 77.7749 149.735ZM69.2718 131.491C71.7659 130.262 75.7566 133.146 78.0611 138.09L78.129 138.238C80.3586 143.133 80.0255 148.051 77.5564 149.268C77.3834 149.353 77.2016 149.419 77.0137 149.466L76.9765 149.475L42.1627 164.023L34.2976 146.169L69.0837 131.592L69.113 131.576L69.1648 131.546C69.1998 131.527 69.2359 131.508 69.2718 131.491Z" fill="black"/>
<path d="M42.3442 164.607C45.1642 163.218 45.4979 157.902 43.0895 152.735C40.6811 147.567 36.4426 144.505 33.6227 145.894C30.8027 147.283 30.469 152.599 32.8774 157.766C35.2858 162.933 39.5242 165.996 42.3442 164.607Z" fill="#6368C8"/>
<path fill-rule="evenodd" clip-rule="evenodd" d="M43.0853 152.735C40.6765 147.567 36.4389 144.504 33.6182 145.894C30.7989 147.283 30.4649 152.599 32.8727 157.765C35.2814 162.932 39.5203 165.996 42.3398 164.606C45.1603 163.217 45.4928 157.902 43.0853 152.735ZM33.332 157.54C31.0274 152.596 31.3426 147.59 33.8367 146.361C36.3307 145.133 40.3227 148.017 42.626 152.96C44.9305 157.903 44.6154 162.909 42.1212 164.139C39.6272 165.367 35.6365 162.483 33.332 157.54Z" fill="black"/>
<path fill-rule="evenodd" clip-rule="evenodd" d="M97.4782 100.195L143.954 110.057L149.168 105.634L103.841 96.1722L97.4782 100.195Z" fill="#FC64AB"/>
<path fill-rule="evenodd" clip-rule="evenodd" d="M103.92 95.9155L149.864 105.506L144.146 110.355L96.9285 100.336L103.92 95.9155ZM148.724 105.799L104.013 96.4659L98.279 100.091L144.013 109.795L148.724 105.799Z" fill="black"/>
<path fill-rule="evenodd" clip-rule="evenodd" d="M101.134 112.82L147.61 122.682L152.824 118.26L107.497 108.798L101.134 112.82Z" fill="#FC64AB"/>
<path fill-rule="evenodd" clip-rule="evenodd" d="M107.576 108.541L153.519 118.132L147.802 122.98L100.584 112.961L107.576 108.541ZM152.38 118.425L107.669 109.091L101.935 112.716L147.669 122.421L152.38 118.425Z" fill="black"/>
<path fill-rule="evenodd" clip-rule="evenodd" d="M87.0446 124.056C79.6914 116.536 77.5934 107.566 78.7358 99.8244C79.76 92.8837 85.8169 86.6101 95.0589 82.5484C104.277 78.4962 116.56 76.7012 129.796 78.6545C143.043 80.6092 154.541 85.5609 162.424 91.9597C170.319 98.368 174.509 106.152 173.381 113.791C171.107 129.203 153.787 142.153 127.123 139.611C107.07 137.699 94.4047 131.584 87.0446 124.056ZM127.072 140.128C86.8204 136.291 75.902 115.549 78.2334 99.7502C80.3583 85.3502 103.234 74.2093 129.872 78.1402C156.51 82.0711 176.215 98.0656 173.884 113.865C171.552 129.664 153.879 142.684 127.072 140.128Z" fill="black"/>
</svg>
